<svg id="Layer_1" xmlns="http://www.w3.org/2000/svg" viewBox="0 0 792.5 316.7"><style>.st0{fill:#f3f6c9;stroke:#bcdaff;stroke-width:.5}</style><path id="ID-AC" class="st0" d="M36.7 92.1l-.2.1-2-2.4-1.5-.6-.1-.3 3-.1 1 2.1-.2 1.2zM9.2 31l2.6 1.4.4 1.1 2.8 2.4 4.8 1.3 4 .3 1.9-.3 2.2-.9 1.3.5 1.5-.3 2.5.7.7 1.2.6.2 5.4-1.7 4.1 4.7 1.6 1.3 1.2.3.9 1.8.2 1.5.8 1.6-.1.9.8-.1 1 .4 2.7 1.9.1 1.3-.4.9h-1.2l-.8.2-.3.4h-1l.2 1.1-.4.2.2.5-.5.5-.4 2.6-1.2.7-.1.7-.7-.3.2 1.4-1.9 1.8L46 65v.7l.7.3.2.9.6.4-.3.5.3 1 .7.4.3-.1.4.7-.2.8-2.4.7 1.2.8.1.7.6.7-.1 1-.8.1.4 2.7.9.2.6 1.1 1 .1.2.6-.4.9.7 1.4-.6.2-.2 1.4.2 1 .4.6-.1.7.8.3.5 1.6-.6 2.8-3.5-2-1.6.4-2.1-.5-1.7-2.3-.1-4-.9-3.9-2.5-.9-1.2-.9-1.2-1.7-.5-2-.5-.8-1.5-.5-2.8-4.8-1.8-1.3-.3-1.1-1.6-1.1-2.6-.2-1.3.2-1.2-.4-1.7-1.6-1.9-2.8-1.7-1.8-3-1.7-3.1-3.4-5.1-4.5-1.9-2.8-2.4-4.7.3-1-1.2-1.9.4-2.1-.5-1.3.2-1.6h.9l2.6-1.5 2.9.4 2.2.9z"/><path id="ID-BA" class="st0" d="M352.6 279l-1.6-.6-.8-.7.1-.4.9-.6 1.3.2.6 1.1-.5 1zm-19.3-12.4l1 .9.7-.4 5.2 1.3 2.4-.4 1.7-1.5 1.3-.3 4.6 1.7 1.9 1.2 1.3 1.6 1.3.7.1.7-1.6 1.5-2 1-3.1 1-1 .9v.8l-1.3.8.5.7.1-.4.2.7-.4.5-1.1.3-1-.1-.2-.3 1.4-.9-.2-.5.3-.6-.4-.5-4.7-4.1-3-.9-2.1.1-2.4-3.1-.3-1.9.1-.4.7-.1z"/><path id="ID-BB" class="st0" d="M202.1 179.1h-1.2l-1.7-1 .3-.8 1.1-.5 1.7.7-.2 1.6zm16.3-8.4l4.4 1.2 3.1 2.5.5 1.8-1.5 2.6-.1 1.9-1.6.7-.5 1.1-1.7.5-.3-1.4-1.7-1.9-.8.6.3.4-.1.8-.4.3-2.9.9-.6-.2-.6-3.5.6-1.6.1-2.3.4-.4.2-2.9.3-.4h1.8l1.1-.7zm-30.2-13.1l1.3 2.7.4 3.7.9 2.8 1.3 2.1 1.2.9 4 .7 2.9 1.1-1.7 1.6-1.4 4.1.1.4.8.5 1.5.5v1.2l-.4.4-3.4.1-1.3-2.1-2.8-1.3-5.3-1.6-.9-1.6-.3-1.3.6-2.1-.1-.9-1.4-.7-.6-.7-.4-3.5-.9-.9-4.6-.5-2.4.4-3.6-.9-.3-.9.4-1.3 2.5-1.1 1.9-1.5-.2-.9-.9-.6.2-.9 1.9-1.5 2.1-.7.5.1.7 1.8.1 1.7.9.7 1.7.2-1.7-4.2 3.1-1 .4.1 2.3 1.8-.3.8.1.6 1.1 1.7z"/><path id="ID-BE" class="st0" d="M118.5 174.6l.2.6.8.5.1.7 1.5 1 .7 1.8 1.1.6 1.1-.4 1 .2.6.6.3.7-.1 1.2.2.1-.2.5 1.7 1.5.9.4 2.5-1.2.6.9.8.1.6-.2.1.9.8-.3.8.1.2.5-.3 2.1-.7 1-.9.7-.9-1.2-.7-.3-.1 1.4-1.1 1.1-.1 1.1-2 1 .7.2.6.8 2.4 2 .8.2.6-.3.9.8 2.2-.1.7.3 1 2v1.6l1.9.3 1.2 1 1.7.1.9.9 1-.4.6.2.3 1.2-.8 1.1 1.1 1-.7.6h.8l.6.5.5 1.3-.4.5 1.4.2.3.9-.1.1-.9.1-.1.5-1.8 1.1-.2.5-.8-.1-1-.8-1.5-.1.1-.4-.3-.4-.5-.4-.6.3-.4-.3.2-.5-1.6-1.7-3.1-2.1-2.6-1-.5-1.1-1.1-1.1-8.9-6.7-.2-1.3.5-.4-.9-1.7-.3-1.6-2.2-1.8-3.3-1.7.1-.3-5.6-4-1.5-1.9-.7-1.7-1.5-2-1.2-2.9-3.2-1.8-2-2.4 3.9-2.6.8-1 4.7 3-.2 2.1.3-.5.7.1 1-.4 1.9 2.3 1.4 1.1.7.2 1.3-.2 1.4.9z"/><path id="ID-BT" class="st0" d="M199.2 232l-.6.2v1.1l.6.3v.7l.4.1.6 1.5v.1l-.2.6h-2.9l-.3-.4-1-.3.2.5h-.5l-.2-.6-.3-.1-.7.6.4 1.4-.9.4-.1 1 .6 1.2-.1 1.7 1.5 1.5-1.3 1-.1.7-.6.7.1 1.4-1.5.2-.1-.3h-.7l-.4-.3v-.4l-2.5-.9-1.2-1-1.4-.1-2.9.6-1.5-.2-2.1.3-.4.3-1-.1-.6-.6-.6.3.1-.3-.6-.4-1.1-.2-.9.8-.4-.1-.1-1-.4-.5 1 .1 1.1-1-.6-.5.8-.4.6 1.3-.2.3.5.3.4 1 .5.2.5-.6.1-1 1.8-1.8.1-1.5.5-.9.4-.3-.1.7.4.3 1.4-.1.9-1.5.1-3.1.6-2.2.4-.2v-.6l1.8-1.5.2-.9.6-.8.7-.1.6.6v1.3l1 .6 1-.3.6-1 1.3.6.4-.4.6.3.1.7.5.3 1.1.2.7-.5.5.3 1.1-.3.4.2.5-.1.5.5.3.4z"/><path id="ID-GO" class="st0" d="M466.8 109.6l4.7.3 3.4 1 3.2 2.2 1.1-.7.8-1.2 2.6-.4.2.8 1.4.6.7.7.2 1.3.6.5 1.2.9 2 .3.5.6.3.8-.1 2.1-1.1 2.4h-2.1l-1.5-.4-3.1-3.3-.5.4-1.4.1-8.4-.3-7.2.3-1.1.6-3.4.4-1.5-1.7-2.9-.3-.7 1.1-2.8.3.3-.5-.2-1.5-1.8-.4-1.3-1.5.3-.2.1-1.1.3-.3 1.1-.4 1 .4.5-.1v-1l.4-.4.9.5 1.3.1.5-.4h1.5l3.2-1.2.8-.6.9-.1.5.8.9.7.4-.9h.4l.5-.6 2.4-.7z"/><path id="ID-JA" class="st0" d="M160.6 155.7l-1.3-.5-.5.1-.5.4.1.8-.3.4-2 .2-2.3.8-1.1-.3-1.2.2-1.5-.6-.7.4-.3.4-1.7.1-2.2.8-1.1 1-.3 3.6.6.5-1.8.8v2.9l-2.1-1.5-.8-1-.1-.8-.8-.4-1.2 1.7.7.7.2.7-1.5.6-1.4-.6-.3.5-2.6-.6-.6.8.6 1-1.5 2.1-.4.4-.6-.1-1.7 1.1-.8 1.2-.5-.2-1 .5-.8-.2-.7-.2-1.1-.8-.5.2-.9-.5-.6.2-.1.7-.4.4-1.6.5-.4.7-.6-.2-1.3-.6-1.3.2-.7-.2-1.4-1.1-1.9-2.3-1 .4-.7-.1-.3.5.2-2.1-4.7-3 .2-.5-.7-3.3-.4-.7-1.1-.7-.8-1.4-.2-3.6.7.3.3-.4.7.7.6-.3 1.6-.2 1.2-.1.4.4 1-.3 1.2-1.8 2-1.2.6-1.1-.4-.6.4-.7-.4-1.6.6-.6 1.6-.4 1.1-1.9-.5.2-.5-.4-.1-1.9.6.1v-.3l.8-.2.2-.6.6-.3.2.2.6-.6 2.2.7.8-.3.6.8 1.8-.6.3.8 1 .5v.6l1.2.1.5.8 2.2.3.6.4.8-.7.7-.1 1.1-1.7 2.1-1.5 1.7-2.3 2-.1 3.6.6.4.3.9-.5 1.2-.1 1.2.8 1.8 1.8 3.3 1.6 2-.5 4.6 1.5 2.6-.7.8 1.7-.3 1.4 1 2-.2 3 .7 2.6z"/><path id="ID-JB" class="st0" d="M205.7 229.3l1.2.9 2.2-.5.9.3 2.1 3 2.7.8.9.9.4-.3.7.1 1.3-.8h.6l.1.4.6-.3-.1.8 4.1 1.7 1.4-1.1-.4-.7.6.3h1.3l.6.4.2-.6.6 1.9 1.3 1.5 1.4.8.4 3.6.7 1.2.6.1.3-.3.5.3.1.6 1.2.3.9-.5.1-.4-.3-.1.2-.3h.5l-.1 1.5-1.2 1.5.1 1.1.7.4-.3.6v1l-.9.3-.5.6-1.3-.2-1 .5.3 1.4-.5.8.1.8.4.2 1.2-.1.5.5.7 1.1v.9l.6 1.3-.4 1 1.2 1-.7.4-1.3-.4-.5.3.1.6-.5-.7-2 .2-.4.4-.1 1.1-.4.3-2.3.2-4.5-.8-1.5-.5-2.5-.1-.7-.9-2-.4-.3-.7-1.2-.9-2.5-1.1-3.9-.4-2-.5-9.5-.7-2.2-1-.5.2-.5-2.2.6-.9.9-.2-.1-.9.9-.6.6-.9-.1-.9-.5-.5-1.2-.1-.8.5-.1-1.4.6-.7.1-.7 1.3-1-1.5-1.5.1-1.7-.6-1.2.1-1 .9-.4-.4-1.4.7-.6.3.1.2.6h.5l-.2-.5 1 .3.3.4h2.9l.2-.6v-.1l.5-.1-.1.8.9-.2 1 .4.2-1-.3-.9.6-.2.4-.9.1-2 .6-.3-.2-.4.4-.3-.4-.5.4-.9-.5-.2.6-.4 1.5.4z"/><path id="ID-JI" class="st0" d="M313 272.8l1.5.1.5.3-.2.4-1 .2-1.4-.1v-.5l.6-.4zm42.7-23.2l.5.2.2.4.9.3.8-1.1-.3 1.6-1.1.3-1.3-.6-.2-.3.3-1.1.2.3zm-23.8 1.2l-1-.1-.8-.6-.3-.6.2-.6.9-.3.5.3.7 1.5-.2.4zm21.6-3.6l.7.7-1.6-.2-.5-.6.3-.3 1.1.4zm-28.4-1.5l1.8.9.3.8-3 .9-.7-.1 1 .8 1.4.1.2.7-1.6-.2-1-1-.7.7.2.8-3.6-.4-.6.4h-.8l-.8 1.7-.7.4-.1-.4-.8-.1-4.7.1-.3-.5-.3.1.2-.5-.3-.3-.4.4.5.7-.9.1-4-1.1-1.5-.1-1.1.3-.5-.4.2-.9h-.3l-.3-.7.2-.5.6.1 1.2-1 .6-1.2 1.1-.4 2.3-.2 8.4.3 7.2-.6 1.6.3zm22.3-.9l3.2.5 1.5.8.2.4-.4.6-.9-.2-.4-.4-1 .2-.3-.4-1 .1 1.2 1.1-1.2.1-.5-.4-.5.6-.7-.6.5-.5H346l-.1-.3.2-.6.7-.4-.3-.5.9-.1zm-61.4-1l2 .5 2.1-.6 1.1 1.9 1.3.4 1.9-.5 3.3-.1 1.8.7.4-.5-.2-.3.2-.5.5.3.3.7.5.3-.4.4.3 1 .6.4.1.6-.5 1.2.8.7-.3.9.9.2.2-.4.8-.1 1.5 1.5-.2.8.2.1-.1 2.4-.4.1.9 1-.1.9.4.5.8.3.2-.2.9.6.9-.1.7.8 1.4.7h1.4l.6.7 3.8-1.5 2.9.6.8-.4.9.4 1.5-1 1.3.3 1.1-1.1.9-.4.6.4.8 1.3 1.6.1.6-.3.9.8 1.5.3 1 .6.5.6v.9l-.8.7.2 2.4-.8 2.2.1.7-.8 3v.6l.4.8-.2.7.4.1.2-1.5.6 2.8.5.6.5-.4.6.6 1 .2.6.9-.2.8-1 .4-1.6-.5-1.5-.1.5-.8-.2-.6-.6-.6-1.2-.5h-.5l-.3.8-1.9-.5-1.1.3-.5-.8-.3.4h-.6l-.2-.2.4-.4-.3-.3-.6.3-1.4-.5v-.4l-.5.3-.2-1-1.4.6-.1-.7-.7.2-.8-.9-.8-.1-.1-.2-.8.1-.8-.4v-.4l-.4-.2-1.2.4-.9-1.3-1.7-.8-3.5.4-1 .6-.9 1-3.6.5.1.5-.4.1-2.3-1-2.9-.5-1.6-.8-.6.3-1.2-.4-2.5-.1-1.8-.7v.3h-.8l-.7-.6-.3.2-1.1-.2.1 1.1-.3.2h-.3l-.1-.7h-.3l.1.5-.5.2.5.6-.5.1-1.2-.4.1-.5-.7.2-.6-.5-.2.5-1.3-.3-.2-.8-.3-.2-.7.4-2.5-.5-.5.4-1.2.1-.8-.6v-.3h-.3l-.1.5-1 .1-2-.6.1-1.7.7-.9 1.3.3.8-.6.5.3.4-.7.2-1.5.8-.3.1.3 1 .2 1.1-1.6-.6-1.3.1-.6h-1l-.8-.7.2-1.8-.6-.4-.2-1.4-.6-1.4.5-1 .1-1.7 1.1-.3.5.6 3.7 1.6.1-.3-.3-.1.2-.6h-.5l.4-.9 1.6-.7 1.3-2 .1-2.2-1-.7.7-.7.2-1.4.7-.1.1-.8.5-.4-.1.7zm16.7-18l.4.1.2.8-.2.8-.8.4h-1.6l-.3-.5.3-.9 1.6-1 .4.3z"/><path id="ID-JK" class="st0" d="M174 239.6l-.4 1.8-.6.2-.4.6-.2-.3.4-.9-.3-.3v-.4l-.8.5-.1.3-.3-.2.3-.6 1-.8 1.4.1zm25.6-7.5l1.8.3.7-.4 1.4-.1-.1 2-.4.9-.6.2.3.9-.2.9-1-.4-.9.2.1-.8-.5.1-.6-1.5-.4-.1v-.7l-.6-.3v-1.1l.6-.3.4.2z"/><path id="ID-JT" class="st0" d="M285.2 243.5l-.5.4-.1.8-.7.1-.2 1.3-.7.7 1 .7-.1 2.2-1.3 2-1.6.7-.3.9h.5l-.2.6.3.2-.1.3-3.7-1.6-.5-.6-1.1.3-.1 1.7-.5 1 .6 1.4.2 1.4.6.4-.2 1.8.8.7 1-.1-.1.6.6 1.3-1.1 1.6-1-.2-.1-.3-.8.4-.2 1.5-.5.7-.5-.3-.8.6-1.3-.3-.7.9-.1 1.7-1.2-.3v-.5h-.4l.2-.6-.5.4-.2-.2v-.8l-.6-1.6.6-3.4-.3-.2-.3.2-.7-.6-.6.3-.2-.3-1.5.3-.2-.3-.6.1-.8-.5-.8-3.9-2.4 1.9-.6.8-.4-.9-2.2.1v1.6l-1.2 1.3-.3 1.3h-.6l-5.3-1.6-3.8-.7-1.2.3-.5-.3.2-.5-1.9-.4-3.9-.1-.8.6-.1.4.6.3-.2.2-4.2-.7v-.6l-.2-.1 1.3-.8-1.1.2-1.2-1 .4-1-.6-1.3v-.9l-.7-1.1-.5-.5-1.2.1-.4-.2-.1-.8.5-.8-.3-1.4 1-.5 1.3.2.5-.6.9-.3v-1l.3-.6-.7-.4-.1-1.1 1.2-1.5.1-1.5v.5l.5.5 1.6.5.2-.4 1.3-.4.3-.4.1.9.7.6 2.6.5 2.8-.4 1.7-1.2 1 1 1.5.2 3.8 1.2h2.3l2.3-.8.5-.5.8.2.5.8 1.2.6 1 .3 1.1-.2.1.2.6-.2.7-1.9 1-1.2h-.6l-.1-.2.4.1-.2-.5.6.1 1-1.1.1-1.8.6-.6-.3-.3 1-1 3.1-.8 2.4.4 1 3.1.6.9 1.7.6 2.3.2 1.4-.6.2-.5.5-.3 1.4.4 2.7 1.8z"/><path id="ID-KB" class="st0" d="M236 155.8l-.4-.1-.6-1.4.1-.3 1.6-.5.6.1.6.6-.3.9-1.6.7zm11.8-11.5l1.6-.2.9.6.7-.5.5.2.6 2.4-5 2.9-1.3-.4-.4-.4.7-1.1.4-2.6.8-1.1.5.2zm2-52.8l-.5 1.4-.7 1-.6.1-.1.5.2.7.9.9 1.2.3.1.3-.4 2.1.3.7 2.2 2 .8 1.3 1.8.2.4 1.7 1.5.7.4.9.4.3 1.3.1 1.5 2.3.3 1 2 .2.9 1.4 1.5.7 1.3-.1.4-.7.5.4h.5l2.8-1.2.9-1.1 3.9-.5 2-.6 2.6 1.2 1.2-.3.8.1.7 1.2.3-.6 1.6-.9 1.3.5.6-.2 1.7.3.3-.8 1.4-1.4 3.2-.2.4-2.7.9-.8v-.7l-.4-.7.5-.6 1.7-.8 1.6-.3 1.6-.9 2.9.4 1.6-.1.9.4 1.1-.8 2.4.3.6.7-1.6 2 .8.1 1.4-.4.4.1.4.7.8.2 2.4.1 1.8 1.6 2.1-.6.7.3.8 1.3.3.1 2.9-1.4.2-1.2 1.9-.8.4-.4 3-.3 1.2.9-.8.4-.1 1.7.2.2-.3.4-.2 1.4-1.4.6-1-.1-.5.4-.1.7-1 .4-.1.4.5.7-.8 1.3.9 1.5-.5.6-.1 1.2-.7.3-.1.8-.5.3-.2.7-1.1 1.3-1.1.4-.3 1.1-1.3.8-1.7 1.8-.9.6-1.4-.3-1.4.6 1 1.2 1.5.8-.1 1.3.5.6-.4 1.1.4.3-.4.8-.4.3.3.2-.1.3-.4.1-.8 1.1-.9.2-1.4 1.8.8.7.2.8-.8 1.3-.6-.6h-.5l-.1-.4-1.4.9-1.3-.1-1.8.7-.7.6-1.9.1-.1.9h-.7l-.2.4h-.9l-.6.6-1 .3-.9-.2-.3.7-.4-.3v-.6l-.4-.1-1.3.8-.4-.2-.4.4-1-1.7-.9-.3-.8 1.1.1.8-2.2-.4-.2.2.2 1.4-1.2.3-.9-.7-.1.9.3.8-.7-.1-.8.9-1-.1-1.9 1.1h-.6l-.3.4.2.7-.9.6-.3.5.3.6-.3.5.3.3-.1.3-2.8.6-.1.5h-.3l-.4.8-.6.3-.8 1.4-1.1-.2-.1.5-.4-.1v1.4l-.6-.8-.8.5.3.8-.8.2-.4-.4-.8.4-.5-.4-2.1 1.6v.8l.4.1.4.6 1.1-.9.5.7.1 1.2-.6 1.2v.6l.3.4-.4.8.5.6 1.5.1-.1.8-.7.6.6 1.5-.8 1.2.7 1.1.5 1.8.6 3.4-.3.8.8.3.1.4-.5.9-2.4.8-.1.6-.6.5-1.2.2-2 .9-.7 1.2-1.3.8-.3-.1v-1.8l-.4-.9-.6-.5-.6-.1-2.4 1-2 1.6-.7-.4-.5-1.5.6-1.7-.8-.7-.2-1.7-1.3-.4.7-.8.2-1.3-1-3.8-.7-.9.5-3.2-.7-1.8-2.4-1.2-.8-.8.2-.9 1.3-.8.7-1.2.6-3.3-.2-2.3-.9-.9-.8-.2-.9-1.1.5-1.4-1.9-.6-1.2-1.6-.7-.4-.7.5-1.1-.8-.7-1-2.3-.8-.5.1.2.8-.5.5-1.7-.6-.6-.6-.5-.9.2-2.6.8.5 1.9.4 1.1.6v-.5l-1-.7h-.9l-.2-.5.3-1.1-1.8.2-1.7-.6-.7-.8-1.4-4.5.3-.6.6-.1-.2-.8 1.1-1.8.4-1.6-.2-1.2-.8-1.9-1.1-1.2-2.3-.6.5-1.6v-.5l-.7-.8.5-2.1-.3-.9-.7-.8.2-.9-.8-.9.1-.4 1.2-.6.7-.7.4-1.1-1.4-3.2.1-.2.7.2v-.8l1.3-1.8.2-.8-.2-1.3.5-1.6 3.5-2.6.5-1.6.7-1-.1-1.9 1.9-.2.8-.6h1.7l1.9-1.2zm-14-13.4l-1.1-.7.9-.8.3-1.1.5-.2.4.4-.2 1.5-.8.9zm-53.6.3l-.6-.2-.3-2.7.3-.9 2.6 1.4-.6 1.3-1.4 1.1zm44.5-14.5l-2.3.5-1.5-.8.6-.8 1.2-.9-2.4-1-1-1.8-.2-1.1.6-.7.7-.2 2-2 1.2.3.3 1.3 2.2 2.2.2 1.8-.2.8-1.4 2.4z"/><path id="ID-KI" class="st0" d="M393.8 84.8l1.4 1.6.7 1.2v.4l-.6.9-2.7 2.5-1.3-.4.7 1.2.1 2.8 4.5 4 4.9 2.9.5 1.4 1.3.6 1.2.1 3.1 2.7 1.1 1.8 2.7.8.2 1.1-1.3 1.5-2.4 1.7-2-.8-3 .3-2.8-.2-3.1-.6-1.6-.7-.7-.7-.7-1.8-.7-.6-1.1-.3v.4l2.4 4.1.1.7-.6.4-1.7-.9-1.6.5-1.2 1.2-.4.8v.9l-1.7 3.5-.9.7-.6 1.5-.9 3.3 1.1 2.3-.8 1.1-.8 2.5.6 1.8-.5 3.1 2.6-1.7.7-.1-1 3.9.8 2.2-2.9 1.5-2.1-.1-.8-.8-.4.3-.1.8-2 2.4-2 3.3-1.8.9-1.8.3-1.3-3 .3-1.1-.3-.1-.5 1.8.7.7.6 1.3-.5 2-2.2.8-1.5 1.1v.9l.5.8-.7.8-2.4.9-3.1 1.7.6.6 2.1-.8 1.1.3.2 4.5-.4.5-1.3.7 2.1.3.4-.4.3 1.1 1.4.4-.8 3.9-2.4-.9h-2.7l-1.3-.4-2.7-.2-.9-.6-2.4 1.6-.3-.5v-1l-.7-1.7.2-1.5.4-.6-.8-.5-.5.1-.5-.2.2-.6-.3-.7.4-1.4-.1-1.9-.8-1.3v-.8l-.9-.9.1-.7-.3-.4-1.2.1-.2-.4 2-2.3.3.1-.1.8.2.1 1.1-1.3.2-1 .2-1.3 1.4-1.4-.8-.7-.7.4-.2-.1-.2-.7-.7-.6h-.4l-.4-1.2-1.3-.8-1.4-1.7-1.7-.3-.4-1-.2-3.1-.5-.4-.4-1-.9-.8.2-1.1-.4-.1-.2-1.5.4-.1-.2-.9.6-.9v-.7l.9-.8-.4-1.1-2.4 1.2-.3.7-.9.2-.8.7-.9-.2-1 .2-.7-3.9-.9-.6-.6.1-.3-.5.3-1.3.4-.8.6-.3.5-1.1.7-.4.4.3 1-.2.5.5 1.5-1.5.1-.7-.7-.6-1.6-2.7-.7-2.3-1-.5-.8.8.3.7-1.2-.9-.9.2-.8.6h-.9l-1.4 1.3h-.8l-.2 1h-1l-.7.5.1.7-.2.1-1.9-.7h-2l-.1-.4-.6-.3.3-.5-.3-1-.7-.4-3.7 1-.9-.3.1-.8.7-.3.1-1.2.5-.6-.9-1.5.8-1.3-.5-.7.1-.4 1-.4.1-.7.5-.4 1 .1 1.4-.6.2-1.4.3-.4-.2-.2.1-1.7.8-.4.4-.2.2-.5 2.3-.8.6-.5 2.6 1.5.6-.5 1.7 1.4 1.6.5.8.9.4 1.3.8-.5.7.1.5.2.9 1.5 1.1.2.9-1 2.7.4.8-.9 1 .2 1.3-1.2.3-1.6.4-.4 2 .1 2.3-.9h2.3l1-.9.6-1.2 2.5-2.9 1.3-2.5-.2-1.8 2.5-2.2.4-3.7 1.2-1.6.6-1.6.5-.1 1.3.9.3.7 1.3.2 1-.3 1.8-1.1 2.3-.8 2-1.2 2.7.2 2.5-.4.5 1.1.6.5 1.8.7 1.1-.3 1.6 1.7 1.4.5h.4l1.3-.8 1.3-.2.6-1z"/><path id="ID-KR" class="st0" d="M160.4 133l.9.5 1.1 1.9-1 .8-.5 1.9h-.5l-.9-.9-.5.2-.1 1.3-.5.2-.7-2.5-1.2-.9.4-1.5.7-.2.1-.8.2.8-.4.4.4.6.1-.9 1 .3.5-.3.2-.8.7-.1zm5.3-2.4h.5v-.9l.2-.2 1.2 1.6.9.8.8.1.1.4-1.4-.4-.3.3.4.5-.1.2-.9-.5-.4.1-2.5-1.9-.9.1-.9.6-.5-.1-.7.5-.5-.6-.7.1-.5-.5v-.6l1.4-.9-.2-2.3.8-.4 1.7 1.1 1.6 1.8.2.7.7.4zm-6.9-6l.2.2.1-.4.5.1 1.9 2.1-1 .4-.5-.3-1.3-1.4-.9-1.6 1 .9zm2.4-1.5l1.8 2.2 1.3 1.1-.1.6-2.2-1.5-1.6-1.8v-.5l.8-.1zm-2-1.6l.6.4-.6.2.3.3-.9-.3.1.3-.4.5-.3-.1-.5-.8-.2.1-.1-.6.7.2.1-.4-.7-.5 1.9.7zm-2.4-7.9l-.2.8.7.5-.8.3.9.2.1-.3.4.3-.2.3-.6-.2-.1 1-.6-.5-1.3-2.2 1.4-.5.3.3zm-6 .4l-.1.2-1.5-1.5-.3-.9 1.6 1 .5.9-.2.3zm-1.5-.3l-.2.5-.2-.4-1.2-.6-.5-1.2.6-.4 1.1 1.3.4.8zm-6.2-1.9l.1.6 1.1 1.3-.2.3-1-.8.4.7-.2.8.3.4-.4 1-.5.2-.2-.4-.7-.1-.9-1.3-.2-1.8.4-1.2.8.4-.1-1.1.6-.4.7.3v1.1zm11.1-1l.3.1.1-.4.4-.1.3.4-.1.5-.3.1.1.5.8.1.8.5-1.6 1.1-.4-1.2-.9-.2v-.9l-.2-.2-.3.3-.3-.2.2-.7.5-.1.6.4zm-5.5-.3l-.9-.8.4-.7.5.5v1zm1.2-1.9l-.1.3.8.9 1.2.7.1.5-.4.1-.2.7-2.1-1.4.2-.8-.6-.6.1-.3.3.2.4-.2v-.5l.3.4zm-8.1-1.1l-.1.2-.4-.1-.1.8 1.1 1.8h-.9l-1.4-.8.3-1.4.7-.2.3-.6.5.3zm12.8-.1l-.2 1.9-.7.1v.9l-.8-.2-.2.2-2.1-.9-.3-1.3.4-.1-.1.6h.4l-.3-1.1 1.2.1.2-.8.4-.1.9.8.2-.2-.2-.5.6-.2.6.8zm7.5-.5l.1.7.7.4.5 1.2-.2 1.2.3 1-.3.3.9.1-.9 1.5-1.5-.2-1.3-.9-.9-.1.7-.3-.9-1.2.2-.3.6.1-.2-.4.4-.5-.4-.4-.8.4-.1.7-.7-.5-.4.5-1.2-.1-.6-.9-.1-.4.5-.8 1.5-.2-.3-.8.4-.2.7.2.5-.3 1.8.5 1.2-1-.2.7z"/><path id="ID-KS" class="st0" d="M366.4 189.6l-.2.2-1.1-1.8.6-1.6 1.1-1.1.2 1-.6 3.3zm-4.7 6.9l-.6.2-.6-.3.5-2.1-.1-1.8-.9-1.2-.2-1.5 1.9-5.6 2.5-1.8.3.4-.4 2.3.3 2.6.8 4-.2 2.4-3.3 2.4zm-6.3-46.9l-.2 1-1.1 1.3-.2-.1.1-.8-.3-.1-2 2.3.2.4 1.2-.1.3.4-.1.7.9.9v.8l.9 1.3.1 1.9-.4 1.4.3.7-.2.6.5.2.5-.1.8.5-.4.6-.2 1.5.7 1.7v1l.3.5 2.3-1.6.9.6 2.7.1 1.3.4h2.7l2.4.9-.4 1.9-.5.7h-.4l-.3-.8-.8-.4-2 .4v1.6l1 .9.2 3.1-.3.9-1.4 1.8-.7.2-.5-1.6-1-1.6-.3-.1-.4 1.7.2.9 1.5 1.9.1 1-.8.4-1.2 1.7-1.5 2.9-.6 2.9-2.4.5-1.8 1.5-14 5.6-3.8 2.3-1.2.2-.5-1-.1-8.1-2.1-2.7-.7.1-1.5-.9v-.9l.8-2.4 1.5-2.3.4-2.3 1.5-3 1.4-.6.2-.9 1.2-.2.5-.6.3-1.8 1.2-1.3.2-.9h.6l5.9-4.3.7.2.6-2.1-.7-1.9 1-.7.2-.8-.7-.9-.1-.8 1.6-6.1 2-.3 2.2-1 .5.1 1-.8.2-.2z"/><path id="ID-KT" class="st0" d="M268.6 178.6l.7-1.2 2-.9 1.2-.2.6-.5.1-.6 2.4-.8.5-.9-.1-.5-.8-.3.3-.8-.6-3.4-.5-1.8-.7-1.1.8-1.2-.6-1.5.7-.6.1-.8-1.5-.1-.5-.6.4-.8-.3-.4v-.6l.6-1.2-.1-1.2-.5-.7-1.1.9-.4-.6-.4-.1v-.8l2.1-1.6.5.4.8-.4.4.4.8-.2-.3-.8.8-.5.6.8V152l.4.1.1-.5 1.1.2.8-1.4.6-.3.4-.8h.3l.1-.5 2.8-.7.1-.3-.3-.3.3-.5-.3-.6.3-.5.9-.6-.2-.7.3-.4h.6l1.9-1.1 1 .1.8-.9.7.1-.3-.8.1-.9.9.7 1.2-.3-.2-1.4.2-.2 2.2.4-.1-.8.8-1.1.9.3 1 1.7.4-.4.4.2 1.3-.8.4.1v.6l.4.3.3-.7.8.2 1-.3.6-.6h.9l.2-.4h.7l.1-.9 1.9-.1.7-.6 1.8-.7 1.3.1 1.4-.9.1.4h.5l.6.6.8-1.3-.2-.8-.8-.7 1.4-1.8.9-.2.8-1.1.4-.1.1-.3-.3-.2.4-.3.4-.8-.7-.5.4-1.2-.5-.6.2-1.3-1.6-.8-1-1.2 1.4-.6 1.4.2.9-.6 1.7-1.8 1.3-.8.3-1.1 1.1-.4 1.1-1.3.2-.7.5-.3.9.3 3.7-1 .7.4.3 1-.3.5.6.3.1.4h2l1.9.7.2-.1-.1-.7.7-.5h1l.2-1h.8l1.4-1.3h.9l.8-.6.9-.2 1.2.9-.3-.7.8-.8 1 .5.7 2.3 1.6 2.7.7.6-.1.7-1.5 1.5-.5-.5-1 .2-.4-.3-.7.4-.6 1.8-.6.3-.4.8-.3 1.3.3.5.6-.1.9.6.7 3.9 1-.2.9.2.8-.7.9-.2.3-.7 2.4-1.2.4 1.1-.9.8v.7l-.6.9.2.9-.4.1.2 1.5.4.1-.2 1.1.9.8.4 1 .5.4.2 3.1.4 1 1.7.3 1.4 1.7 1.3.8.4 1.2h.4l.7.6.2.7.2.1.7-.4.8.7-1.4 1.4-.2 1.3-.2.6-1 .8-.5-.1-2.2 1-2 .3-1.6 6.1.1.8.7.9-.2.8-1 .7.7 1.9-.6 2.1-.7-.2-5.9 4.3h-.6l-.2 1-1.2 1.3-.3 1.8-.5.6-1.2.2-.2.8-1.3.6-1.5 3-.4 2.3-1.5 2.3-.8 2.4v.9l-2.4-1.1-1.9-.5-1.2.1-3.6 1.7-2.6.2-1.1-.6.5-1.6.1-1.6-.6-1.4-2.3.1-.6 1.1-1.3.3-2.1-1.3-3.1-3.3-.5-.1-1.5 1.6-.1.6.4.6-.3 1-3.3 2-1.9 1.6-2.1.5-2-1.6-1.9-.7h-1l-1.4.6-3.7 3.5-1 .4-1.4-.6.6-2.3-.5-3.7.2-2.6-1.4-2.4-.4-1.6-.5-.1.1.8-.6.8.4.4-.1.4-.9.2-1.5 1.1-1.1-1.3-1.2-.6h-1.5l-4.3 2.3-2.5.5-2.2-1.5-1.2.1z"/><path id="ID-KU" class="st0" d="M388.4 70.7l-.6.4-1.3-1-.5-1.2.2-.6 1.5-.1.8.2-.1 2.3zm-4.7-4.8l2.2 1.5-.5.5-1.7-.7-1.9-.1-1-.8.1-.4.9-.4 1.9.4zm5.7-7.4l-.8.3-1.2-.9-.1-1.1.8-.8h.5l1.2 1 .1.5-.5 1zm2.8-3.3l.4.2.4 2-1.1.5-4.1-3.1 1-1h.5l1 .3.8.8 1.1.3zm-38 1.4l.4-1.6h.4l.8-.9.5.4.4-.1.1-.6.7-.6v-1.5l.5-.2.3.6 1.5.3 1 1.2.6-.9.9-.3.3-.8 1.7.4 1.5-.3 1.2 1 .2.6.6-.1.2-.5.8.1v-.6l.5-.7.8.6.2.6 1.6-.2.5-.7.8.7.7.2 1.2-.6 2 .8.3-.4 2.4.1 1.2-.6 3 2.2.6 1 1.2.3.9-.3.2.2-1.7.8-1.6-.5-.2.7 1.4.5 2.6 2.2-1.8.3 1.7 1 1.6.2 1.3 1.3-.2.9 1.1.3-.1.3-1.2 1.1-1.1.2-3.2.2-2.7-.4-1.8.3-.9.9v.4l.6.9 1.5.9 1.3-.2.8.2-.3 1.4 1.8.9-.2.3-2.1.5-.3.5-1 .2-.2.3 2.5.7 2.7 1.2 1.2 2.1-.3 2.9 1.8.7L391 82l2.8 2.7-.7.6-1.3.2-1.3.8-.4-.1-1.4-.5-1.6-1.7-1.1.3-1.8-.7-.6-.5-.5-1.1-2.5.4-2.7-.3-2 1.2-2.3.8-1.8 1.1-1 .3-1.3-.3-.3-.7-1.3-.9-.5.1-.6 1.6-1.2 1.6-.4 3.7-2.5 2.2.2 1.8-1.3 2.4-2.5 2.9-.6 1.2-1 .9-2.3.1-2.3.9-2-.1-.4.4-.3 1.6-1.3 1.2-1-.2-.8.9-2.7-.4-.9 1-1.1-.3-.9-1.5-.5-.2-.7-.1-.8.5-.4-1.3-.8-.9-1.6-.5-1.7-1.4.5-.8-.1-1.1.8-.5.9-1.2-.1-2.3.4-.9.6-.2.5.2.5-.6 1-.4-.4-.8.7-1-.5-.2-.8.3v-1.4l-.5-.5.3-2.1 1.8-.2.8-.5-.3-.7.3-.6.7.1.9-.8h.7l.6-1 1.4-.2.6-.5.1-.3-1.2-1.5-1 .3-.3-.5.4-.8-.2-1 .6-.5.2-.8-.7-.6 1-.8.2-1.1 1.6-1.1.3-.8.6 1.1 1.2-.1.8-.8 1-.1.3-1.4.8-.7-.8-.9.8-2.4.6-1.3h.3l.4.6.4-.6-.6-1-.7-2.4v-1.5l.7-2.3-1-1 1.3-.7.7-2.1.1-.1z"/><path id="ID-LA" class="st0" d="M148.3 209.6l.6-.1.1.5h.4l.4.5v.5l-.4.6 1.1.7.5-1.2.5.4 1.6-.4 1.2.6 1.5-1 1.9.4.8-1.3-.8-1-.1-.8-.5-.3.3-.8.6-.6-.3-2.7.6-1.3 1.3-1.1.6.1 2.5-1.6.6.6 2.2.1 1.5-.2.1-.4 1.1-.6 1.2-.2 1-.9.3-1 .7-.4-.3-.4.4-.4.3-1.1.4.1.1-.5.5-.3.7.2.7-.6.2-.5-.3-.6.9-1.3.5 1.2.9-.4.3.1.1.7 1.6.2-.1.8h.5l.4.3-.1.5.7.1.1.3h-.4l.8.9-.5.8.9-.1-.2.6h.6l.4.9.8.1.6-.5.8.8-.2 2.7 1.5 2.7v1.2l-.3.8.5.8-.6 1.2-.4 1.9.8 1.9-.5.5-.3 1.2.1 3.6-.8 1.4-.1 3.8.2.7-.6 2.1.1 1.2-.4 1.1-1.1 1.2-.2-1-2-.5-.1-1.6-.6-.6h-.5l-1.6-1-.8-.8-1.4-2.4-.3-.1-.5.5-.1 2-.7-.2-.6.4.4.8h.3l-.5.3.6.9-.7.1-.4.4.3.5.8-.1-.5.5-.6.1-3.4-1.6-3-1.9-1.5-1.5-1.6-.3-.9.4-.5.4 2.2 2.8-.2.5 1.2 1.8.3 1.5-.1.2-2.5.1-.4-.4.3-.2-.2-.7-2.1-1.9-.4-.7-2-1.2.3-.5-.9-1.1-3-2.1-1.5-1.7-.1-1-1.6-.6v-.4l.5-.6-.6-.9-.6-.2-1.5-1.4-.7.1.1-.7-.8-.7h-.7l-1.2-.7.2-.5 1.8-1.1.1-.5.9-.1.5.2z"/><path id="ID-MA" class="st0" d="M584.8 269.7l-1.6-.1-1.5-.7-.2-.3 1-.4 1.4.1 1 .5.1.5-.2.4zm-20.3-2.9l1.8.6h2.6l.5.5-1.8 1.7-3.8-1.4-.7-1.3 1.4-.1zm51.3 4.3h-.7v-.2l1.6-1.7 1.2-.7 1.5-2 2.8.7-.6.6-3.2 1.2-1.1.8-.2.4-1.3.9zm-18-5l-1.3-.3-1.9-2.3v-1.1l.4-.7 1.6-.2 2.4.9.3 1.4-1.5 2.3zm-52.7-6.8h.8l.4 1.3-1.4.1-1.7.5-1.9 1.8-1.5.8-6.2-.8-2.3.5-2.2 1.8-.5-.2.7-2.7 2.8-3.4 3.7 1.1 2.7-.5 1.2-1.1 3.6-1.2.3.8 1.5 1.2zm11.7-.3l-.6.1-.2-.4.4-2 .4-.2 1.7.6.1.3-.1.7-1.7.9zm63.6-2.4l-1.3-.4-.2-.5.3-.5 3.1-.3-1.9 1.7zm11.5-5.3l-1.1.2-.6.5.7 4-.8 2.6-1 1.3-3 2.2-1 1.6-.3 1.6-.5.2-3.3-.5-.4-2.3 1.8-3.1-.2-.5 1-2.9 2.6-2.1 1.2-1.5 1.4-2.4.8-.4 1.3-.1 1 .5.4 1.1zm3.3-1.7l1 2-.5.6-.8-.6-.4-.9-1-.2-1.2.3-.7-.3.4-.7 3.2-.2zm-56.6 1.7l-.5.2-1.5-.9-.2-.6 1.5-1.1 1.4.8-.7 1.6zm108-14.8l-1.7 3.7-.7-.2.4 1.4-.7.2-.8 1.7-.8.5-.6-.4.1-.5.5-.5.8-2.2-.5-.3-.2-1.4 1.4-.7.1-1 .7-.3 1.3-1.3.8.3-.1 1zm-36.8-7.2l-.6.2-1.3-.7-.2-3.4-.4-1.7 1.1-.3 1.8 3.4v1.1l-.4 1.4zm33.9-4.4l.5 2.1-.6.1v.3l1.3.7v.3l-.6.4-.8-.3.4 1.4-.6.1-.6-.5-.2.4 2 1.9-.7 3.2-.7 1.1-2 .8.4 1 .5.3-.1.5-1.1 1-.9-.3-.3.2-.2.6.1.3.5-.2v.5l-.6 1-2 2v.7l-.5.6-2.3 1.2-.5-.1-.4-.9-.3-.3h-.7l-.8-1.3.6-2.1.2-3.1.6-2.2-.6-3.3.7-.1-.4-1.2.2-1.1.4-.4.2.5 1.3-.3.3.8.8-.6.5-1.3-.5-.8 1.4-2-.4-.4-.5.3-.7-.6-.8-.1-.5-.5.1-.3.6-.7 1.4.7 1.3-1 .6-1.6.8-.5v-1.9l.9-1.2.6-.2 1.8 2.3.5 1v1.1l.8 1.1-.1.5-.3.4zm-30.7 3.2l-2 2.3 1.6-5.3.9-1.2 2.2-5.6 1-.1.3.7-1.3 4.4-1.4 1.1-1.2 1.6-.3 1 .2 1.1zm-76.7-38.8l-2.1.4.1-1.7.5-.4 1.2.1.9.9-.6.7zm1.7-1.6l.8.3.4-.6h.3l.3 2-1.7.1-1.2-2 .5-.2.6.4zm-5 1.8l-.6 1.2-1 .8-2.1.6h-.4l2-2.2-.3-.1-3.6 2.2-.8-.1-.4-.5v-.8l.9-1 1.1-.7 2.7-.5.8-.9.7-.3 1.3.7-.3 1.6zm-12.1-4.5l-1.9-.6-.7-.7.8-.6.8.1 1.4 1.5-.4.3zm2.4-1.9h-1.7l-.6-.5 1.2-1.1.8-.1.6.5v1.1l-.3.1zm-13.5-1.9l1.9 1.2.2 1-1-.1-.2.4.2.7.8.7.8-.5 2 .7-.4 4.1-.3.6-1.9.2-4.1 2-3 .9-5.4-2.1-2.4-1.6-3.4-3.2-.5-1.3-.1-2.9.3-.6 1.2-.8.4.1 1 1.1h.6l1.2-1.1 2.3-.6 5.5-.2 1.5.3 2.8 1zm48.5-4.1l3.9 1.5 5.5-.3.7.2 3.7 2.6.7 1.8.3 2.3.5.5 2 .2.6.6.8 2.4-.1.6-.6.9-.1 3.4-3.7-1.4-1-1.1-2.8-1.6-4.6-1.5-2.5-1.3-.6-.7v-.9l-1.2-.8-6.4-.6-.3.3.1.5.9 1.4-.2.6-.5.1-4.7-1-2.4-1.1-2.9.1-.3-.3.8-1v-.7l-.7-.5-.9-.1-1.9 1.2-2.7 2.7-2.5.4-1.1-.7-1.8-2.6-1.5-1-.6-2.4h-.7l-.8.8-.6 1.5-.3 2.2-.5.6-.4.1-.9 1.7-.3 1.4-.2-.2-.2-1 .5-1.1.1-1.2-.9-1.4-.5-1.4 2.2-1.7 3.3-4 11.8.1 2.1-.5.9-.7h.4l.5.6v1.4l1.1.9 1.4-.3 2.3-1.5.5-1 2.6-.4 4.2 1.6.5.8z"/><path id="ID-MU" class="st0" d="M533.9 169.7l-.5.1-1-.9-.6-2.4-.9-1.3-.6-2.5.4-1.1.6-.6.6.1.8.7-.5 2.5 2 4.5-.3.9zm-11-11.5l3.8.3 1.8-.5 3.9-.1 6.2.5-.2.4-1.4.6-13.6 1.1-2.2-1.2v-.8l.6-.7.6-.1.5.5zm-8.3-1.9l1 .3 1.8-.5 3 .7.5 1v1.7l-2.8-.2-1.8.3-1 .9-2.5-.8-4.9 1.8-2.9.2-1.3-2.3v-1.1l.7-2.1.5-.6 2.3-.5h1.8l5.6 1.2zm50.6-4.7l4.5 2.8.3.9-.4.8-1.4.5-6.1-.5-1.1.7-1.7.2-1.9-.9-.9-1 .8-3.3.3-.3.3.2 2.9-1.8 1.6.3 2.8 1.4zm-4.6-2.9l-2.1.2-.7-.6 1.6-1 1.8.7-.6.7zm-5.1-7.9l-.7.2-2-.5-.1-.7.8-2.1h.9l1.1 3.1zm4.3-8.2l1.9 2.5-.3.9-1.1 1.5.8 1.6.5.3 1.9-.6 1.1.5.8 1-.1.5-1.3 1.1-1.1.3-1.4-.6-1.2-1.5-2.1.9-.4-.1-1-3.3-1.7-1.8-.2-1 .5-2 .9-.2.7.6 1.2-.3.9-.7.7.4zm-6.7 3.6l-1.2-.1-.2-.4v-3.5l.7-.5 1.6-.2.4.5.4 1.7-.5 2-1.2.5zM565 96.1l1.2.2 1 .9.7 3.8-.8 3-1.4 2.5-4.4 3.2-.4.6v1l.4.7 2.4 1.5.9-.1 1.3-.9.2-2.3.8-1.3 1.1-.8h1.7l.6-.3.5-1-.2-.5-.8-.3-.2-.8 1-1.6 3.2-2.2 1.2-.5 3.2-.7 1.7.3-.5 7.8-.6.7-3.8 2.2-2.5.7-1.5 1.5v.4l.4.8 1.9 1.4 4.1 1.5 1.5.1.3 2.5-.2.9.7.5 1.9.5.8.6.5 1-1.6-.9-4.7-1.1-1.6-1.3-3 .2-1.1-.3-.9-.8-1.5-.3-2-.2-.6.4-.7 2.7.5.4.3 2.4-.7 1.1v1.3l2.6 6.8 3 5.1 3.3 3.2-2.6-.3-.4-.4.1-.4-1.7-1.3-2-1.1-2.8-5.4-2.4-1.4-1-1.5.6-4.8-.2-2.2-.5-2.5-1.5-1.2-.8-3.3.4-2 .7-.8.5-1.1-.1-.5-1.8-.6-.2-.3.3-1-.5-1.6-1.4.3-.1-.4.1-2.6 2.2-3.9v-1.4l.8-3.8 2.1-3.2 3.8-4 .7-.6h1.8l-.2 1.1-1.6 2.4-1.6 1.2-.1 1.6.2.8zm10.9-4.2l-1.9.1-1.9.5-.5-1.4-.2-3.5 2-3.1 1.5-1.5 2.2-1.1 2.1 2.6.2.8L578 89l-.9 1.6-1.2 1.3z"/><path id="ID-NB" class="st0" d="M416.3 272l.1.3.7-.3.2.5-.3.4-.3-.2-.1.3-.3-.1-.1-1 .1.1zm-44.1-.6l-.2 1.4-.6.5-.4 1.7-2.6 3.9-.1.6 1.5.5-.5.6-2 .3.5-1.5-.9.2-.4.4v1.6h-.4l-.2-.4-1.2-.4-2.2.1-.1-.8h-.3l-1.1.4-.9-.2-.4.5-1.1-1.1-1.5-.1-.4-.4-.2-.6.4-.8.4-.1.1.4 1.1.4.6-.6.9.2.9-.6.1-3.2-.5-.5-.2-.8.5-.6.8-.5.1-.5.3.1 1-.6 1.4-1.5 1.6-.6 1.1.1 3.6 1.1 1.5 1.4zm15-3.7l1.1-.1.5.5-1.3.9-1.5 2.8-1-.6.6-1.2-.4-.4v-1.2l1.3-.8.7.1zm25.6 1.8h-.7l-.5-.4v-.9l.8-.9.8.1.5.9-.3.7-.6.5zm-19.3-2.7h2l1.3.5.4 1.9.8.6.4 1 1.2.6 1.4-.5.3-.6 1.1-.9 3.4.8.6 1.4-.5 2.6.6-.2.2-.4-.1-1.6.5-.9 1.4-1.1 3.2.5-.1 1.1 1 1.4v1l-.5.2-.1.6.4.6v.8l.7.2 1-.4-.4-.6.6-.1.4-.5.3.5-.5 1.1.1 1.1-.6.5-1.6-.3-1.2.2-1.1-1-.9.6-1.6-.4-1 1 .5.2h2.8l.8.5.2.5-.4.3-1.4.2-2.1-.8-4.5 1.5-1.2-.5-.3-.7.1-.6.6-.8.2-1-.6-.9v1.1l-.7.1-.4.6-.6.3-.1.5-.5.1-1.4 1.4-.9.4-.8-.6-1.3.3-.3.6-1.9.9-.6-.2-.2-.5-.8.5-1.1-.2-2.9 1.5-2.4.8-1.3.1-1.6-.5h-1l-1 1-1.7.4-1-.4-.3-.4-.6-.1-.4.2-2.7-1.2-.3-.5.3-1.8.5-.3-.1-.4.8-.1-.8-1.5.3-.2-.4-1 .7-1.4.6-.3-.2-.8.5.3 1.6-.2 3.5-2.6 4.5 1.8.6-.9 2.2-.2 1.1.8h.6l.3 1-.9.6.6.5.9-.1-.3-1.3.4-.1.4 1h.5v.5l-.8.1.3.4-.1.6.6 1.7 1.5-.3 1.6.5 1.5-1.2 1.4-.3 1 .4 1.6-.6-.2-.8-.5-.5-.6-.1-.1.2-2.1-2.1-1.7.2-2.9-1.9-1.7-1.9-.2-.4.3-1 1.1-.8h.7l1.7-.8.4-.1z"/><path id="ID-NT" class="st0" d="M487.5 308.5l.8.1-1.5 1.5 1.1.3.2.8-.5.6h-.9l-1.6.9-.5 1.6-.6.1-.9-.4-.9.8-1.8.1-.6.4.3.3-.3.5-1-.4-.6.1-.1.4-.5-.3v-1.3l-.5-.9.1-.4 2.1-.7.7.1 1.1-.3 1.4-1.4 1-.3.2-.6h.4l-.1-.4.8-.9 1.7-.8.2-.8.6.6.2.7zm-24.8-1l.9.3-.2 1.3-2.2 1.6-2.1-.1-1.1-.7 2.6-1.5.2-.8.4-.2.7-.2.8.3zm26.2-4.8l.5-.1.1.5-.8.3-.5.6-.2-.4h-.4l.4.9v.6l-.4-.1.3.4-.1.4h-.4l-.3-.5-.8.6-.3-1.2 1-.9.7-1.5 1-.4.2.8zm-59.7-13.5l1.3 1.5h1.8l.5 1.1.1 1.2.4.5h.7l.6.5 2.4-.8.5 1 1.7.9 1.5 3.1 2.1 1 .5.7.3 1.1-.2.8-1.2.7-.6.9-.9.6-1 .4-1.5-.1-.9.5-.3.6-1.1-.4-.6-.5h-2.6l-1.1-.5-1.9-1.7-.4-.1-.2-1.1-1-1.2-1.2-.5v-.5l-1.5-.1-1.5-1.3-.5-1-.7.2-.7-.6-2-.5-.9.4-.3.5-1-.5-.4.1-.2-.4h-2.1l-2.5-1.1-2-2.4 1.2-1.6 3.2-1.4.5.4 1.5-.6.8.3 2-.3 1.3.3.8-.5h1l.7.5 1.9.4 2.5-2.2 1.2 1.7zm85.1-7.5l.2.1-.3 1.2.8.6 1.7-.7.6-1 1.3 1-.1 2.5-.7.1-.7.5-.7-.6h-1l-.3.6.2 1.5 1 .7.7 2.3-1.7 1.5-.2 1.6-.5.6-1.6.9-2.1 2.9-3.4 2.1-.6 1.4-1.4 1.1-1 .3-3.9-.2-2.2 2-1 .1-2.7 1.2-1.7.2-.8-.2-.7.4-1.2-.7-1.4.5.6-1.5-.1-.7.6-.2.1-.7 3.6-1.4.5-.9-1.2-.6h-.9l-.6.5-.4-.3v-1.8l1.4-1 .1-1.1-.5-.7.7-.6-.2-1.8 1.2-1.2.8-.3.5-.9 1.3-.6.3-.6.5-.2 1-1.3.9-.1.9 1.2h.5l.3.3 1.5-1 .8.8.2.6-.1.9 1.2-.3.2-.5-.2-.5.5-.7v-.5l1-.4.4-.6-.1-.6.4-1.6h1.3l.9-.3 1.5-1.2.1-.6.8-.1 1-.7 2.1-.7zm-89-2.4h-.4l.2-.5.2.1v.4zm-2.3-.2l-.5-.2.4-.2.1.4zm-1-2.7l-.7.1-.1.3-.3-.1 1.1-.7v.4zm.7-.8h.3l.2 1.3.6-.2-.3-.6.4.1.2-.5 1.2.1-.1.6-.4.1-.3.5-.4-.2-.2.4-.1.4.6.5-.6 1h-.3l-.3-.6-.7.3-.2-.7.3-.9h.6l-.1-.5-.4.1.2-.5-.4-.8h.2zm47.3-3.1l.8.3-.6.9-.9-.6v-.5l.7-.1zm-50.3.4l.2.6 1.1.2.4-.2.1.9-.4-.3-.1.2.4 1-.9.1v-.4l-.4-.1-.4.6h-.4l.2.4.5-.1-.3.6-.4-.1-.3.5.4.5-.1.4.4.2-.5.2-.6-.5-.5.2.6-1.4-.7-.4.2-.5-.2-.2 1-1-.3-.4.4-.3-.3-.8.5.1.1-.4.3.4zm63.8-.4l.1.3-.3.3-1.3.5-.8-.2-.7.6-.8 1.5-.9.2-.3-.5.2-1 1.1-.6.5-.9.8.2 2.4-.4zm-24.9-2.3l.4.5-.1.3h-1.2l.3-.8h.6zm25.8-1l.6-.2 1.6.7-.5.5.1 1-.3.6-2-.1-3 .4v-.7l.6-1.1 1.9-1.3.7.1.4-.3-.1.4zm18.2 1.9l-.8 1-.1 1.1-1.3 1.2h-1.3l.2-.8-.5-1.3h-.8l-.7.7-.6-.2.8-1.7 1.6-.9.5.3v.7h.6l.8-1.1.7-.4.7-1.2.4-.4h.6l.3.6-.4.8.1 1-.8.6zm-7.3-2.4l1 .1.4.6-1.5.5-.6-.2-.7.3-1.5 2.4-.9-.4-1 .8-.1.4.5 1-.5.6h-.6l-.5-.8-1.6 1.2-1.5-1-.4.4-.9-.1-.2.2-.4-.3v-.4h.4l1.3-1.1.4-.9 2.4-1-.7-.8-1.4.1.6-.7.5-.2.9.3.5-.5h1.2l-1 2 .9.3.7-.6-.3-.9h.5v.5l.6-.5-.5-1.1.7-.1.2.5.7.1v-.6l1.5-.9.9.8zm11.7-1.6l1.4.1-.2 1 .2.2.8-.5 1.7-.3 2.8.3.8-.4 2.4.1.7 1.4v1.6l-1.3.6-3 .1-1.6.6-2.4-.1-2 .9-.8-.4-1.2.7-.2-.4-.9.1-.4-.7 1.1-1.8 2.4-1.2h-.8l-1.6.8-.1-.9 1-1.3.4-.4.8-.1zm-27.5-.2l.8.5-.2 1 1 2-.7.7-1.2-.3-.6.9.1 1.2-1.8-.3.1.9.9.9-.2 1-1.7.3v.3l-1-.2-1.8.7-.6.7-2 .6-1.3-.1-1.1.3-1.4-.1-.4-.3h-1l-1.5 1.1-1.9.7h-1l-1.4.8-1.9-.6-.3.9-.2.1-.3-.1.3-1-1.1-.6-.7.1-2.5-.3-.4.6.1.9-.4.4-.6.2-.7-.4h-1.6l-2.9 1.2-1.5-.5-.9-.8-.5-.9-.8.2-.3.8-.5.1-1.8-.5-.9-.9h-3.6l-1.2.6h-.6l-1.1-.3-1.1-.9-2.2.6h-1.3l-.6.8-.4-.1v-.8l-.8-.1-.7-.8.1-3.2 1.3-1.2.1-.5-.4-.8h.4v.6l.4.2 1.1-.7.5.5.2-.4-.2-.4.4-.6.8-.1.6.6-.2.4h.4l.2-1.4.6.3.7-1.2 1.5-.4 1.5.2.7-.2.3-.6.9 1 .9-.3 1.2.3v-.7l.8.4.7.9h.5l.4.4h4.2l.1.5h.5l.2.8.7-.1 3.6 1.1.5.2.8 1.2 1.2.6.9-.5.8 1 .5-.6.6-.2-.3-.6.8.4-.2-.4.3-1 1.1.7.9-.3 1.2.3.8-.5 1.2.3.8-.9-.1.5 1-.6.2.1-.2 1.5.9-.1.3.4.3-.2 1 .5 1.2 1.2 1.1.3 1.1-.5 1.9-.1.8-1v-.4l-.6-.5.2-.3 1.1-.3.6-.5.1-.5h1.1l1.2-.5.5.1.8-1.1 1.5-.4.4-1.1.4-.3-.6-.3-1.6.3-.4.7-1-.2.9-1.3v-.8l.8-.2.6-.5.8-.2z"/><path id="ID-PA" class="st0" d="M755.6 272.2l-5.3-.6-.6-.8 2.8-2.6 1.9-.4 1.5 3.6-.3.8zm-4.9-2.7l-2.6 2.1-2.7.8-1.5-.6-6-.4-2.8.7-.5.4-.5.1-.2-.4 1.7-4.7 3.1-5.9 2.5-3.5 3-2.1 2.4-1 4.8-.9 2.1.1 1.2.6 1.7 2.4 1.3.2.6 1-1 2.7-1.2 1.9-.5 2.7-1.7 1.8-2 .4-1.2 1.6zm.4-26.5l.6.5 1.3.2.8 1.2-1 .6-.8-.3-1.2-1.5-.1-.5.4-.2zm-40.4-86.9l2.9.6 6 .4 1.7.8-.4.5-3.2.6-2.5.8-5.6-.5-4-1-1.9-1.1-2.5-.8-4.2-.5-1.1-1.3.9-.3 1.2.4 11.1.8 1.6.6zm44.5 4.7h1.2l2 .7 12.7 6.2 1.8.3 2.5-.3 1.3-.6 1 .1.9 1.4 1.9.9.9-.2.1-.3h1.7l2.7.4 1.6.6.5.7-1 1.3.5.4 1.7-.5 3.2.1v64.1l-.7.1-.7 2 .3.9-1.5 2.3-.1.8.2 1.9.5 1.2.8.8 1-.2v38.8l-2.9-1.4-1.5-1.9-2.6-2.4-1.8-3-7.8-6.3-1.2-1.3v-1l1.4-1.1 1.5-3.2-1.6.7-.2 2.2-2.2 1-5.1.2-1.6.9-2.8.5-.7-.1-.9-.5-1-1.4-2.3.9-1.9 1.4-.6 1.3-.5.1-1.3-2.9 1.2-1.6.1-2.2 1.4-.8.2-1.9.9-2.2.7-.7v-.5l-2.8-1.7-1.2-2.2-3.3-1.9-.2-.4h4.7l2 .9 2.2-.2.8-1.3-1 .7-2.1.2-3.4-1-1.7-.8-2.9-2.6-.3-.9.6-.5 2.5.3 1.1-.7 1.8-.2 1.3.4 2.1 1.8 1.4-.1-1.7-.6-1.8-1.4-1.8-.4-3.5-1.8-.3-1.1.7-.2-3.9-3.9-1.3-2.2-.8-3.4-1.2-2.2v-2l-1.5-.4-.8-.7.4-.6 2.8-1.4-.6-.2-1.6.2-1 .6-1.6.2-.3-1.8.2-3.8-.5.9-1.5-.6-4.9-3.5-1.5-.6.3-.6h-1.3l-1.7-.8-2.4-2.1-1 .4-3.6-1-3.1-.4-8-4.3h-1.8l-3.9-1.6-1.1-1.3-.8-.3-3.5.1-5.2-1.1-3.3.5-6.3-3.1 1.6-2.4 1.1-.8 1.7-3 2.3-2.8-8.5-3.1-6.5-1.9-3.3-1.4 1.1-2.5 1-1.2 1.6-1 .2-1.9 1.5-.8 2.5-2.3.6 2.5.5.4 1.4-.6.4-.9h.5l-.1 1.9-.5.4-.2 1.4 1.1 2.1 2 1.5 2.1.6 3.7.4 2.2-.4 1.6-1.1.2-1 .6-.8 1.9-.7.9-.7-.5-.6.4-.5 2.5-1.1.5-.8.3-2.7 1.2-1.5 2.7-1.1 1.2-1 1.5-3.6-.1-1.4.4-.5.9-.6 1.3-.1.9.1.2.4 1 .2h2.6l4.1-2 1.3-.4 2.1-.1.8-.8-.6-1.8-.6-.3-.9-1 .2-1.2 3.9-1.6 4.5-2.6 4.2-1.5 1.5.3 2.2 2 6.1 2.2 4.2 1 1.5 1 .8 1 1.7.7zM687 146.7h-1l-1.1-1.7.2-1 .5-.7.8-.1.7.4 1.1 1.1-.1 1-.5.7-.6.3zm9.6-8l3.3.3 1.6 1.1 1-.8.5-.1 3.7 2.9 2.2 3.2 1.2-.2 2.1 1.1-2.1 1.4-1.8.4h-1l-1.3-.8-2.3.2-.9-.9-.8-3.2v-.9l-.6-1.2-.5-.1-1.8.9-1.8-1.5-.7-.1.1.5-.4-.2-1-.9-.6-1.3.3-.5 1.6.7z"/><path id="ID-PB" class="st0" d="M663.6 200.2l.8.9-5-2.2-.2-1.1 4.4 2.4zm-58.4-37.6H604l-3.6-1.1-3-1.6-.3-.4.6-.5 5-2 5.4-1.1 1.4 2.5.1 2.6-.9.6-3.5 1zm-4.5-14.7l-1.7.6-1.6-.5.4-.7 1.8-.5 1.5.5-.4.6zm16.7-5.5l.6.8 1.8-.4.7 1v1.9l-.6 2.7-.7 1.6-.6.4-1.5-.3-2-1.7-1.1-2.1.3-.5-.3-.7-1-1.1.4-.4 4-1.2zm.3-1.7l-.5.8-1.6.7-2.2.5-3.3.1-1.4.3 1.5-1.5 4.2-.1 1.3-.3.6-.7h.8l.6.2zm-5.4-4.3l-2.4-.3-.2-1 2.7-1 .8.3.6.7-.5.8-1 .5zm51.4 3.7l3 .1.1-.6 3.9.1 2.2 1.8-1.4 2.3 1.7 3.2 1.3 1.2 1.3 2.4-.8.9-.2 2.5-2.3 2.1.6 3.5.4.9-.2 2 .5 4.6 1.1 1.9.5.2 1.2 1.1 2.5 6.1h.5l.5-.5-.9-3.6.2-1.8.9-1 1.8.9.3.9.1 4.3-2.5 2.3-1.5.8-.2 1.9-1.6 1-1 1.2-1.1 2.5 3.3 1.4 6.5 1.9 8.5 3.1-2.3 2.8-1.7 3-1.1.8-1.6 2.4-1.2-.5-2.7-2.2.7-3 .4-.2 2.5.3 1 .4.9-.7-5.1-.4-1 .7-.3.9-1.3.3-1.5-1.9-1.2-.3-.5 1.6-.6.3-2.1-1.3-.3-.7.5-1.1-.9-1.2-.2-.1-1.7.9-1.8-.9-1.6-2.8-.6.4.1 1-.4.1-1.2-.8-1.2-2.7 1.1-1-.2-2.4.4-1.4 2.5-1.9v-1.3l-.6-.8-2.9 3-.3 4.7-1.7.9.8 1.3-.1.6-3.2 2.8.1 1.2.6.5.2.6-3.7 3.6-3.3-.2-1 1-1.4-.3-1.7-2.8.2-.2-.2-.6-1.2-3 .6-1.5 1.8-.7.7-.7-.8-1.4-.6.1-.5-.4-.4-1.4.3-1.1-.9-.6-.6.2-.2 1-1-.3-1.2-1.6-.1-.9-.6-1.2-1.6-1.2-3.3-1.8h-1.4l-1.9.5-2.1-3.1 3.1-1.6 3.1-.2 4.4.6 2.6 1.7 2.1-1.5 3-4 1.5-.9 2.4-.5 1.1.5 1.3 1.3 2.1.8 1.7-.5.8.1.5.7v2.3l.2-.3.2-3.1.6.1 1.3 2.3.1-2-.3-.8-.4-.2 1-1 1.3-.6.7-1-.2-2-.4 1.1-1.5.5-.9-.8 2.7-1.5-.2-1.1-1 .2-4 2.1h-3.6l-2.4-.6-1.7.2-4.1 1.3-1.1-.1-1.4-.6-2.2 1-.9-.4-.4-1-.7-.6-2 .5-1.1.7-1.6.1-2.5-2-2-1.1-1.9-3.6-.1-1.1.8-.8-.2-.9-1.3-1.1-2.8-1-.3-.6-2-.9-5.5-1.8 1 .9v.4l-.8.6-1.4.5-.5-.9-.7-.8-1.1.1-1.5-.9 1.7-2.7 2.1-.4 1.2-2.1.6-3.1-.5-1.6 4.5-1.5 1.1.5 5.1-1.2.8-1.2 3.2-2.7 2.8-1.4 2.8-.7 4.8.4 7 2.9 1 .1 3.5 3 3.6.6zM617 127.4l2.8.8 1.7.2 2.8 1.6.4 1.8-1.2 2-1.5-.8-1.1-.1-2.2.5-1.8-1.9-1.5-.6-1.8-2.4-1.3.1.2.8 1.8 1.9 3.3 1.3.4.7-.5.8-1.2.6-1.5.2-.9-.6-.5-2-1.6.4-.8.7-.5-1.9-1.5.4-1.2-.1-2.4-1 .3-.2 2.5.4.8-.4-.5-.8h-1.1l.1.6-.8-.2-.3-.6.1-.6 7.2-1.2.4.3.8-.1-.3-.3.6-.3h1.8zm-22.9 3.4l-.3.1-4.3-4.6.8.3 3.5 2.8.4.7-.1.7z"/><path id="ID-RI" class="st0" d="M138 118.4l-.6-.2-.3-.8.5-1.7 1-.7 1.2 1.2.1 1.4-.4.4-1.5.4zm-9.7-8.4l2.4-.3 2.8 1.7 2 1.7.2.8-.2 1.1-.6.3-1.2-1.2-1.1-.5-3.5-.1-2.2.4-1.1-.6-1.3-1.2.5-.8 1.1-.3v-.7l-.5-1.1.3-1.4 1.2.2 1 1.3-.2.5.4.2zm7.1-.7l2.2 2.5.1.5-.4.4-1.1.1-2.4-1.7-3.2-1.6-1.2.1-.6-.5.9-1.7 1.2-.2 3 1.2 1.5.9zm-11 1.9h-.4l-1.5-1.4-.8-1.2-.7-3.5.2-2.1h1.3l3.2 3.1-.5 2 .3 2.5-1.1.6zm1.6-9l.2 2.9-.2.3-3.2-2.8-3.6-.8-1-.9-.9-1.5 1.1-.3 1.8.8 4.7.9.8.4.3 1zm-15.4-4.5l-1.9-.3-.8-.7-.9-2.5.1-1.3.2-.7.6-.5 3.5-1 1 .5 1.3 1.7.1.9-.8 1-.2 1.8-1.3 1-.9.1zm-16.9-7.1l.8-.1 1.7.7.5-.4-1.1-.7-.3-.6.1-1.2.9-.6 2.4-.3 2.5.3-.1.5.3.8 3.4 2.3.7.8.3 2.2 1.4 3.2 2.3 1.1 2.5-.4 1.2.3 4.5 3.8 2 1.1 1.1 3.1-.2 1.7.4 1.4 3.7 3.7 2.1 1.1h5.5l1.2.6 2.6 3.1v1.2l-8.8 4.6-1.4-1.2h-1l1.9 1.3.8.2 1.2-1.1 4.2-.8 4.5-2.5 1-1.3 2.3-.8 1.7.6 5 3.8 1.2 4.9-3.6.4-.4 1.3-2.7 1.8.5.2.7-.6 1.3-.1-.3.6 1.6.2 1.7.7.9 1.3-1.5.1-1.7.7-.4 1.1-2.6 1.8-.4 2.1 1.1 1.4-1.2.1-.8.5-.4-.3-3.5-.3-2 .1-1.7 2.3-2.1 1.5-1.1 1.7-.7.1-.8.7-.6-.4-2.2-.2-.5-.8-1.2-.1v-.6l-1-.5-.3-.8-1.8.6-.6-.8-.8.3-2.2-.7-.6.6-.2-.2-.6.3-.2.6-.8.2v.3l-.6-.1-.2-.1h-.9l-1.8-.7v-.3l-1-1.1-1.6-.7-1.7-1.2-.1-.6-.9-.4.1-.4-1.7-.6-1.1-.8-.1-.4-2-1-.7-1.5.2-1.1-.8-.6-1.2.2-.2.7-1-.5-.3-.9-.9-.8-.7-3 .5-.7.5.4.6-1 .1-.8-.4-.9.3-1.3-.4-1-.5-.3-.7.2-1.3 1.3h-1.1l-2.8-.8-.8-1.7-.4-.3-.4-.2-1.2.5-.2-1.6-1.3-2.6.1-.9.8-1.3-.5-.7-1.1-.4-.9-1 .3-.2v-1.1h-.4l-.4-.7h.8l.4-.9-.3-1-.4-.2v-.4l1.2-.4-.9-1.2-.2-1.6-1-1.5.4-.3 3-.2v-.3h1.1l.3-.6h.8l.8-.7v-1.1l.5-1.2-.1-1-.6-.5.3-.7-.2-.8-1.9-.3-.3-.3 1.2-6.3-.9-2.5-.2-1.3.4-1.9 1.4 3.7 1.3 1.4 2.6 1.5z"/><path id="ID-SA" class="st0" d="M517.8 102.7l-.9 1.2-.8 2.5-2.5 3.9-1.3.6-2.7 2.3-1.9 3.7-1.9 2.3-2.1 1.1-1.3.3-5.2.7-3 .7-2.2.3-1-.3h-2.2l1.1-2.4.1-2.1-.3-.8-.5-.6-2-.3-1.2-.9-.6-.5-.2-1.3-.7-.7-1.4-.6-.2-.8 2.3-.1 5.3 1.5.9-.3 3.8.9 1.6-.1 6.6-3.1 1.2-2.7 1-.4h2.9l.4-.6v-.6l-1.2-.3-.3-.4.4-1.1 1.1-.8 1.7.3 2-1.1.2-.5-.5-1.3 2.6-2.1 1.1-.1 1.7.5.7.6-.1 1 1.4 1.2-.3.8-1.6.5zm4.7-20.8l-.7-.1-.4-1.5.5-1.2.5-.2.7.6-.8 1.2.4 1-.2.2zm3.1-17l-.2.6 1 1.3.6.2.1 1.3-.6 1-.4-.1-.1.6-.5-1h-.5l-.7-.7-.3.1-.3-1.2.5-1-.5-.5.3-.1-1.6-.8-.1-1.3.7-.3 1 .2 1.6 1.7zm19.4-3.1l-.5-.2-1.3-2.8-.1-1 .7.3 1.4 1.9-.2 1.8zm.8-3.3l-1.1-.2-.2-1.3.7-.6 1-1.8-.2-.6-1.2-.4-.3-1 .5-3 .3-.6 1.3.2.8.7 1 3.6-.8 1.2-1.3 3.2-.5.6z"/><path id="ID-SB" class="st0" d="M90.9 179.9l.2 1.3-1.5.4 1.4 2.7-.4.5-.6-.8-.6-.3.2-.2-.2-.3-.8-.3v-1.8l-.6-.8-.6.1-1.3-2 .3-.8-.4-2.2 1-.4 1.4 1.7.9.5 1.7 1.9-.1.8zm-5.5-4.4v.4l-1.1.2-.5-.5-.4.6-.4-.4.1-.3-.4-.4.3-1.9-.3-1.4-.5-.3.4-1.5.5.1.7 1 2 1.4.8 1.5-.2.8-1 .7zm-7.5-11.4l1.2 2.3.6.3.4.7.3.7-.2.4-.4-.7-.6.2-.2-.5h-.8l-1-.8-1.4-.1-1.3-2.2.3-.4.5.1-.3-.4v-1.3l.5-.4h.6l1.3 1.1.5 1zm-13.5-20.6l.3 1-.5-.3.4 1.3 1 .8.1.8 1.1 1.9-.1.3.6.7v.6l1.2 1.3.1.7-.6-.2.4.5.7.3.4 1.7.7-.2.5.7.1 1.5-.3.5-.7-1.1.5 1.6-.4.4-1.1-.3-1.1.5-4.1-2.2-.8-1.1.2-.3-.6-1.2-3.5-5.1-.1-.4 1.2-2.6v-1.1l.6-.7h2l1.5-.8.3.5zm16.5-31.9l.4.3.7-.1.3.7 1.6.8 2.1.7-.2-.2 1.1.4.5.7-.8 1.3-.1.9 1.3 2.6.2 1.6 1-.3.4.2.4.3.8 1.7 2.8.8h1.1l1.3-1.3.7-.2.5.3.4 1-.3 1.3.4.9-.1.8-.6 1-.5-.4-.5.7.7 3 .9.8.3.9 1 .5.2-.7 1.2-.2.8.6-.2 1.1.7 1.5 2 1 .1.4 1.1.8 1.7.6-.1.4.9.4.1.6 1.7 1.2 1.6.7 1 1.1v.3l1.8.7h.9l.2.1.1 1.9.5.4.5-.2-1.1 1.9-1.6.4-.6.6.4 1.6-.4.7.4.6-.6 1.1-2 1.2-1.2 1.8-1 .3-.4-.4-1.2.1-1.6.2-.6.4-.7-.7-.3.4-.7-.3.2 3.6.8 1.4 1.1.7.4.7.7 3.3-.2.5-.8 1-3.9 2.6-2.3-2.8-.4-1.6-.8-1.2v-.5l1-1.3v-1.2l-.4-1.7-3.4-4.6-.9-2.4-.8-.8.4-1.2-.4-1-1.2-.4-.8-.8-.4.3-.4-.1.1-.6.4.1-1.2-1.6v-.3h.3l-.3-.7.3-.7-1.1-3.5-3.3-3.4-1.4-2.3-2.3-1.9-.5-.9-1.1-.7-.4-1.4-.9-1.3.3-1.3-.6-.9-2.8-2-3-1.1-.8-1.3-.8-.1-1.1.4-1.2-.4.9-1.4 1.5-.4 1.5-2.4 1.7-.9 1.1.4 1.5-.5.6 1.1.6.5.8-.4 1.5.3 1.2-.4.7-.8v-.7l-.7-.5-.1-1.2-1.3-.2-.3-.8.3-.6-.1-2.1 1.1.1z"/><path id="ID-SG" class="st0" d="M446.9 174.6l1.6.4 1.4.9.7-.6 1.1-.1.6 1.4-.3.9 1.3.9 1.2.2 1.5-1.4 1.5-.6 4.6 1.6.6-.3 2.2.3.5.7 1.1.2v1.2l.9.8.6-.1.4 1 .7.1v.6l-.9 1.2.2.8 2.2 1 .7 1.2-.2.4-.4.1-2.4-2.2h-.8l.7 1.3-.4 1.3-1.2.5v.4l.8 1.3 3.9 2.4.6 1.4.5.3h2.2l.1.4-.5.4-.2 1 .7.3.1.4-.3.4.6 1.3 2.6-.1-.1-.4-.8-.6-.2-.4.2-.1h.6l.7.5.9 2.6-.1 2.8-1.2 1-2.5-2-.3.1v.6l1.5 1.6.1.4-.6.5-.3-.4-.6.3-.7-1.3-.8-.5-2.1 1-.8-.1-2.7.8-.8-.1-1.3.7-.9.2-1 2.6.3 1.1.9 1.1-1.2 1.3h-1.7l-1.5-.7-2.1-.2-1 .2-.7-.7-1.6-.6-1.5-2 .2-1.8.8-2.3-.1-1.4.4-1.2.5-.2.7-1.4-.3-2-1.3-.5-2.4-.4-1.6-2-.5-.2-.2-.9h-1.1l-1-1.4-4.2-3.7-.2-.7.3-1.7 1.6-2.2.7-.4.6-1.5v-2.3l.5-1v-1.6h-.5l-.2-.8-.1.4-.6-.1.3.3v.2h-.3l-.4-1.1.5.2 1-1.2z"/><path id="ID-SN" class="st0" d="M445 252.6l1.1-.1 1.2.4-.3.5-.8.1-3.2-.5-.4-.5.4-.3 2 .4zm-4.3-4.1l1.1.6.5-.3-.1 1.3-1.7.2-.6-.4-.2-.6.1-1.2.9.4zm-3.1-10.7l-.4.9-.3-1.8.2-1.3-.5-2.5-.1-4.3.4-2.1.4-.4 1.3 4.5-1 7zm-11.1-76.1l.4.5 1.9-1.4h1.8l.1.6.8.4h1.8l1.3.6.8-2.9.3-.1 2.9 4 1.1 1.1 1.3.7.8.3h.8l.1-.3.5-.1 1 .1 5.7 2.3 1.7.3 1 .6 1.5.1 1.3 1 1.5.3.7 1 .5-.1.6.5 1.3 2.6-.9.4-1.4 2.5-1.5.6-1.5 1.4-1.2-.1-1.3-.9.3-.9-.6-1.4-1.1.1-.7.6-1.4-.9-1.6-.4.4-.5-.8-1.1-4.4-1-3.5 1.7-6.4 4.3 1.1 3 1.9 1.2.5.9-.2 4.3.6 1.3.3 2.2-1.6 3.4-.2 3.4.8 1.1-.5 3.7.7 1.8.5 3.2-.5 1.8-1.4 1.2v2.4l-.7 2.8 2 3.5 1.2 4.8-.8-.3-1.4-1.8-4 1.4-2.9-.6-1.3 1.1-.2.8-.9.6-1.9-.1-.8-1.4-2.8-1-1.9-2.8.4-3.8 1.6-2.4.9-2.2.1-.8-.6-2.4 1.8-2.9.5-4.1v-2.4l-.5-3.7-2.6-4.7 1.2-2.3-.5-1.4-.9-4-.7-.7v-.4l.4-.3h.4l.2.3.9-.2.5-.8.7-.2h1v-.4l-1.1-1.8.3-.7-.4-.9.2-1.9.3-.8.8.3 1.5-.4.7-.8.2-.7 1.2-.9.2-.6-.3-1.1-1.6-.7-.6-1.7-1.5-.7v-1.3l1.8-1.3.6-.8.7-.1-.1-1.2.8-.5z"/><path id="ID-SR" class="st0" d="M421.3 141.5l-.1 2.4.4 2.3.1.2.4-.1v.5l-.7 2.1-1.6.2-.2.4.6-.2.1.2-1.2.4v.3l1.5 1.3 1.6-.5 1.3 1-.6.8.3.9 1 1-.1.6.4.1.4.8-.4.9.4.3h1.5l.2 3.1-.4.2.2.9-1 .5.1 1.2-.7.1-.6.8-1.8 1.3v1.3l1.5.7.6 1.7 1.6.7.3 1.1-.2.6-1.2.9-.2.7-.7.8-1.5.4-.8-.3-.3.8-.2 1.9.4.9-.3.7 1.1 1.8-.1.4h-1l-.7.2-.5.8-.9.2-.2-.3h-.4l-.4.3v.4l.7.7.9 4-3.4-1.1-1.3 1.1-2.9.2-2.2 1.2-1.5-4v-4.6l.9-3.1-.4-.7-.9-.2-.7.3-.2-1.5.7-2.4.4-.2.7.6h.7l1.7-1.1 2.4-2.4-.3-2.9 1.4-4.6.9-.9.7-.2.6.3.6-2.3-.8-.8-.5-1.7.5-1.6-.6-3.5.7-.7-.4-1.6.7-1.5 1.8-1.5 1-3.4 1.1-.6z"/><path id="ID-SS" class="st0" d="M148.2 209.6l-.3-.9-1.4-.2.4-.5-.5-1.3-.6-.5h-.8l.7-.6-1.1-1 .8-1.1-.3-1.2-.6-.2-1 .4-.9-.9-1.7-.1-1.2-1-1.9-.3v-1.6l-1-2-.7-.3-2.2.1-.9-.8-.6.3-.8-.2-2.4-2-.6-.8-.7-.2 2-1 .1-1.1 1.1-1.1.1-1.4.7.3.9 1.2.9-.7.7-1 .3-2.1-.2-.5-.8-.1-.8.3-.1-.9-.6.2-.8-.1-.6-.9-2.5 1.2-.9-.4-1.7-1.5.2-.5-.2-.1.1-1.2-.3-.7-.6-.6-1-.2-1.1.4-1.1-.6-.7-1.8-1.5-1-.1-.7-.8-.5-.2-.6.5.2.4-.7 1.6-.5.4-.4.1-.7.6-.2.9.5.5-.2 1.1.8.7.2.8.2 1-.5.5.2.8-1.2 1.7-1.1.6.1.4-.4 1.5-2.1-.6-1 .6-.8 2.6.6.3-.5 1.4.6 1.5-.6-.2-.7-.7-.7 1.2-1.7.8.4.1.8.8 1 2.1 1.5v-2.9l1.8-.8-.6-.5.3-3.6 1.1-1 2.2-.8 1.7-.1.3-.5.7-.4 1.5.6 1.2-.2 1.1.3 2.3-.8 2-.2.3-.4-.1-.8.5-.4.5-.1 1.3.5.6 1 .2.9-1 1.6.2 1.1.7-1.3.4.1 3.3 2.4 1.4.1.9 1.1.3 2-1.1 1.1-.3-.1-.6.5-1.1 1.8.9.2 1.3-1.6 1.1-.2.4.8 1.1.1 2 .8 1.5-.8 2.4.8 4.7.3.3.6-.5 1.7.3 1.4.9 1 1.8.3.2.6-.2 2 .6 1.3.7.6 2.1-.1 1.2.7v2.2l.8 2-2 1.3-1.1 1.2-1.5 3.6-.1 1.1.2.9 1.8 1.2.4 1-.2.8-1.5 2.7-.2 1.6-.3.4-.8-.8-.6.5-.8-.1-.4-.9h-.6l.2-.6-.9.1.4-.8-.8-.9h.4l-.1-.3-.7-.1v-.4l-.3-.3h-.5l.1-.8-1.6-.2-.1-.7-.3-.1-.9.3-.5-1.2-.9 1.3.3.6-.2.5-.7.6-.7-.2-.5.3-.1.5-.4-.1-.3 1.1-.4.4.3.3-.7.4-.3 1-1 .9-1.2.2-1.1.6.2.1-1.5.2-2.2-.1-.6-.6-2.5 1.5h-.6l-1.3 1.1-.6 1.3.3 2.7-.7.6-.3.8.5.3.1.8.8 1-.8 1.3-1.9-.3-1.5 1-1.2-.6-1.6.4-.5-.4-.5 1.2-1.1-.7.4-.6v-.5l-.4-.5h-.4l-.1-.5-.6.2z"/><path id="ID-ST" class="st0" d="M491.7 219.6l-1.2-.1-.6-1.2-.1-.8 1.3.1.5.4.1 1.6zm-27.9 1.7l-1 .1-2.7-3.6.9-3.1.9-.6 1.2.4 1.4 2.6-.1 3.3-.2.6-.4.3zm12.1-14.4l.8 4.4-.1 1-2.2 1.9-.8 1.7 1 1.9-.2 1.3-.7 1.2-.9.3-1.6-.6-2.9-.4-.2-.9.8-3 .3-.6 1-.9-.1-1.5-1-2.3.7-1.6 2.5-.6 1.4-1.1 1.6-.8.6.6zm8.5 1l-.1 3-.6-.7.1-1-.7-1.1-.4.2.2 2.1-.4.2-.8-.5.4-1.3-.6.1-1 3.3-.2 2.8.7.6.4-.1 2.9 2.3v.4l-1.2 1.6-1.6.7-.9-.5-2.1 1.2-.2.7.7.1.2.3-1.5 2.6-.4.3-2.6-.1-1.5-3.1 2.9-4.4.8-2.1 1.2-5.5-.2-2.8 1.2-3.1 2-1.4h.8l-.3.5.2.8 1 .6 1 1.4.6 1.9zm-2.3-11.6l1.8-.3 1.1 1.4-.1.7-1.8 2.2-1.4-.1-2-2.6v-.7l.9-1 .7-.1.8.5zm2.2-49l.5 1-.7 1.1.9 1.6.4-.1.4-1 1.3-1.5.8-.4 2.5 1.2-.4 2.8-1.3 1.2h-.5l-1.2-.6-.9-1.2-.8.7-.5 2.6-.8.3-1-.3-.4-.6 1.4-1.2-.7-3.6-1.6 1.6-.3 1.1-.8 1.2-1.2 1.1-1 .1-.7-1.6-.7-.6v-.9l.5-1.8 1.3-1.7.3-.4h.4l.7.4 2.3-.9.6.7.4-.9.8.6zm-34-41.4l2.5-.2 1.2-.8.3.2v.4l-.2.3-.8.2 1 1.7 1.5 1.2.7.2 5.7-.8 1.1 1.4 1.2-.8 2.3.8-2.5.8-.5.6h-.4l-.4.9-.9-.7-.5-.8-.9.1-.8.6-3.2 1.2h-1.5l-.5.4-1.3-.1-.9-.5-.4.4v1l-.5.1-1-.4-1.1.4-.4.3-.1 1.1-.3.2 1.3 1.5 1.8.4.2 1.5-.3.5-1.4-.4-1.7.4-.6.8-2-.2-1.5.3-3.8-1.8-3.4-.2-2.8 1.2-1.7 1.7-2.1 3.1.4.3-.5.8-.2 2.1-.6.6-.5-.1.1 1.3-.5 1v1.4l1 2.9-.4 3.1.3.7 3.8 4.9.8.2 1.1-.6.8 1 1.1.1 1.4 2.3-.4 2.1.8.7 1 2.2.5.1.8-.4.2-.6.5-.2h.7v.7l.7.5 1.2-.2 2.4.3 1.4-1.5 1.1-2.2 2.2-2.8 1.5-1.3.7-1.2 1.8-.6.2-.9.5-.1.7.3-.3 1.5.2.4 1.4.6 2.2.2.9.4 1.3-.9.8-.1 1.2.3.5-.5.4-2 1.5-.6 1 .4 2.7-1 3.7.5 4.3-.3.7-.4-.1-.3-1.4-.5-2-.2-.4-.6 1.5-.6 3.3-.2 1.1-.8 2.7.1 1.5.6 1.7.9.8 1.9-.1 1.2-.8.9-.3 1.9-.8.9-1.5-.4-1.3-1.5-.3-.9-1.5-.3-4.3.6-1 2.2-1.3 1.4-1 1.7-1.2.9-3.2 3.6-3.7 2.1-2.6.3-1 .7-2 .4-.7.5-1 2.4-1.3 1.1-2.2.1-1.6-1.9-2-.8-.5.3-.2 1 .9 2.5.4-.3 1.1-.1 2.4 3.2.9.3.9-.2.8.2 2.1 2.2 2.3 3.9.8 2.5 5.1 3.8v.7l-.7 1.5 1.9 1.7.8-.1.9.7-1.1 1.3-1-.3-.3.3v-.6l-.7-.1-.4-1-.5.1-.9-.8v-1.2l-1.1-.2-.5-.7-2.2-.3-.6.3-4.6-1.6 1.4-2.5.9-.4-1.3-2.6-.6-.5-.5.1-.7-1-1.5-.3-1.3-1-1.5-.1-1-.6-1.7-.3-5.7-2.3-1-.1-.5.1-.1.3h-.8l-.8-.3-1.3-.7-1.1-1.1-2.9-4-.3.1-.8 2.9-1.3-.6h-1.8l-.8-.4-.1-.6h-1.8l-1.9 1.4-.4-.5-.2-.9.4-.2-.2-3.1h-1.5l-.4-.3.4-.9-.4-.8-.4-.1.1-.6-1-1-.3-.9.6-.8-1.3-1-1.6.5-1.5-1.4v.6l1.2-.4-.1-.2-.5.2.2-.4 1.5-.2.7-2.1v-.5l-.4.1-.1-.2-.4-2.3.1-2.4 1.9-1.6.1-1 .9-.6 1.7 3.8.5-.5-.2-2.3-.8-1.1-.8-2.8.1-2.6.9-2.4-.3-1.2-1.4.4-.3-.1-.7-.5-1-1.8 1.1.2-.1-.6.9.4.5.4v.4l.7.9.7.2.7-.8.4-1v-1.6l-1.8-2.4.4-.3 1.7.3-.2-1.2-.6-.9 1-2.1 2.1-.9.1-.8-.4-1.7.2-.9.7-.6h.8l1.8-1 .5-2.7.6-.4.9.2v2l1.4.9 2.7.5.6-1.9.6-1 .7-.7 1.1-.4.8-.9.5-2.3-.2-1.4.2-.8 2.1-.3 2.5.3 2.5 1.5z"/><path id="ID-SU" class="st0" d="M55.6 131.3h.4l.7.8.5 1.4-.3.4.2 1.5-.5.4.3 1-.6.2.1-.8-.8.2-.1 1-.9-.8-1.4-.5.6-.2.4.2.2-.8.3-.2.2-2 .9-.6.2-.4-.4-.8zm-.5-4.2l.1.2.3-.2v.5l1.1 1.3.2 1.8 1.4 1.3-.1.9-.4.2.2.8-.5-1.2-2.6-3.7-.3-1.1-1-.5 1-.5.6.2zm3.9-3h1.5l.3.3 1.3-.2 1 1v.6l-1.2-.2-.5.4h-1.7l-2.1-.6-.1-.7.8-.5.7-.1zm-19-21.5l2.8 4.1 1.8.6 2.1 1.9.5 1.2-.7 1.6-.2 4-1.3 1.6-1.9-.5-1.5-4.1-2.1-2.1-1.4-.3-2.8-5.2-2.3-2.3.8-.3 1.6-.1 1.4-1.2 1.1-.2 1.5.5.6.8zm16.9-4l.7.1.3-.5.8.9h-2l-.7-.2-.2-.5.5-.6.6.2v.6zM21.2 86.8l-2-.3-.3-1-4.1-2.7-4.2-1.3-2-1.9-.1-.9 1.6-2 1.6.3 2 2.4 1.8.4 1.9 2.1 2.3 1.6 1.5.6.9 2.3-.9.4zm29.7 3.3l.6-2.8-.5-1.6-.8-.3.1-.7-.4-.6-.2-1 .2-1.4.6-.2-.7-1.4.4-.9-.2-.6-1-.1-.6-1.1-.9-.2-.4-2.7.8-.1.1-1-.6-.7-.1-.7-1.2-.8 2.4-.7.2-.8-.4-.7-.3.1-.7-.4-.3-1 .3-.5-.6-.4V66l-.7-.3V65l-1.1-2 1.9-1.8-.2-1.4.7.3.1-.7 1.2-.7.4-2.6.5-.7-.2-.5.4-.2-.2-1.1h1l.3-.4.8-.2h1.2l.1 2.7.8 1h1.2l2.6 1.3.8 1.3 1.7.4.3.6.1 1.4 2.1 1.4 2.2.7 1.8 1 4 2.5 1.2 1.1 1.2.5.9.7 1.1 1.6 3.7 1.8 3.7 3.5.2 2.5-.7 1.4v.4l1.1 1.3.1.3.5-.2-.3-.8.2-.5-.9-.5.9-.6.4.1.7.8-.1 1.4.7 1.7-.3-2.4.9-.9h.6l1.9 2.7.2.6-.4 1.3.1 2 .9 2.5-1.2 6.3.3.3 1.9.3.2.8-.2.8.6.1.1 1-.5 1.2v1.1l-.8.7h-.8l-.3.6h-1.1v.3l-3 .2-.4.3 1 1.5.2 1.6.9 1.2-1.2.4v.4l.4.2.3 1-.4.9h-.8v.2l.4.5h.4v1.1l-.3.2L86 114l-3.7-1.5-.3-.7-.7.1-.7-.4-.6.3.1 2.1-.3.6.3.8 1.3.2.1 1.2.7.5v.7l-.7.8-1.2.4-1.5-.3-.8.4-.6-.5-.6-1.1-1.5.5-1.1-.4-1.7.9L71 121l-1.5.4-.9 1.4-.2-.1-.3-.2.3-.2v-.9l-.8-.5.4-1.2-.6-2.9-4.6-12.5-1.3-3-.8-1.1.2-.3.5.5.4-.1.8-1.3v-.8l-1.7-2-.5.3.5.2.2.7-1.2-.4-2.6-3.3-6.4-3.6z"/><path id="ID-YO" class="st0" d="M270.3 268.5l-2-.1-5.9-2.1-.7-.8-2-.6-3.8-1.8h.6l.3-1.3 1.2-1.3v-1.6l2.2-.1.4.9.6-.8 2.4-1.9.8 3.9.8.5.6-.1.2.3 1.5-.3.2.3.6-.3.7.6.2-.3.3.2-.6 3.4.6 1.6v.8l.2.2.5-.4-.2.6h.4l-.1.5z"/><path id="TL" class="st0" d="M506.3 285.5l-.4 1.6.1.6-.4.6-1 .4v.5l-.5.7.2.5-.2.5-1.2.3.1-.9-.2-.6-.8-.8-1.5 1-.3-.3h-.5l-.9-1.2 1.8-.7.6-.7 5.1-1.5zm48-12.2l-4.1 3.5-3.9 1.3-2.3.3-1.3.6-1.9 2.4-5.6.7-3.6 2.4-2.8.4-6.7 2.2-1.1.7-2 2-1.4.2-.7.5-.7-2.3-1-.7-.2-1.5.3-.6h1l.7.6.7-.5.7-.1.1-2.5-1.3-1-.6 1-1.7.7-.8-.6.3-1.2-.2-.1 2.7-3.5.3-1.4.6-.8 4.8-1.1 4.9-.7 2.3-.9 1.6.1 2.4.6 2.7-.4 2.2-1.2.9-.1 2.6 1.1 3.6-1.1 4-1.7 3.3.1 1.8 1.1v.6l-.6.9z"/><path id="MY-12" class="st0" d="M384.5 13l-1.4-.2-.3-.3 1.8-.6v-.4l-.6-.1-.1-.2 1.2-.4.8 1v.5l-1.4.7zm-11.3.7l1.4-.2 3.2-4-.3-1.9.6-.8 1.3-.4.6.2 1.2.8.1 3.1.6 2.2 3.1 1.7 3.1.4 1.6 2.2-.3 2.2-1.4.2-.7.9 1.1 1.8.2 1.8-.8.7-2.2.8 4.8-.3 1.8-.6 2.1-1.9.7.7 1.3 2.7-.8.9-2.5.1-.4.3.8 1.9 2.9-.1.5-1.7.4-.3 1.4-.4 2 .4 3.5 2 2 1.7 4.2 2.8 2.3.4 2.1-.7.9.7.6 1-.1 2.1-.8 1.3-2.7 1.4-2.7.7-3.7 1.5-2.6-.3-1.8-.7-.6-.5-1-.1-2.5 1.3-1.2 1.3-.1.6 2.6 3 2.3 1.5.4-.3.8.3-.3.9.7.7.6-.4.9.1.9 1.4-1.6 1.5h-2.5l-3.8.7-3.2 1.4-1.6-.4-.7-.7-2.9-1.5-1.1.4.4 1.5-1 1.7-.2-.2-.9.3-1.2-.3-.6-1-3-2.2-1.2.6-2.4-.1-.3.4-2-.8-1.2.6-.7-.2-.8-.7-.5.7-1.6.2-.2-.6-.8-.6-.5.7v.6l-.8-.1-.2.5-.6.1-.2-.6-1.2-1-1.5.3-1.7-.4-.3.8-.9.3-.6.9-1-1.2-1.5-.3-.3-.6-.5.2v1.5l-.7.6-.1.6-.4.1-.5-.4-1.2.9h-.4l-.4 1.6-.9-.5-.3-.7.4-1.1v-5.7l-1.1-7.6-1.7-.3 1.4-.8.3-1.9-.3-.4-1.3-.3-2.2-1.5.4-1.6 2.6-2h4l1-.2.5-.5.8-1.4.4-1.8 2.3-1.6v-1l.6-1.3.3-2.6 3.8-4.1 3-2.2.1-.9 2.4-2.7.2-2.5 1-2.1.9-1 1.3 1.3.3 2.5-.1.8-1.2 2 .1.8zM381.9 1l-.1 1.4-.5 1-1.8.2-1.4 1.1-.2-1.1.3-2 1.3-.9 1.3-.3.8.2.3.4zm-7.1 1.7l-.3.7.4-1.6L377 .4l.3 1.5-2.5.8z"/><path id="MY-13" class="st0" d="M280.3 86.3l-.8.3-1.1-1.6-.2-4.9.2-.6.4-.2.9 1.4-.1 3.5.7 2.1zm70.3-45.6l1.7.3 1.1 7.6v5.7l-.4 1.1.3.7.9.5v.1l-.7 2.1-1.3.7 1 1-.7 2.3v1.5l.7 2.4.6 1-.4.6-.4-.6h-.3l-.6 1.3-.4 2.8.8.9-.8.7-.3 1.4-1 .1-.8.8-1.2.1-.6-1.1-.3.8-1.6 1.1-.2 1.1-1 .8.7.6-.2.8-.6.5.2 1-.4.8.3.5 1-.3 1.2 1.5-.1.3-.6.5-1.4.2-.6 1h-.7l-.9.8-.7-.1-.3.6.3.7-.8.5-1.8.2-.3 2.1.5.5v1.4l.8-.3.5.2-.7 1 .4.8-1 .4-.5.6-.5-.2-.6.2-.4.9.1 2.3-.9 1.2-.8.5.1 1.1-.5.8-.6.5-2.9-1.6-.6.5-2.3.8-.2.4-.3.1-1.2-.9-3 .3-.4.4-1.9.8-.2 1.2-2.9 1.4-.3-.1-.8-1.3-.7-.3-2.2.7-1.8-1.6-2.4-.1-.8-.2-.4-.7-.4-.1-1.4.4-.8-.1 1.6-2-.6-.7-2.4-.3-1.1.8-.9-.4-1.6.1-2.9-.4-1.6.9-1.6.3-1.7.8-.5.6.4.7v.7l-.9.8-.4 2.7-3.2.2-1.4 1.4-.3.8-1.7-.3-.6.2-1.3-.5-1.6.9-.3.6-.7-1.2-.8-.1-1.2.3-2.6-1.2-2 .6-3.9.5-.9 1.1-2.8 1.2h-.5l-.5-.4-.4.7-1.3.1-1.5-.7-.9-1.4-2-.2-.3-1-1.5-2.3-1.3-.1-.4-.3-.4-.9-1.5-.7-.4-1.7-1.8-.2-.8-1.3-2.2-2-.3-.7.4-2.1-.1-.3-.8-.2-.9-.9-.2-.6.1-.5.6-.1.7-1 .5-1.4.1 2.3.3.7.7.8 3.8 2.8 5.6-.3 1.3-1.7 2.6 3.1 4.4 1.4v.7l-1 .9.2.1.8-.1.5-.5.2-1.4.8-.1 2.7 1.2 1.5 1.6 1.6.7 2.8.5 1-.2-1.6-1.2-2.2.2-1.8-1.1-1-1.9.5-1.6.6-.3 2.4-6.6.9-1 1.2.3.8-.7-.3-.3-3.1.3.2-2 .7-2.8.3-.1 2.1 1.6 1.4-.5-.8-1.9.8-3.7 3.8-2.6 7.3-1 13.4-3.4 2.5-1 4.6-5.6 2.4-3.5 1.8-2 3.8-3.2 3.3-4.3 1.2-3.4-.5-2.5.6-.2 2 .1 1.9.7 1.5 2.1.2 1.7 3.6 3.4 1.5 2 .5-.1 1.3-.7 1.2-1.3 1-3.5-1.3-6.7 1.1-1.1 2.1-.4.8-1.2.2 1.3-.2.7.2 2.2 1.2 4.5 2 .7 2.5.4-.1-.9-1.3-1.2v-3.4l-1-3.1-1.2-1.6 1.2-.9L348 43l.5-.1 2.1-2.2z"/><path id="BN" class="st0" d="M404.6 47.3l-.5.7h-.7l-3.1-1.2 2.2-.3 2.1.8zm-59.7-4.6l1.2 1.6 1 3.1v3.4l1.3 1.2.1.9-2.5-.4-2-.7-1.2-4.5-.2-2.2.2-.7.5.2 1.1-.8.5-1.1zm-2.7 0l-.1.3h.7l-.8 1.2-2.1.4-1.1 1.1 1.3 6.7-1 3.5-1.2 1.3-1.3.7-.5.1-1.5-2-3.6-3.4-.2-1.7-1.5-2.1-1.9-.7 1.5.2 1.7-.2 3.8-1.7 2.5-2.4 4.3-2.8 2.2-.9h1l-2.2 2.4z"/></svg>