<?xml version="1.0" encoding="utf-8"?>
<!-- Generator: Adobe Illustrator 21.0.0, SVG Export Plug-In . SVG Version: 6.00 Build 0)  -->
<svg version="1.1" id="Layer_1" xmlns:amcharts="http://amcharts.com/ammap"
	 xmlns="http://www.w3.org/2000/svg" x="0px" y="0px" viewBox="0 0 792.5 316.7"
	 style="enable-background:new 0 0 792.5 316.7;" xml:space="preserve">
<style type="text/css">
	.st0{fill:#f3f6c9;stroke:#bcdaff;stroke-width:0.5;}
</style>
<defs>


		<amcharts:ammap  bottomLatitude="-10.946766" leftLongitude="95.220250" projection="mercator" rightLongitude="141.009728" topLatitude="7.356505">
		</amcharts:ammap>
</defs>
<g>
	<path id="ID-AC" class="st0" d="M36.7,92.1l-0.2,0.1l-2-2.4L33,89.2l-0.1-0.3l3-0.1l1,2.1L36.7,92.1z M9.2,31l2.6,1.4l0.4,1.1
		l2.8,2.4l4.8,1.3l4,0.3l1.9-0.3l2.2-0.9l1.3,0.5l1.5-0.3l2.5,0.7l0.7,1.2l0.6,0.2l5.4-1.7l4.1,4.7l1.6,1.3l1.2,0.3l0.9,1.8l0.2,1.5
		l0.8,1.6l-0.1,0.9l0.8-0.1l1,0.4l2.7,1.9l0.1,1.3l-0.4,0.9l0,0l-1.2,0l-0.8,0.2l-0.3,0.4l-1,0l0.2,1.1l-0.4,0.2l0.2,0.5L49,56.3
		l-0.4,2.6l-1.2,0.7l-0.1,0.7l-0.7-0.3l0.2,1.4l-1.9,1.8l1.1,1.8l0,0.7l0.7,0.3l0.2,0.9l0.6,0.4l-0.3,0.5l0.3,1l0.7,0.4l0.3-0.1
		l0.4,0.7l-0.2,0.8l-2.4,0.7l1.2,0.8l0.1,0.7l0.6,0.7l-0.1,1l-0.8,0.1l0.4,2.7l0.9,0.2l0.6,1.1l1,0.1l0.2,0.6l-0.4,0.9l0.7,1.4
		l-0.6,0.2l-0.2,1.4l0.2,1l0.4,0.6l-0.1,0.7l0.8,0.3l0.5,1.6l-0.6,2.8l0,0l-3.5-2L46,88.6l-2.1-0.5l-1.7-2.3l-0.1-4l-0.9-3.9
		L38.7,77l-1.2-0.9l-1.2-1.7l-0.5-2l-0.5-0.8l-1.5-0.5l-2.8-4.8L29.2,65l-0.3-1.1l-1.6-1.1l-2.6-0.2l-1.3,0.2l-1.2-0.4l-1.7-1.6
		L18.6,58l-1.7-1.8l-3-1.7l-3.1-3.4l-5.1-4.5l-1.9-2.8l-2.4-4.7l0.3-1l-1.2-1.9l0.4-2.1l-0.5-1.3l0.2-1.6l0.9,0l2.6-1.5l2.9,0.4
		L9.2,31z"/>
	<path id="ID-BA" class="st0" d="M352.6,279l-1.6-0.6l-0.8-0.7l0.1-0.4l0.9-0.6l1.3,0.2l0.6,1.1L352.6,279z M333.3,266.6l1,0.9
		l0.7-0.4l5.2,1.3l2.4-0.4l1.7-1.5l1.3-0.3l4.6,1.7l1.9,1.2l1.3,1.6l1.3,0.7l0.1,0.7l-1.6,1.5l-2,1l-3.1,1l-1,0.9l0,0.8l-1.3,0.8
		l0.5,0.7l0.1-0.4l0.2,0.7l-0.4,0.5l-1.1,0.3l-1-0.1l-0.2-0.3l1.4-0.9l-0.2-0.5l0.3-0.6l-0.4-0.5l-4.7-4.1l-3-0.9l-2.1,0.1l-2.4-3.1
		l-0.3-1.9l0.1-0.4L333.3,266.6z"/>
	<path id="ID-BB" class="st0" d="M202.1,179.1l-1.2,0l-1.7-1l0.3-0.8l1.1-0.5l1.7,0.7L202.1,179.1z M218.4,170.7l4.4,1.2l3.1,2.5
		l0.5,1.8l-1.5,2.6l-0.1,1.9l-1.6,0.7l-0.5,1.1L221,183l-0.3-1.4l-1.7-1.9l-0.8,0.6l0.3,0.4l-0.1,0.8l-0.4,0.3l-2.9,0.9l-0.6-0.2
		l-0.6-3.5l0.6-1.6l0.1-2.3l0.4-0.4l0.2-2.9l0.3-0.4l1.8,0L218.4,170.7z M188.2,157.6l1.3,2.7l0.4,3.7l0.9,2.8l1.3,2.1l1.2,0.9
		l4,0.7l2.9,1.1l-1.7,1.6l-1.4,4.1l0.1,0.4l0.8,0.5l1.5,0.5v1.2l-0.4,0.4l-3.4,0.1l-1.3-2.1l-2.8-1.3l-5.3-1.6l-0.9-1.6l-0.3-1.3
		l0.6-2.1l-0.1-0.9l-1.4-0.7l-0.6-0.7l-0.4-3.5l-0.9-0.9l-4.6-0.5l-2.4,0.4l-3.6-0.9l-0.3-0.9l0.4-1.3l2.5-1.1l1.9-1.5l-0.2-0.9
		l-0.9-0.6l0.2-0.9l1.9-1.5l2.1-0.7l0.5,0.1l0.7,1.8l0.1,1.7l0.9,0.7l1.7,0.2l-1.7-4.2l3.1-1l0.4,0.1l2.3,1.8l-0.3,0.8l0.1,0.6
		L188.2,157.6z"/>
	<path id="ID-BE" class="st0" d="M118.5,174.6l0.2,0.6l0.8,0.5l0.1,0.7l1.5,1l0.7,1.8l1.1,0.6l1.1-0.4l1,0.2l0.6,0.6l0.3,0.7
		l-0.1,1.2l0.2,0.1l-0.2,0.5l1.7,1.5l0.9,0.4l2.5-1.2l0.6,0.9l0.8,0.1l0.6-0.2l0.1,0.9l0.8-0.3l0.8,0.1l0.2,0.5l-0.3,2.1l-0.7,1
		l-0.9,0.7l-0.9-1.2l-0.7-0.3l-0.1,1.4l-1.1,1.1l-0.1,1.1l-2,1l0.7,0.2l0.6,0.8l2.4,2l0.8,0.2l0.6-0.3l0.9,0.8l2.2-0.1l0.7,0.3l1,2
		l0,1.6l1.9,0.3l1.2,1l1.7,0.1l0.9,0.9l1-0.4l0.6,0.2l0.3,1.2l-0.8,1.1l1.1,1l-0.7,0.6l0.8,0l0.6,0.5l0.5,1.3l-0.4,0.5l1.4,0.2
		l0.3,0.9l0,0l-0.1,0.1l0,0l-0.9,0.1l-0.1,0.5l-1.8,1.1l-0.2,0.5l0,0l-0.8-0.1l-1-0.8l-1.5-0.1l0.1-0.4l-0.3-0.4l-0.5-0.4l-0.6,0.3
		l-0.4-0.3l0.2-0.5l-1.6-1.7l-3.1-2.1l-2.6-1l-0.5-1.1l-1.1-1.1l-8.9-6.7l-0.2-1.3l0.5-0.4l-0.9-1.7l-0.3-1.6l-2.2-1.8l-3.3-1.7
		l0.1-0.3l-5.6-4l-1.5-1.9l-0.7-1.7l-1.5-2l-1.2-2.9l-3.2-1.8l-2-2.4l0,0l3.9-2.6l0.8-1l0,0l0,0l0,0l4.7,3l-0.2,2.1l0.3-0.5l0.7,0.1
		l1-0.4l1.9,2.3l1.4,1.1l0.7,0.2l1.3-0.2L118.5,174.6L118.5,174.6L118.5,174.6z"/>
	<path id="ID-BT" class="st0" d="M199.2,232l-0.6,0.2l0,1.1l0.6,0.3l0,0.7l0.4,0.1l0.6,1.5l0,0l0,0.1l0,0l-0.2,0.6l-2.9,0l-0.3-0.4
		l-1-0.3l0.2,0.5l-0.5,0l-0.2-0.6l-0.3-0.1l-0.7,0.6l0.4,1.4l-0.9,0.4l-0.1,1l0.6,1.2l-0.1,1.7l1.5,1.5l-1.3,1l-0.1,0.7l-0.6,0.7
		l0.1,1.4l0,0l-1.5,0.2l-0.1-0.3l-0.7,0l-0.4-0.3l0-0.4l-2.5-0.9l-1.2-1l-1.4-0.1l-2.9,0.6l-1.5-0.2l-2.1,0.3l-0.4,0.3l-1-0.1
		l-0.6-0.6l-0.6,0.3l0.1-0.3l-0.6-0.4l-1.1-0.2l-0.9,0.8l-0.4-0.1l-0.1-1l-0.4-0.5l1,0.1l1.1-1L175,242l0.8-0.4l0.6,1.3l-0.2,0.3
		l0.5,0.3l0.4,1l0.5,0.2l0.5-0.6l0.1-1l1.8-1.8l0.1-1.5l0.5-0.9l0.4-0.3l-0.1,0.7l0.4,0.3l1.4-0.1l0.9-1.5l0.1-3.1l0.6-2.2l0.4-0.2
		l0-0.6l1.8-1.5l0.2-0.9l0.6-0.8l0.7-0.1l0.6,0.6l0,1.3l1,0.6l1-0.3l0.6-1l1.3,0.6l0.4-0.4l0.6,0.3l0.1,0.7l0.5,0.3l1.1,0.2l0.7-0.5
		l0.5,0.3l1.1-0.3l0.4,0.2l0.5-0.1l0.5,0.5L199.2,232z"/>
	<path id="ID-GO" class="st0" d="M466.8,109.6l4.7,0.3l3.4,1l3.2,2.2l1.1-0.7l0.8-1.2l2.6-0.4l0,0l0.2,0.8l1.4,0.6l0.7,0.7l0.2,1.3
		l0.6,0.5l1.2,0.9l2,0.3l0.5,0.6l0.3,0.8l-0.1,2.1l-1.1,2.4l0,0l-2.1,0l-1.5-0.4l-3.1-3.3l-0.5,0.4l-1.4,0.1l-8.4-0.3l-7.2,0.3
		l-1.1,0.6l-3.4,0.4l-1.5-1.7l-2.9-0.3l-0.7,1.1l-2.8,0.3l0,0l0.3-0.5l-0.2-1.5l-1.8-0.4l-1.3-1.5l0.3-0.2l0.1-1.1l0.3-0.3l1.1-0.4
		l1,0.4l0.5-0.1l0-1l0.4-0.4l0.9,0.5l1.3,0.1l0.5-0.4l1.5,0l3.2-1.2l0.8-0.6l0.9-0.1l0.5,0.8l0.9,0.7l0.4-0.9h0.4l0.5-0.6
		L466.8,109.6z"/>
	<path id="ID-JA" class="st0" d="M160.6,155.7l-1.3-0.5l-0.5,0.1l-0.5,0.4l0.1,0.8l-0.3,0.4l-2,0.2l-2.3,0.8l-1.1-0.3l-1.2,0.2
		l-1.5-0.6l-0.7,0.4L149,158l-1.7,0.1l-2.2,0.8l-1.1,1l-0.3,3.6l0.6,0.5l-1.8,0.8l0,2.9l-2.1-1.5l-0.8-1l-0.1-0.8l-0.8-0.4l-1.2,1.7
		l0.7,0.7l0.2,0.7l-1.5,0.6l-1.4-0.6l-0.3,0.5l-2.6-0.6l-0.6,0.8l0.6,1l-1.5,2.1l-0.4,0.4l-0.6-0.1l-1.7,1.1l-0.8,1.2l-0.5-0.2
		l-1,0.5l-0.8-0.2l-0.7-0.2l-1.1-0.8l-0.5,0.2l-0.9-0.5l-0.6,0.2l-0.1,0.7l-0.4,0.4l-1.6,0.5l-0.4,0.7l0,0l-0.6-0.2l0,0l-1.3-0.6
		l-1.3,0.2l-0.7-0.2l-1.4-1.1l-1.9-2.3l-1,0.4l-0.7-0.1l-0.3,0.5l0.2-2.1l-4.7-3l0,0l0.2-0.5l0,0l-0.7-3.3l-0.4-0.7l-1.1-0.7
		l-0.8-1.4l-0.2-3.6l0.7,0.3l0.3-0.4l0.7,0.7l0.6-0.3l1.6-0.2l1.2-0.1l0.4,0.4l1-0.3l1.2-1.8l2-1.2l0.6-1.1l-0.4-0.6l0.4-0.7
		l-0.4-1.6l0.6-0.6l1.6-0.4l1.1-1.9l-0.5,0.2l-0.5-0.4l-0.1-1.9l0,0l0,0l0,0l0.6,0.1l0-0.3l0.8-0.2l0.2-0.6l0.6-0.3l0.2,0.2l0.6-0.6
		l2.2,0.7l0.8-0.3l0.6,0.8l1.8-0.6l0.3,0.8l1,0.5l0,0.6l1.2,0.1l0.5,0.8l2.2,0.3l0.6,0.4l0.8-0.7l0.7-0.1l1.1-1.7l2.1-1.5l1.7-2.3
		l2-0.1l3.6,0.6l0.4,0.3l0.9-0.5l1.2-0.1l0,0l1.2,0.8l1.8,1.8l3.3,1.6l2-0.5l4.6,1.5l2.6-0.7l0.8,1.7l-0.3,1.4l1,2l-0.2,3
		L160.6,155.7z"/>
	<path id="ID-JB" class="st0" d="M205.7,229.3l1.2,0.9l2.2-0.5l0.9,0.3l2.1,3l2.7,0.8l0.9,0.9l0.4-0.3l0.7,0.1l1.3-0.8l0.6,0
		l0.1,0.4l0.6-0.3l-0.1,0.8l4.1,1.7l1.4-1.1l-0.4-0.7l0.6,0.3l1.3,0l0.6,0.4l0.2-0.6l0.6,1.9l1.3,1.5l1.4,0.8l0.4,3.6l0.7,1.2
		l0.6,0.1l0.3-0.3l0.5,0.3l0.1,0.6l1.2,0.3l0.9-0.5l0.1-0.4l-0.3-0.1l0.2-0.3l0.5,0l0,0l-0.1,1.5l-1.2,1.5l0.1,1.1l0.7,0.4l-0.3,0.6
		l0,1l-0.9,0.3l-0.5,0.6l-1.3-0.2l-1,0.5l0.3,1.4l-0.5,0.8l0.1,0.8l0.4,0.2l1.2-0.1l0.5,0.5l0.7,1.1l0,0.9l0.6,1.3l-0.4,1l1.2,1l0,0
		l-0.7,0.4l-1.3-0.4l-0.5,0.3l0.1,0.6l-0.5-0.7l-2,0.2l-0.4,0.4l-0.1,1.1l-0.4,0.3l-2.3,0.2l-4.5-0.8l-1.5-0.5l-2.5-0.1l-0.7-0.9
		l-2-0.4l-0.3-0.7l-1.2-0.9l-2.5-1.1l-3.9-0.4l-2-0.5l-9.5-0.7l-2.2-1l-0.5,0.2l-0.5-2.2l0.6-0.9l0.9-0.2l-0.1-0.9l0.9-0.6l0.6-0.9
		l-0.1-0.9l-0.5-0.5l-1.2-0.1l-0.8,0.5l0,0l-0.1-1.4l0.6-0.7l0.1-0.7l1.3-1l-1.5-1.5l0.1-1.7l-0.6-1.2l0.1-1l0.9-0.4l-0.4-1.4
		l0.7-0.6l0.3,0.1l0.2,0.6l0.5,0l-0.2-0.5l1,0.3l0.3,0.4l2.9,0l0.2-0.6l0,0l0-0.1l0,0l0.5-0.1l-0.1,0.8l0.9-0.2l1,0.4l0.2-1
		l-0.3-0.9l0.6-0.2l0.4-0.9l0.1-2l0,0l0.6-0.3l-0.2-0.4l0.4-0.3l-0.4-0.5l0.4-0.9l-0.5-0.2l0.6-0.4L205.7,229.3z"/>
	<path id="ID-JI" class="st0" d="M313,272.8l1.5,0.1l0.5,0.3l-0.2,0.4l-1,0.2l-1.4-0.1l0-0.5L313,272.8z M355.7,249.6l0.5,0.2
		l0.2,0.4l0.9,0.3l0.8-1.1l-0.3,1.6l-1.1,0.3l-1.3-0.6l-0.2-0.3l0.3-1.1L355.7,249.6z M331.9,250.8l-1-0.1l-0.8-0.6l-0.3-0.6
		l0.2-0.6l0.9-0.3l0.5,0.3l0.7,1.5L331.9,250.8z M353.5,247.2l0.7,0.7l-1.6-0.2l-0.5-0.6l0.3-0.3L353.5,247.2z M325.1,245.7l1.8,0.9
		l0.3,0.8l-3,0.9l-0.7-0.1l1,0.8l1.4,0.1l0.2,0.7l-1.6-0.2l-1-1l-0.7,0.7l0.2,0.8l-3.6-0.4l-0.6,0.4l-0.8,0l-0.8,1.7l-0.7,0.4
		l-0.1-0.4l-0.8-0.1l-4.7,0.1l-0.3-0.5l-0.3,0.1l0.2-0.5l-0.3-0.3l-0.4,0.4l0.5,0.7l-0.9,0.1l-4-1.1l-1.5-0.1l-1.1,0.3l-0.5-0.4
		l0.2-0.9h-0.3l-0.3-0.7l0.2-0.5l0.6,0.1l1.2-1l0.6-1.2l1.1-0.4l2.3-0.2l8.4,0.3l7.2-0.6L325.1,245.7z M347.4,244.8l3.2,0.5l1.5,0.8
		l0.2,0.4l-0.4,0.6l-0.9-0.2l-0.4-0.4l-1,0.2l-0.3-0.4l-1,0.1l1.2,1.1l-1.2,0.1l-0.5-0.4l-0.5,0.6l-0.7-0.6l0.5-0.5l-1.1,0l-0.1-0.3
		l0.2-0.6l0.7-0.4l-0.3-0.5L347.4,244.8z M286,243.8l2,0.5l2.1-0.6l1.1,1.9l1.3,0.4l1.9-0.5l3.3-0.1l1.8,0.7l0.4-0.5l-0.2-0.3
		l0.2-0.5l0.5,0.3l0.3,0.7l0.5,0.3l-0.4,0.4l0.3,1l0.6,0.4l0.1,0.6l-0.5,1.2l0.8,0.7l-0.3,0.9l0.9,0.2l0.2-0.4l0.8-0.1l1.5,1.5
		l-0.2,0.8l0.2,0.1l-0.1,2.4l-0.4,0.1l0.9,1l-0.1,0.9l0.4,0.5l0.8,0.3l0.2-0.2l0.9,0.6l0.9-0.1l0.7,0.8l1.4,0.7l1.4,0l0.6,0.7
		l3.8-1.5l2.9,0.6l0.8-0.4l0.9,0.4l1.5-1l1.3,0.3l1.1-1.1l0.9-0.4l0.6,0.4l0.8,1.3l1.6,0.1l0.6-0.3l0.9,0.8l1.5,0.3l1,0.6l0.5,0.6
		v0.9l-0.8,0.7l0.2,2.4l-0.8,2.2l0.1,0.7l-0.8,3l0,0.6l0.4,0.8l-0.2,0.7l0.4,0.1l0.2-1.5l0.6,2.8l0.5,0.6l0.5-0.4l0.6,0.6l1,0.2
		l0.6,0.9l-0.2,0.8l-1,0.4l-1.6-0.5l-1.5-0.1l0.5-0.8l-0.2-0.6l-0.6-0.6l-1.2-0.5l-0.5,0l-0.3,0.8l-1.9-0.5l-1.1,0.3l-0.5-0.8
		l-0.3,0.4l-0.6,0l-0.2-0.2l0.4-0.4l-0.3-0.3l-0.6,0.3l-1.4-0.5l0-0.4l-0.5,0.3l-0.2-1l-1.4,0.6l-0.1-0.7l-0.7,0.2l-0.8-0.9
		l-0.8-0.1l-0.1-0.2l-0.8,0.1l-0.8-0.4l0-0.4l-0.4-0.2l-1.2,0.4l-0.9-1.3l-1.7-0.8l-3.5,0.4l-1,0.6l-0.9,1l-3.6,0.5l0.1,0.5
		l-0.4,0.1l-2.3-1l-2.9-0.5l-1.6-0.8l-0.6,0.3l-1.2-0.4l-2.5-0.1l-1.8-0.7v0.3h-0.8l-0.7-0.6l-0.3,0.2l-1.1-0.2l0.1,1.1l-0.3,0.2
		l-0.3,0l-0.1-0.7l-0.3,0l0.1,0.5l-0.5,0.2l0.5,0.6l-0.5,0.1l-1.2-0.4l0.1-0.5l-0.7,0.2l-0.6-0.5l-0.2,0.5l-1.3-0.3l-0.2-0.8
		l-0.3-0.2l-0.7,0.4l-2.5-0.5l-0.5,0.4l-1.2,0.1l-0.8-0.6l0-0.3l-0.3,0l-0.1,0.5l-1,0.1l-2-0.6l0,0l0.1-1.7l0.7-0.9l1.3,0.3l0.8-0.6
		l0.5,0.3l0.4-0.7l0.2-1.5l0.8-0.3l0.1,0.3l1,0.2l1.1-1.6l-0.6-1.3l0.1-0.6l-1,0l-0.8-0.7l0.2-1.8l-0.6-0.4l-0.2-1.4l-0.6-1.4l0.5-1
		l0.1-1.7l1.1-0.3l0.5,0.6l3.7,1.6l0.1-0.3l-0.3-0.1l0.2-0.6h-0.5l0.4-0.9l1.6-0.7l1.3-2l0.1-2.2l-1-0.7l0.7-0.7l0.2-1.4l0.7-0.1
		l0.1-0.8l0.5-0.4l0,0L286,243.8z M302.7,225.8l0.4,0.1l0.2,0.8l-0.2,0.8l-0.8,0.4l-1.6,0l-0.3-0.5l0.3-0.9l1.6-1L302.7,225.8z"/>
	<path id="ID-JK" class="st0" d="M174,239.6l-0.4,1.8l-0.6,0.2l-0.4,0.6l-0.2-0.3l0.4-0.9l-0.3-0.3l0-0.4l-0.8,0.5l-0.1,0.3
		l-0.3-0.2l0.3-0.6l1-0.8L174,239.6z M199.6,232.1l1.8,0.3l0.7-0.4l1.4-0.1l0,0l-0.1,2l-0.4,0.9l-0.6,0.2l0.3,0.9l-0.2,0.9l-1-0.4
		l-0.9,0.2l0.1-0.8l-0.5,0.1l0,0l0,0l0,0l-0.6-1.5l-0.4-0.1l0-0.7l-0.6-0.3l0-1.1l0.6-0.3l0,0L199.6,232.1z"/>
	<path id="ID-JT" class="st0" d="M285.2,243.5l-0.5,0.4l-0.1,0.8l-0.7,0.1l-0.2,1.3l-0.7,0.7l1,0.7l-0.1,2.2l-1.3,2l-1.6,0.7
		l-0.3,0.9h0.5l-0.2,0.6l0.3,0.2l-0.1,0.3l-3.7-1.6l-0.5-0.6l-1.1,0.3l-0.1,1.7l-0.5,1l0.6,1.4l0.2,1.4l0.6,0.4l-0.2,1.8l0.8,0.7
		l1-0.1l-0.1,0.6l0.6,1.3l-1.1,1.6l-1-0.2l-0.1-0.3l-0.8,0.4l-0.2,1.5l-0.5,0.7l-0.5-0.3l-0.8,0.6l-1.3-0.3l-0.7,0.9l-0.1,1.7l0,0
		l-1.2-0.3l0,0l0-0.5l-0.4,0l0.2-0.6l-0.5,0.4l-0.2-0.2l0-0.8l-0.6-1.6l0.6-3.4l-0.3-0.2L269,262l-0.7-0.6l-0.6,0.3l-0.2-0.3
		l-1.5,0.3l-0.2-0.3l-0.6,0.1l-0.8-0.5l-0.8-3.9l-2.4,1.9l-0.6,0.8l-0.4-0.9l-2.2,0.1l0,1.6l-1.2,1.3l-0.3,1.3l-0.6,0l0,0l-5.3-1.6
		l-3.8-0.7l-1.2,0.3l-0.5-0.3l0.2-0.5l-1.9-0.4l-3.9-0.1l-0.8,0.6l-0.1,0.4l0.6,0.3l-0.2,0.2l-4.2-0.7l0-0.6l-0.2-0.1l1.3-0.8
		l-1.1,0.2l0,0l-1.2-1l0.4-1l-0.6-1.3l0-0.9l-0.7-1.1l-0.5-0.5l-1.2,0.1l-0.4-0.2l-0.1-0.8l0.5-0.8l-0.3-1.4l1-0.5l1.3,0.2l0.5-0.6
		l0.9-0.3l0-1l0.3-0.6l-0.7-0.4l-0.1-1.1l1.2-1.5l0.1-1.5l0,0v0.5l0.5,0.5l1.6,0.5l0.2-0.4l1.3-0.4l0.3-0.4l0.1,0.9l0.7,0.6l2.6,0.5
		l2.8-0.4l1.7-1.2l1,1l1.5,0.2l3.8,1.2l2.3,0l2.3-0.8l0.5-0.5l0.8,0.2l0.5,0.8l1.2,0.6l1,0.3l1.1-0.2l0.1,0.2l0.6-0.2l0.7-1.9l1-1.2
		l-0.6,0l-0.1-0.2l0.4,0.1l-0.2-0.5l0.6,0.1l1-1.1l0.1-1.8l0.6-0.6l-0.3-0.3l1-1l3.1-0.8l2.4,0.4l1,3.1l0.6,0.9l1.7,0.6l2.3,0.2
		l1.4-0.6l0.2-0.5l0.5-0.3l1.4,0.4L285.2,243.5z"/>
	<path id="ID-KB" class="st0" d="M236,155.8l-0.4-0.1l-0.6-1.4l0.1-0.3l1.6-0.5l0.6,0.1l0.6,0.6l-0.3,0.9L236,155.8z M247.8,144.3
		l1.6-0.2l0.9,0.6l0.7-0.5l0.5,0.2l0.6,2.4l-5,2.9l-1.3-0.4l-0.4-0.4l0.7-1.1l0.4-2.6l0.8-1.1L247.8,144.3z M249.8,91.5l-0.5,1.4
		l-0.7,1l-0.6,0.1l-0.1,0.5l0.2,0.7l0.9,0.9l1.2,0.3l0.1,0.3l-0.4,2.1l0.3,0.7l2.2,2l0.8,1.3l1.8,0.2l0.4,1.7l1.5,0.7l0.4,0.9
		l0.4,0.3l1.3,0.1l1.5,2.3l0.3,1l2,0.2l0.9,1.4l1.5,0.7l1.3-0.1l0.4-0.7l0.5,0.4l0.5,0l2.8-1.2l0.9-1.1l3.9-0.5l2-0.6l2.6,1.2
		l1.2-0.3l0.8,0.1l0.7,1.2l0.3-0.6l1.6-0.9l1.3,0.5l0.6-0.2l1.7,0.3l0.3-0.8l1.4-1.4l3.2-0.2l0.4-2.7l0.9-0.8l0-0.7l-0.4-0.7
		l0.5-0.6l1.7-0.8l1.6-0.3l1.6-0.9l2.9,0.4l1.6-0.1l0.9,0.4l1.1-0.8l2.4,0.3l0.6,0.7l-1.6,2l0.8,0.1l1.4-0.4l0.4,0.1l0.4,0.7
		l0.8,0.2l2.4,0.1l1.8,1.6l2.1-0.6l0.7,0.3l0.8,1.3l0.3,0.1l2.9-1.4l0.2-1.2l1.9-0.8l0.4-0.4l3-0.3l1.2,0.9l0,0l0,0l0,0l-0.8,0.4
		l-0.1,1.7l0.2,0.2l-0.3,0.4l-0.2,1.4l-1.4,0.6l-1-0.1l-0.5,0.4l-0.1,0.7l-1,0.4l-0.1,0.4l0.5,0.7l-0.8,1.3l0.9,1.5l-0.5,0.6
		l-0.1,1.2l-0.7,0.3l-0.1,0.8l0,0l-0.5,0.3l-0.2,0.7l-1.1,1.3l-1.1,0.4l-0.3,1.1l-1.3,0.8l-1.7,1.8l-0.9,0.6l-1.4-0.3l-1.4,0.6
		l1,1.2l1.5,0.8l-0.1,1.3l0.5,0.6l-0.4,1.1l0.4,0.3l-0.4,0.8l-0.4,0.3l0.3,0.2l-0.1,0.3l-0.4,0.1l-0.8,1.1l-0.9,0.2l-1.4,1.8
		l0.8,0.7l0.2,0.8l-0.8,1.3l-0.6-0.6l-0.5,0l-0.1-0.4l-1.4,0.9l-1.3-0.1l-1.8,0.7l-0.7,0.6l-1.9,0.1l-0.1,0.9l-0.7,0l-0.2,0.4
		l-0.9,0l-0.6,0.6l-1,0.3l-0.9-0.2l-0.3,0.7l-0.4-0.3l0-0.6l-0.4-0.1l-1.3,0.8l-0.4-0.2l-0.4,0.4l-1-1.7l-0.9-0.3l-0.8,1.1l0.1,0.8
		l-2.2-0.4l-0.2,0.2l0.2,1.4l-1.2,0.3l-0.9-0.7l-0.1,0.9l0.3,0.8l-0.7-0.1l-0.8,0.9l-1-0.1l-1.9,1.1l-0.6,0l-0.3,0.4l0.2,0.7
		l-0.9,0.6l-0.3,0.5l0.3,0.6l-0.3,0.5l0.3,0.3l-0.1,0.3l-2.8,0.6l-0.1,0.5h-0.3l-0.4,0.8l-0.6,0.3l-0.8,1.4l-1.1-0.2l-0.1,0.5
		l-0.4-0.1l0,1.4l-0.6-0.8l-0.8,0.5l0.3,0.8l-0.8,0.2l-0.4-0.4l-0.8,0.4l-0.5-0.4l-2.1,1.6l0,0.8l0.4,0.1l0.4,0.6l1.1-0.9l0.5,0.7
		l0.1,1.2l-0.6,1.2l0,0.6l0.3,0.4l-0.4,0.8l0.5,0.6l1.5,0.1l-0.1,0.8l-0.7,0.6l0.6,1.5l-0.8,1.2l0.7,1.1l0.5,1.8l0.6,3.4l-0.3,0.8
		l0.8,0.3l0.1,0.4l-0.5,0.9l-2.4,0.8l-0.1,0.6l-0.6,0.5l-1.2,0.2l-2,0.9l-0.7,1.2l0,0l-1.3,0.8l-0.3-0.1l0-1.8l-0.4-0.9L266,176
		l-0.6-0.1l-2.4,1l-2,1.6l-0.7-0.4l-0.5-1.5l0.6-1.7l-0.8-0.7l-0.2-1.7l-1.3-0.4l0.7-0.8l0.2-1.3l-1-3.8l-0.7-0.9l0.5-3.2l-0.7-1.8
		l-2.4-1.2l-0.8-0.8l0.2-0.9l1.3-0.8l0.7-1.2l0.6-3.3l-0.2-2.3l-0.9-0.9l-0.8-0.2l-0.9-1.1l0.5-1.4l-1.9-0.6l-1.2-1.6l-0.7-0.4
		l-0.7,0.5l-1.1-0.8l-0.7-1l-2.3-0.8l-0.5,0.1l0.2,0.8l-0.5,0.5l-1.7-0.6l-0.6-0.6l-0.5-0.9l0.2-2.6l0.8,0.5l1.9,0.4l1.1,0.6l0-0.5
		l-1-0.7l-0.9,0l-0.2-0.5l0.3-1.1l-1.8,0.2l-1.7-0.6l-0.7-0.8l-1.4-4.5l0.3-0.6l0.6-0.1l-0.2-0.8l1.1-1.8l0.4-1.6l-0.2-1.2l-0.8-1.9
		l-1.1-1.2l-2.3-0.6l0.5-1.6v-0.5l-0.7-0.8l0.5-2.1l-0.3-0.9l-0.7-0.8l0.2-0.9l-0.8-0.9l0.1-0.4l1.2-0.6l0.7-0.7l0.4-1.1l-1.4-3.2
		l0.1-0.2l0.7,0.2v-0.8l1.3-1.8l0.2-0.8l-0.2-1.3l0.5-1.6l3.5-2.6l0.5-1.6l0.7-1l-0.1-1.9l1.9-0.2l0.8-0.6l1.7,0L249.8,91.5z
		 M235.8,78.1l-1.1-0.7l0.9-0.8l0.3-1.1l0.5-0.2l0.4,0.4l-0.2,1.5L235.8,78.1z M182.2,78.4l-0.6-0.2l-0.3-2.7l0.3-0.9l2.6,1.4
		l-0.6,1.3L182.2,78.4z M226.7,63.9l-2.3,0.5l-1.5-0.8l0.6-0.8l1.2-0.9l-2.4-1l-1-1.8l-0.2-1.1l0.6-0.7l0.7-0.2l2-2l1.2,0.3l0.3,1.3
		l2.2,2.2l0.2,1.8l-0.2,0.8L226.7,63.9z"/>
	<path id="ID-KI" class="st0" d="M393.8,84.8l1.4,1.6l0.7,1.2l0,0.4l-0.6,0.9l-2.7,2.5l-1.3-0.4l0.7,1.2l0.1,2.8l4.5,4l4.9,2.9
		l0.5,1.4l1.3,0.6l1.2,0.1l3.1,2.7l1.1,1.8l2.7,0.8l0.2,1.1l-1.3,1.5l-2.4,1.7l-2-0.8l-3,0.3l-2.8-0.2l-3.1-0.6l-1.6-0.7l-0.7-0.7
		l-0.7-1.8l-0.7-0.6l-1.1-0.3l0,0.4l2.4,4.1l0.1,0.7l-0.6,0.4l-1.7-0.9l-1.6,0.5l-1.2,1.2l-0.4,0.8l0,0.9l-1.7,3.5l-0.9,0.7L386,122
		l-0.9,3.3l1.1,2.3l-0.8,1.1l-0.8,2.5l0.6,1.8l-0.5,3.1l2.6-1.7l0.7-0.1l-1,3.9l0.8,2.2l-2.9,1.5l-2.1-0.1L382,141l-0.4,0.3
		l-0.1,0.8l-2,2.4l-2,3.3l-1.8,0.9l-1.8,0.3l-1.3-3l0.3-1.1l-0.3-0.1l-0.5,1.8l0.7,0.7l0.6,1.3l-0.5,2l-2.2,0.8l-1.5,1.1l0,0.9
		l0.5,0.8L369,155l-2.4,0.9l-3.1,1.7l0.6,0.6l2.1-0.8l1.1,0.3l0.2,4.5l-0.4,0.5l-1.3,0.7l2.1,0.3l0.4-0.4l0.3,1.1l1.4,0.4l-0.8,3.9
		l0,0l-2.4-0.9l-2.7,0l-1.3-0.4l-2.7-0.2l-0.9-0.6l-2.4,1.6l-0.3-0.5l0-1l-0.7-1.7l0.2-1.5l0.4-0.6l-0.8-0.5l-0.5,0.1l-0.5-0.2
		l0.2-0.6l-0.3-0.7l0.4-1.4l-0.1-1.9l-0.8-1.3l0-0.8l-0.9-0.9l0.1-0.7l-0.3-0.4l-1.2,0.1l-0.2-0.4l2-2.3l0.3,0.1l-0.1,0.8l0.2,0.1
		l1.1-1.3l0.2-1l0,0l0,0l0,0l0.2-1.3l1.4-1.4l-0.8-0.7l-0.7,0.4l-0.2-0.1l-0.2-0.7l-0.7-0.6l-0.4,0l-0.4-1.2l-1.3-0.8l-1.4-1.7
		l-1.7-0.3l-0.4-1l-0.2-3.1l-0.5-0.4l-0.4-1l-0.9-0.8l0.2-1.1l-0.4-0.1l-0.2-1.5l0.4-0.1l-0.2-0.9l0.6-0.9v-0.7l0.9-0.8l-0.4-1.1
		l-2.4,1.2l-0.3,0.7l-0.9,0.2l-0.8,0.7l-0.9-0.2l-1,0.2l-0.7-3.9l-0.9-0.6l-0.6,0.1l-0.3-0.5l0.3-1.3l0.4-0.8l0.6-0.3l0.5-1.1
		l0.7-0.4l0.4,0.3l1-0.2l0.5,0.5l1.5-1.5l0.1-0.7l-0.7-0.6l-1.6-2.7l-0.7-2.3l-1-0.5l-0.8,0.8l0.3,0.7l-1.2-0.9l-0.9,0.2l-0.8,0.6
		l-0.9,0l-1.4,1.3l-0.8,0l-0.2,1l-1,0l-0.7,0.5l0.1,0.7l-0.2,0.1l-1.9-0.7h-2l-0.1-0.4l-0.6-0.3l0.3-0.5l-0.3-1l-0.7-0.4l-3.7,1
		l-0.9-0.3l0,0l0.1-0.8l0.7-0.3l0.1-1.2l0.5-0.6l-0.9-1.5l0.8-1.3l-0.5-0.7l0.1-0.4l1-0.4l0.1-0.7l0.5-0.4l1,0.1l1.4-0.6l0.2-1.4
		l0.3-0.4l-0.2-0.2l0.1-1.7l0.8-0.4l0,0l0.4-0.2l0,0l0.2-0.5l2.3-0.8l0.6-0.5l2.6,1.5l0.6-0.5l0,0l1.7,1.4l1.6,0.5l0.8,0.9l0.4,1.3
		l0.8-0.5l0.7,0.1l0.5,0.2l0.9,1.5l1.1,0.2l0.9-1l2.7,0.4l0.8-0.9l1,0.2l1.3-1.2l0.3-1.6l0.4-0.4l2,0.1l2.3-0.9l2.3,0l1-0.9l0.6-1.2
		l2.5-2.9l1.3-2.5l-0.2-1.8l2.5-2.2l0.4-3.7l1.2-1.6l0.6-1.6l0.5-0.1l1.3,0.9l0.3,0.7l1.3,0.2l1-0.3l1.8-1.1l2.3-0.8l2-1.2l2.7,0.2
		l2.5-0.4l0.5,1.1l0.6,0.5l1.8,0.7l1.1-0.3l1.6,1.7l1.4,0.5l0.4,0l1.3-0.8l1.3-0.2L393.8,84.8z"/>
	<path id="ID-KR" class="st0" d="M160.4,133l0.9,0.5l1.1,1.9l-1,0.8l-0.5,1.9h-0.5l-0.9-0.9l-0.5,0.2l-0.1,1.3l-0.5,0.2l-0.7-2.5
		l-1.2-0.9l0.4-1.5l0.7-0.2l0.1-0.8l0.2,0.8l-0.4,0.4l0.4,0.6l0.1-0.9l1,0.3l0.5-0.3l0.2-0.8L160.4,133z M165.7,130.6h0.5l0-0.9
		l0.2-0.2l1.2,1.6l0.9,0.8l0.8,0.1l0.1,0.4l-1.4-0.4l-0.3,0.3l0.4,0.5l-0.1,0.2l-0.9-0.5l-0.4,0.1l-2.5-1.9l-0.9,0.1l-0.9,0.6
		l-0.5-0.1l-0.7,0.5l-0.5-0.6l-0.7,0.1l-0.5-0.5l0-0.6l1.4-0.9l-0.2-2.3l0.8-0.4l1.7,1.1l1.6,1.8l0.2,0.7L165.7,130.6z M158.8,124.6
		l0.2,0.2l0.1-0.4l0.5,0.1l1.9,2.1l-1,0.4l-0.5-0.3l-1.3-1.4l-0.9-1.6L158.8,124.6z M161.2,123.1l1.8,2.2l1.3,1.1l-0.1,0.6l-2.2-1.5
		l-1.6-1.8l0-0.5L161.2,123.1z M159.2,121.5l0.6,0.4l-0.6,0.2l0.3,0.3l-0.9-0.3l0.1,0.3l-0.4,0.5l-0.3-0.1l-0.5-0.8l-0.2,0.1
		l-0.1-0.6l0.7,0.2l0.1-0.4l-0.7-0.5L159.2,121.5z M156.8,113.6l-0.2,0.8l0.7,0.5l-0.8,0.3l0.9,0.2l0.1-0.3l0.4,0.3l-0.2,0.3
		l-0.6-0.2l-0.1,1l-0.6-0.5l-1.3-2.2l1.4-0.5L156.8,113.6z M150.8,114l-0.1,0.2l-1.5-1.5l-0.3-0.9l1.6,1l0.5,0.9L150.8,114z
		 M149.3,113.7l-0.2,0.5l-0.2-0.4l-1.2-0.6l-0.5-1.2l0.6-0.4l1.1,1.3L149.3,113.7z M143.1,111.8l0.1,0.6l1.1,1.3l-0.2,0.3l-1-0.8
		l0.4,0.7l-0.2,0.8l0.3,0.4l-0.4,1l-0.5,0.2l-0.2-0.4l-0.7-0.1l-0.9-1.3l-0.2-1.8l0.4-1.2l0.8,0.4l-0.1-1.1l0.6-0.4l0.7,0.3
		L143.1,111.8z M154.2,110.8l0.3,0.1l0.1-0.4l0.4-0.1l0.3,0.4l-0.1,0.5l-0.3,0.1l0.1,0.5l0.8,0.1l0.8,0.5l-1.6,1.1l-0.4-1.2
		l-0.9-0.2l0-0.9l-0.2-0.2l-0.3,0.3l-0.3-0.2l0.2-0.7l0.5-0.1L154.2,110.8z M148.7,110.5l-0.9-0.8l0.4-0.7l0.5,0.5V110.5z
		 M149.9,108.6l-0.1,0.3l0.8,0.9l1.2,0.7l0.1,0.5l-0.4,0.1l-0.2,0.7l-2.1-1.4l0.2-0.8l-0.6-0.6l0.1-0.3l0.3,0.2l0.4-0.2v-0.5
		L149.9,108.6z M141.8,107.5l-0.1,0.2l-0.4-0.1l-0.1,0.8l1.1,1.8l-0.9,0l-1.4-0.8l0.3-1.4l0.7-0.2l0.3-0.6L141.8,107.5z
		 M154.6,107.4l-0.2,1.9l-0.7,0.1l0,0.9l-0.8-0.2l-0.2,0.2l-2.1-0.9l-0.3-1.3l0.4-0.1l-0.1,0.6l0.4,0l-0.3-1.1l1.2,0.1l0.2-0.8
		l0.4-0.1l0.9,0.8l0.2-0.2l-0.2-0.5l0.6-0.2L154.6,107.4z M162.1,106.9l0.1,0.7l0.7,0.4l0.5,1.2l-0.2,1.2l0.3,1l-0.3,0.3l0.9,0.1
		l-0.9,1.5l-1.5-0.2l-1.3-0.9l-0.9-0.1l0.7-0.3l-0.9-1.2l0.2-0.3l0.6,0.1l-0.2-0.4l0.4-0.5l-0.4-0.4l-0.8,0.4l-0.1,0.7l-0.7-0.5
		l-0.4,0.5l-1.2-0.1l-0.6-0.9l-0.1-0.4l0.5-0.8l1.5-0.2l-0.3-0.8l0.4-0.2l0.7,0.2l0.5-0.3l1.8,0.5l1.2-1L162.1,106.9z"/>
	<path id="ID-KS" class="st0" d="M366.4,189.6l-0.2,0.2l-1.1-1.8l0.6-1.6l1.1-1.1l0.2,1L366.4,189.6z M361.7,196.5l-0.6,0.2
		l-0.6-0.3l0.5-2.1l-0.1-1.8l-0.9-1.2l-0.2-1.5l1.9-5.6l2.5-1.8l0.3,0.4l-0.4,2.3l0.3,2.6l0.8,4l-0.2,2.4L361.7,196.5z M355.4,149.6
		l-0.2,1l-1.1,1.3l-0.2-0.1l0.1-0.8l-0.3-0.1l-2,2.3l0.2,0.4l1.2-0.1l0.3,0.4l-0.1,0.7l0.9,0.9l0,0.8l0.9,1.3l0.1,1.9l-0.4,1.4
		l0.3,0.7l-0.2,0.6l0.5,0.2l0.5-0.1l0.8,0.5l-0.4,0.6l-0.2,1.5l0.7,1.7l0,1l0.3,0.5l2.3-1.6l0.9,0.6l2.7,0.1l1.3,0.4l2.7,0l2.4,0.9
		l0,0l-0.4,1.9l-0.5,0.7l-0.4,0l-0.3-0.8l-0.8-0.4l-2,0.4l0,1.6l1,0.9l0.2,3.1l-0.3,0.9l-1.4,1.8l-0.7,0.2l-0.5-1.6l-1-1.6l-0.3-0.1
		l-0.4,1.7l0.2,0.9l1.5,1.9l0.1,1l-0.8,0.4l-1.2,1.7l-1.5,2.9l-0.6,2.9l-2.4,0.5l-1.8,1.5l-14,5.6l-3.8,2.3l-1.2,0.2l-0.5-1
		l-0.1-8.1l-2.1-2.7l-0.7,0.1l-1.5-0.9l0,0v-0.9l0.8-2.4l1.5-2.3l0.4-2.3l1.5-3l1.4-0.6l0.2-0.9l1.2-0.2l0.5-0.6l0.3-1.8l1.2-1.3
		l0.2-0.9l0.6,0l5.9-4.3l0.7,0.2l0.6-2.1l-0.7-1.9l1-0.7l0.2-0.8l-0.7-0.9l-0.1-0.8l1.6-6.1l2-0.3l2.2-1l0.5,0.1l1-0.8l0,0
		L355.4,149.6z"/>
	<path id="ID-KT" class="st0" d="M268.6,178.6l0.7-1.2l2-0.9l1.2-0.2l0.6-0.5l0.1-0.6l2.4-0.8l0.5-0.9L276,173l-0.8-0.3l0.3-0.8
		l-0.6-3.4l-0.5-1.8l-0.7-1.1l0.8-1.2l-0.6-1.5l0.7-0.6l0.1-0.8l-1.5-0.1l-0.5-0.6l0.4-0.8l-0.3-0.4l0-0.6l0.6-1.2l-0.1-1.2
		l-0.5-0.7l-1.1,0.9l-0.4-0.6l-0.4-0.1l0-0.8l2.1-1.6l0.5,0.4l0.8-0.4l0.4,0.4l0.8-0.2l-0.3-0.8l0.8-0.5l0.6,0.8l0-1.4l0.4,0.1
		l0.1-0.5l1.1,0.2l0.8-1.4l0.6-0.3l0.4-0.8h0.3l0.1-0.5l2.8-0.7l0.1-0.3l-0.3-0.3l0.3-0.5l-0.3-0.6l0.3-0.5l0.9-0.6l-0.2-0.7
		l0.3-0.4l0.6,0l1.9-1.1l1,0.1l0.8-0.9l0.7,0.1l-0.3-0.8l0.1-0.9l0.9,0.7l1.2-0.3l-0.2-1.4l0.2-0.2l2.2,0.4l-0.1-0.8l0.8-1.1
		l0.9,0.3l1,1.7l0.4-0.4l0.4,0.2l1.3-0.8l0.4,0.1l0,0.6l0.4,0.3l0.3-0.7l0.8,0.2l1-0.3l0.6-0.6l0.9,0l0.2-0.4l0.7,0l0.1-0.9l1.9-0.1
		l0.7-0.6l1.8-0.7l1.3,0.1l1.4-0.9l0.1,0.4l0.5,0l0.6,0.6l0.8-1.3l-0.2-0.8l-0.8-0.7l1.4-1.8l0.9-0.2l0.8-1.1l0.4-0.1l0.1-0.3
		l-0.3-0.2l0.4-0.3l0.4-0.8L315,128l0.4-1.2l-0.5-0.6l0.2-1.3l-1.6-0.8l-1-1.2l1.4-0.6l1.4,0.2l0.9-0.6l1.7-1.8l1.3-0.8l0.3-1.1
		l1.1-0.4l1.1-1.3l0.2-0.7l0.5-0.3l0,0l0.9,0.3l3.7-1l0.7,0.4l0.3,1l-0.3,0.5l0.6,0.3l0.1,0.4h2l1.9,0.7l0.2-0.1l-0.1-0.7l0.7-0.5
		l1,0l0.2-1l0.8,0l1.4-1.3l0.9,0l0.8-0.6l0.9-0.2l1.2,0.9l-0.3-0.7l0.8-0.8l1,0.5l0.7,2.3l1.6,2.7l0.7,0.6l-0.1,0.7l-1.5,1.5
		l-0.5-0.5l-1,0.2l-0.4-0.3l-0.7,0.4L340,123l-0.6,0.3l-0.4,0.8l-0.3,1.3l0.3,0.5l0.6-0.1l0.9,0.6l0.7,3.9l1-0.2l0.9,0.2l0.8-0.7
		l0.9-0.2l0.3-0.7l2.4-1.2l0.4,1.1l-0.9,0.8v0.7l-0.6,0.9l0.2,0.9l-0.4,0.1l0.2,1.5l0.4,0.1l-0.2,1.1l0.9,0.8l0.4,1l0.5,0.4l0.2,3.1
		l0.4,1l1.7,0.3l1.4,1.7l1.3,0.8l0.4,1.2l0.4,0l0.7,0.6l0.2,0.7l0.2,0.1l0.7-0.4l0.8,0.7l-1.4,1.4l-0.2,1.3l0,0L355,150l0,0l-1,0.8
		l-0.5-0.1l-2.2,1l-2,0.3l-1.6,6.1l0.1,0.8l0.7,0.9l-0.2,0.8l-1,0.7l0.7,1.9l-0.6,2.1l-0.7-0.2l-5.9,4.3l-0.6,0l-0.2,1l-1.2,1.3
		l-0.3,1.8l-0.5,0.6l-1.2,0.2l-0.2,0.8l-1.3,0.6l-1.5,3l-0.4,2.3l-1.5,2.3l-0.8,2.4v0.9l0,0l-2.4-1.1l-1.9-0.5l-1.2,0.1l-3.6,1.7
		l-2.6,0.2l-1.1-0.6l0.5-1.6l0.1-1.6l-0.6-1.4l-2.3,0.1l-0.6,1.1l-1.3,0.3l-2.1-1.3l-3.1-3.3l-0.5-0.1l-1.5,1.6l-0.1,0.6l0.4,0.6
		l-0.3,1l-3.3,2l-1.9,1.6l-2.1,0.5l-2-1.6l-1.9-0.7l-1,0l-1.4,0.6l-3.7,3.5l-1,0.4l-1.4-0.6l0.6-2.3l-0.5-3.7l0.2-2.6l-1.4-2.4
		l-0.4-1.6l-0.5-0.1l0.1,0.8l-0.6,0.8l0.4,0.4l-0.1,0.4l-0.9,0.2l-1.5,1.1l-1.1-1.3l-1.2-0.6h-1.5l-4.3,2.3l-2.5,0.5l-2.2-1.5
		L268.6,178.6z"/>
	<path id="ID-KU" class="st0" d="M388.4,70.7l-0.6,0.4l-1.3-1l-0.5-1.2l0.2-0.6l1.5-0.1l0.8,0.2L388.4,70.7z M383.7,65.9l2.2,1.5
		l-0.5,0.5l-1.7-0.7l-1.9-0.1l-1-0.8l0.1-0.4l0.9-0.4L383.7,65.9z M389.4,58.5l-0.8,0.3l-1.2-0.9l-0.1-1.1l0.8-0.8l0.5,0l1.2,1
		l0.1,0.5L389.4,58.5z M392.2,55.2l0.4,0.2l0.4,2l-1.1,0.5l-4.1-3.1l1-1l0.5,0l1,0.3l0.8,0.8L392.2,55.2z M354.2,56.6l0.4-1.6l0.4,0
		l0.8-0.9l0.5,0.4l0.4-0.1l0.1-0.6l0.7-0.6l0-1.5l0.5-0.2l0.3,0.6l1.5,0.3l1,1.2l0.6-0.9l0.9-0.3l0.3-0.8l1.7,0.4l1.5-0.3l1.2,1
		l0.2,0.6l0.6-0.1l0.2-0.5l0.8,0.1l0-0.6l0.5-0.7l0.8,0.6l0.2,0.6l1.6-0.2l0.5-0.7l0.8,0.7l0.7,0.2l1.2-0.6l2,0.8l0.3-0.4l2.4,0.1
		l1.2-0.6l3,2.2l0.6,1l1.2,0.3l0.9-0.3l0.2,0.2l0,0l-1.7,0.8l-1.6-0.5l-0.2,0.7l1.4,0.5l2.6,2.2l-1.8,0.3l1.7,1l1.6,0.2l1.3,1.3
		l-0.2,0.9l1.1,0.3l-0.1,0.3l-1.2,1.1l-1.1,0.2l-3.2,0.2l-2.7-0.4l-1.8,0.3l-0.9,0.9l0,0.4l0.6,0.9l1.5,0.9l1.3-0.2l0.8,0.2
		l-0.3,1.4l1.8,0.9l-0.2,0.3l-2.1,0.5l-0.3,0.5l-1,0.2l-0.2,0.3l2.5,0.7l2.7,1.2l1.2,2.1l-0.3,2.9l1.8,0.7L391,82l2.8,2.7l0,0
		l-0.7,0.6l-1.3,0.2l-1.3,0.8l-0.4-0.1l-1.4-0.5l-1.6-1.7l-1.1,0.3l-1.8-0.7l-0.6-0.5l-0.5-1.1l-2.5,0.4l-2.7-0.3l-2,1.2l-2.3,0.8
		l-1.8,1.1l-1,0.3l-1.3-0.3l-0.3-0.7l-1.3-0.9l-0.5,0.1l-0.6,1.6l-1.2,1.6l-0.4,3.7l-2.5,2.2l0.2,1.8l-1.3,2.4l-2.5,2.9l-0.6,1.2
		l-1,0.9l-2.3,0.1l-2.3,0.9l-2-0.1l-0.4,0.4l-0.3,1.6l-1.3,1.2l-1-0.2l-0.8,0.9l-2.7-0.4l-0.9,1l-1.1-0.3l-0.9-1.5l-0.5-0.2
		l-0.7-0.1l-0.8,0.5l-0.4-1.3l-0.8-0.9l-1.6-0.5l-1.7-1.4l0,0l0.5-0.8l-0.1-1.1l0.8-0.5l0.9-1.2l-0.1-2.3l0.4-0.9l0.6-0.2l0.5,0.2
		l0.5-0.6l1-0.4l-0.4-0.8l0.7-1l-0.5-0.2l-0.8,0.3l0-1.4l-0.5-0.5l0.3-2.1l1.8-0.2l0.8-0.5l-0.3-0.7l0.3-0.6l0.7,0.1l0.9-0.8h0.7
		l0.6-1l1.4-0.2l0.6-0.5l0.1-0.3l-1.2-1.5l-1,0.3l-0.3-0.5l0.4-0.8l-0.2-1l0.6-0.5l0.2-0.8l-0.7-0.6l1-0.8l0.2-1.1l1.6-1.1l0.3-0.8
		l0.6,1.1l1.2-0.1l0.8-0.8l1-0.1l0.3-1.4l0.8-0.7l-0.8-0.9L352,69l0.6-1.3l0.3,0l0.4,0.6l0.4-0.6l-0.6-1l-0.7-2.4l0-1.5l0.7-2.3
		l-1-1l1.3-0.7l0.7-2.1l0,0L354.2,56.6z"/>
	<path id="ID-LA" class="st0" d="M148.3,209.6l0.6-0.1l0.1,0.5l0.4,0l0.4,0.5v0.5l-0.4,0.6l1.1,0.7l0.5-1.2l0.5,0.4l1.6-0.4l1.2,0.6
		l1.5-1l1.9,0.4l0.8-1.3l-0.8-1l-0.1-0.8l-0.5-0.3l0.3-0.8l0.6-0.6l-0.3-2.7l0.6-1.3l1.3-1.1l0.6,0.1l2.5-1.6l0.6,0.6l2.2,0.1
		l1.5-0.2l0.1-0.4l1.1-0.6l1.2-0.2l1-0.9l0.3-1l0.7-0.4l-0.3-0.4l0.4-0.4l0.3-1.1l0.4,0.1l0.1-0.5l0.5-0.3l0.7,0.2l0.7-0.6l0.2-0.5
		l-0.3-0.6l0.9-1.3l0.5,1.2l0.9-0.4l0.3,0.1l0.1,0.7l1.6,0.2l-0.1,0.8l0,0h0.5l0,0l0.4,0.3l-0.1,0.5l0.7,0.1l0.1,0.3h-0.4l0.8,0.9
		l-0.5,0.8l0.9-0.1l-0.2,0.6h0.6l0.4,0.9l0.8,0.1l0.6-0.5l0.8,0.8l0,0l-0.2,2.7l1.5,2.7v1.2l-0.3,0.8l0.5,0.8l-0.6,1.2l-0.4,1.9
		l0.8,1.9l-0.5,0.5l-0.3,1.2l0.1,3.6l-0.8,1.4l-0.1,3.8l0.2,0.7l-0.6,2.1l0.1,1.2l-0.4,1.1l-1.1,1.2l-0.2-1l-2-0.5l-0.1-1.6
		l-0.6-0.6h-0.5l-1.6-1l-0.8-0.8l-1.4-2.4l-0.3-0.1l-0.5,0.5l-0.1,2l-0.7-0.2l-0.6,0.4l0.4,0.8l0.3,0l-0.5,0.3l0.6,0.9l-0.7,0.1
		l-0.4,0.4l0.3,0.5l0.8-0.1l-0.5,0.5l-0.6,0.1l-3.4-1.6l-3-1.9l-1.5-1.5l-1.6-0.3l-0.9,0.4l-0.5,0.4l2.2,2.8l-0.2,0.5l1.2,1.8
		l0.3,1.5l-0.1,0.2l-2.5,0.1l-0.4-0.4l0.3-0.2l-0.2-0.7l-2.1-1.9l-0.4-0.7l-2-1.2l0.3-0.5l-0.9-1.1l-3-2.1l-1.5-1.7l-0.1-1l-1.6-0.6
		l0-0.4l0.5-0.6l-0.6-0.9l-0.6-0.2l-1.5-1.4l-0.7,0.1l0.1-0.7l-0.8-0.7l-0.7,0l-1.2-0.7l0,0l0.2-0.5l1.8-1.1l0.1-0.5l0.9-0.1l0,0
		L148.3,209.6z"/>
	<path id="ID-MA" class="st0" d="M584.8,269.7l-1.6-0.1l-1.5-0.7l-0.2-0.3l1-0.4l1.4,0.1l1,0.5l0.1,0.5L584.8,269.7z M564.5,266.8
		l1.8,0.6h2.6l0.5,0.5l-1.8,1.7l-3.8-1.4l-0.7-1.3L564.5,266.8z M615.8,271.1l-0.7,0l0-0.2l1.6-1.7l1.2-0.7l1.5-2l2.8,0.7l-0.6,0.6
		l-3.2,1.2l-1.1,0.8l-0.2,0.4L615.8,271.1z M597.8,266.1l-1.3-0.3l-1.9-2.3l0-1.1l0.4-0.7l1.6-0.2l2.4,0.9l0.3,1.4L597.8,266.1z
		 M545.1,259.3l0.8,0l0.4,1.3l-1.4,0.1l-1.7,0.5l-1.9,1.8l-1.5,0.8l-6.2-0.8l-2.3,0.5l-2.2,1.8l-0.5-0.2l0.7-2.7l2.8-3.4l3.7,1.1
		l2.7-0.5l1.2-1.1l3.6-1.2l0.3,0.8L545.1,259.3z M556.8,259l-0.6,0.1l-0.2-0.4l0.4-2l0.4-0.2l1.7,0.6l0.1,0.3l-0.1,0.7L556.8,259z
		 M620.4,256.6l-1.3-0.4l-0.2-0.5l0.3-0.5l3.1-0.3L620.4,256.6z M631.9,251.3l-1.1,0.2l-0.6,0.5l0.7,4l-0.8,2.6l-1,1.3l-3,2.2
		l-1,1.6l-0.3,1.6l-0.5,0.2L621,265l-0.4-2.3l1.8-3.1l-0.2-0.5l1-2.9l2.6-2.1l1.2-1.5l1.4-2.4l0.8-0.4l1.3-0.1l1,0.5L631.9,251.3z
		 M635.2,249.6l1,2l-0.5,0.6l-0.8-0.6l-0.4-0.9l-1-0.2l-1.2,0.3l-0.7-0.3l0.4-0.7L635.2,249.6z M578.6,251.3l-0.5,0.2l-1.5-0.9
		l-0.2-0.6l1.5-1.1l1.4,0.8L578.6,251.3z M686.6,236.5l-1.7,3.7l-0.7-0.2l0.4,1.4l-0.7,0.2l-0.8,1.7l-0.8,0.5l-0.6-0.4l0.1-0.5
		l0.5-0.5l0.8-2.2l-0.5-0.3l-0.2-1.4l1.4-0.7l0.1-1l0.7-0.3l1.3-1.3l0.8,0.3L686.6,236.5z M649.8,229.3l-0.6,0.2l-1.3-0.7l-0.2-3.4
		l-0.4-1.7l1.1-0.3l1.8,3.4v1.1L649.8,229.3z M683.7,224.9l0.5,2.1l-0.6,0.1v0.3l1.3,0.7l0,0.3l-0.6,0.4l-0.8-0.3l0.4,1.4l-0.6,0.1
		l-0.6-0.5l-0.2,0.4l2,1.9l-0.7,3.2l-0.7,1.1l-2,0.8l0.4,1l0.5,0.3l-0.1,0.5l-1.1,1l-0.9-0.3l-0.3,0.2l-0.2,0.6l0.1,0.3l0.5-0.2
		l0,0.5l-0.6,1l-2,2l0,0.7l-0.5,0.6l-2.3,1.2l-0.5-0.1l-0.4-0.9l-0.3-0.3h-0.7l-0.8-1.3l0.6-2.1l0.2-3.1l0.6-2.2l-0.6-3.3l0.7-0.1
		l-0.4-1.2l0.2-1.1l0.4-0.4l0.2,0.5l1.3-0.3l0.3,0.8l0.8-0.6l0.5-1.3l-0.5-0.8l1.4-2l-0.4-0.4l-0.5,0.3l-0.7-0.6l-0.8-0.1l-0.5-0.5
		l0.1-0.3l0.6-0.7l1.4,0.7l1.3-1l0.6-1.6l0.8-0.5l0-1.9l0.9-1.2l0.6-0.2l1.8,2.3l0.5,1l0,1.1l0.8,1.1l-0.1,0.5L683.7,224.9z
		 M653,228.1l-2,2.3l1.6-5.3l0.9-1.2l2.2-5.6l1-0.1l0.3,0.7l-1.3,4.4l-1.4,1.1l-1.2,1.6l-0.3,1L653,228.1z M576.3,189.3l-2.1,0.4
		l0.1-1.7l0.5-0.4l1.2,0.1l0.9,0.9L576.3,189.3z M578,187.7l0.8,0.3l0.4-0.6l0.3,0l0.3,2l-1.7,0.1l-1.2-2l0.5-0.2L578,187.7z
		 M573,189.5l-0.6,1.2l-1,0.8l-2.1,0.6l-0.4,0l2-2.2l-0.3-0.1L567,192l-0.8-0.1l-0.4-0.5l0-0.8l0.9-1l1.1-0.7l2.7-0.5l0.8-0.9
		l0.7-0.3l1.3,0.7L573,189.5z M560.9,185l-1.9-0.6l-0.7-0.7l0.8-0.6l0.8,0.1l1.4,1.5L560.9,185z M563.3,183.1l-1.7,0l-0.6-0.5
		l1.2-1.1l0.8-0.1l0.6,0.5l0,1.1L563.3,183.1z M549.8,181.2l1.9,1.2l0.2,1l-1-0.1l-0.2,0.4l0.2,0.7l0.8,0.7l0.8-0.5l2,0.7l-0.4,4.1
		l-0.3,0.6l-1.9,0.2l-4.1,2l-3,0.9l-5.4-2.1l-2.4-1.6l-3.4-3.2l-0.5-1.3l-0.1-2.9l0.3-0.6l1.2-0.8l0.4,0.1l1,1.1l0.6,0l1.2-1.1
		l2.3-0.6l5.5-0.2l1.5,0.3L549.8,181.2z M598.3,177.1l3.9,1.5l5.5-0.3l0.7,0.2l3.7,2.6l0.7,1.8l0.3,2.3l0.5,0.5l2,0.2l0.6,0.6
		l0.8,2.4l-0.1,0.6l-0.6,0.9l-0.1,3.4l-3.7-1.4l-1-1.1l-2.8-1.6l-4.6-1.5l-2.5-1.3l-0.6-0.7l0-0.9l-1.2-0.8l-6.4-0.6l-0.3,0.3
		l0.1,0.5l0.9,1.4l-0.2,0.6l-0.5,0.1l-4.7-1l-2.4-1.1l-2.9,0.1l-0.3-0.3l0.8-1l0-0.7l-0.7-0.5l-0.9-0.1l-1.9,1.2l-2.7,2.7l-2.5,0.4
		l-1.1-0.7l-1.8-2.6l-1.5-1l-0.6-2.4l-0.7,0l-0.8,0.8l-0.6,1.5l-0.3,2.2l-0.5,0.6l-0.4,0.1l-0.9,1.7l-0.3,1.4l-0.2-0.2l-0.2-1
		l0.5-1.1l0.1-1.2l-0.9-1.4l-0.5-1.4l2.2-1.7l3.3-4l11.8,0.1l2.1-0.5l0.9-0.7l0.4,0l0.5,0.6l0,1.4l1.1,0.9l1.4-0.3l2.3-1.5l0.5-1
		l2.6-0.4l4.2,1.6L598.3,177.1z"/>
	<path id="ID-MU" class="st0" d="M533.9,169.7l-0.5,0.1l-1-0.9l-0.6-2.4l-0.9-1.3l-0.6-2.5l0.4-1.1l0.6-0.6l0.6,0.1l0.8,0.7
		l-0.5,2.5l2,4.5L533.9,169.7z M522.9,158.2l3.8,0.3l1.8-0.5l3.9-0.1l6.2,0.5l-0.2,0.4l-1.4,0.6l-13.6,1.1l-2.2-1.2l0-0.8l0.6-0.7
		l0.6-0.1L522.9,158.2z M514.6,156.3l1,0.3l1.8-0.5l3,0.7l0.5,1l0,1.7l-2.8-0.2l-1.8,0.3l-1,0.9l-2.5-0.8l-4.9,1.8l-2.9,0.2
		l-1.3-2.3l0-1.1l0.7-2.1l0.5-0.6l2.3-0.5l1.8,0L514.6,156.3z M565.2,151.6l4.5,2.8l0.3,0.9l-0.4,0.8l-1.4,0.5l-6.1-0.5l-1.1,0.7
		l-1.7,0.2l-1.9-0.9l-0.9-1l0.8-3.3l0.3-0.3l0.3,0.2l2.9-1.8l1.6,0.3L565.2,151.6z M560.6,148.7l-2.1,0.2l-0.7-0.6l1.6-1l1.8,0.7
		L560.6,148.7z M555.5,140.8l-0.7,0.2l-2-0.5l-0.1-0.7l0.8-2.1l0.9,0L555.5,140.8z M559.8,132.6l1.9,2.5l-0.3,0.9l-1.1,1.5l0.8,1.6
		l0.5,0.3l1.9-0.6l1.1,0.5l0.8,1l-0.1,0.5l-1.3,1.1l-1.1,0.3l-1.4-0.6l-1.2-1.5l-2.1,0.9l-0.4-0.1l-1-3.3l-1.7-1.8l-0.2-1l0.5-2
		l0.9-0.2l0.7,0.6l1.2-0.3l0.9-0.7L559.8,132.6z M553.1,136.2l-1.2-0.1l-0.2-0.4l0-3.5l0.7-0.5l1.6-0.2l0.4,0.5l0.4,1.7l-0.5,2
		L553.1,136.2z M565,96.1l1.2,0.2l1,0.9l0.7,3.8l-0.8,3l-1.4,2.5l-4.4,3.2l-0.4,0.6l0,1l0.4,0.7l2.4,1.5l0.9-0.1l1.3-0.9l0.2-2.3
		l0.8-1.3l1.1-0.8l1.7,0l0.6-0.3l0.5-1l-0.2-0.5l-0.8-0.3l-0.2-0.8l1-1.6l3.2-2.2l1.2-0.5l3.2-0.7l1.7,0.3l-0.5,7.8l-0.6,0.7
		l-3.8,2.2l-2.5,0.7l-1.5,1.5l0,0.4l0.4,0.8l1.9,1.4l4.1,1.5l1.5,0.1l0.3,2.5L579,121l0.7,0.5l1.9,0.5l0.8,0.6l0.5,1l-1.6-0.9
		l-4.7-1.1l-1.6-1.3l-3,0.2l-1.1-0.3l-0.9-0.8l-1.5-0.3l-2-0.2l-0.6,0.4l-0.7,2.7l0.5,0.4l0.3,2.4l-0.7,1.1l0,1.3l2.6,6.8l3,5.1
		l3.3,3.2l-2.6-0.3l-0.4-0.4l0.1-0.4l-1.7-1.3l-2-1.1l-2.8-5.4l-2.4-1.4l-1-1.5l0.6-4.8l-0.2-2.2l-0.5-2.5l-1.5-1.2l-0.8-3.3l0.4-2
		l0.7-0.8l0.5-1.1l-0.1-0.5l-1.8-0.6l-0.2-0.3l0.3-1l-0.5-1.6l-1.4,0.3l-0.1-0.4l0.1-2.6l2.2-3.9l0-1.4l0.8-3.8l2.1-3.2l3.8-4
		l0.7-0.6l1.8,0l-0.2,1.1l-1.6,2.4l-1.6,1.2l-0.1,1.6L565,96.1z M575.9,91.9l-1.9,0.1l-1.9,0.5l-0.5-1.4l-0.2-3.5l2-3.1l1.5-1.5
		l2.2-1.1l2.1,2.6l0.2,0.8L578,89l-0.9,1.6L575.9,91.9z"/>
	<path id="ID-NB" class="st0" d="M416.3,272l0.1,0.3l0.7-0.3l0.2,0.5l-0.3,0.4l-0.3-0.2l-0.1,0.3l-0.3-0.1l-0.1-1L416.3,272z
		 M372.2,271.4l-0.2,1.4l-0.6,0.5L371,275l-2.6,3.9l-0.1,0.6l1.5,0.5l-0.5,0.6l-2,0.3l0.5-1.5l-0.9,0.2l-0.4,0.4v1.6l-0.4,0
		l-0.2-0.4l-1.2-0.4l-2.2,0.1l-0.1-0.8l-0.3,0l-1.1,0.4l-0.9-0.2l-0.4,0.5l-1.1-1.1l-1.5-0.1l-0.4-0.4l-0.2-0.6l0.4-0.8l0.4-0.1
		l0.1,0.4l1.1,0.4l0.6-0.6l0.9,0.2l0.9-0.6l0.1-3.2l-0.5-0.5l-0.2-0.8l0.5-0.6l0.8-0.5l0.1-0.5l0.3,0.1l1-0.6l1.4-1.5l1.6-0.6
		l1.1,0.1l3.6,1.1L372.2,271.4z M387.2,267.7l1.1-0.1l0.5,0.5l-1.3,0.9l-1.5,2.8l-1-0.6l0.6-1.2l-0.4-0.4l0-1.2l1.3-0.8L387.2,267.7
		z M412.8,269.5h-0.7l-0.5-0.4l0-0.9l0.8-0.9l0.8,0.1l0.5,0.9l-0.3,0.7L412.8,269.5z M393.5,266.8h2l1.3,0.5l0.4,1.9l0.8,0.6l0.4,1
		l1.2,0.6l1.4-0.5l0.3-0.6l1.1-0.9l3.4,0.8l0.6,1.4l-0.5,2.6l0.6-0.2l0.2-0.4l-0.1-1.6l0.5-0.9l1.4-1.1l3.2,0.5l-0.1,1.1l1,1.4l0,1
		l-0.5,0.2l-0.1,0.6l0.4,0.6l0,0.8l0.7,0.2l1-0.4l-0.4-0.6l0.6-0.1l0.4-0.5l0.3,0.5l-0.5,1.1l0.1,1.1l-0.6,0.5l-1.6-0.3l-1.2,0.2
		l-1.1-1l-0.9,0.6l-1.6-0.4l-1,1l0.5,0.2l2.8,0l0.8,0.5l0.2,0.5l-0.4,0.3l-1.4,0.2l-2.1-0.8l-4.5,1.5l-1.2-0.5l-0.3-0.7l0.1-0.6
		l0.6-0.8l0.2-1l-0.6-0.9v1.1l-0.7,0.1l-0.4,0.6l-0.6,0.3l-0.1,0.5l-0.5,0.1l-1.4,1.4l-0.9,0.4l-0.8-0.6l-1.3,0.3l-0.3,0.6l-1.9,0.9
		l-0.6-0.2l-0.2-0.5l-0.8,0.5l-1.1-0.2l-2.9,1.5l-2.4,0.8l-1.3,0.1l-1.6-0.5l-1,0l-1,1l-1.7,0.4l-1-0.4l-0.3-0.4l-0.6-0.1l-0.4,0.2
		l-2.7-1.2l-0.3-0.5l0.3-1.8l0.5-0.3l-0.1-0.4l0.8-0.1l-0.8-1.5l0.3-0.2l-0.4-1l0.7-1.4l0.6-0.3l-0.2-0.8l0.5,0.3l1.6-0.2l3.5-2.6
		l4.5,1.8l0.6-0.9l2.2-0.2l1.1,0.8l0.6,0l0.3,1l-0.9,0.6l0.6,0.5l0.9-0.1l-0.3-1.3l0.4-0.1l0.4,1l0.5,0l0,0.5l-0.8,0.1l0.3,0.4
		l-0.1,0.6l0.6,1.7l1.5-0.3l1.6,0.5l1.5-1.2l1.4-0.3l1,0.4l1.6-0.6l-0.2-0.8l-0.5-0.5l-0.6-0.1l-0.1,0.2l-2.1-2.1l-1.7,0.2l-2.9-1.9
		l-1.7-1.9l-0.2-0.4l0.3-1l1.1-0.8l0.7,0l1.7-0.8L393.5,266.8z"/>
	<path id="ID-NT" class="st0" d="M487.5,308.5l0.8,0.1l-1.5,1.5l1.1,0.3l0.2,0.8l-0.5,0.6l-0.9,0l-1.6,0.9l-0.5,1.6l-0.6,0.1
		l-0.9-0.4l-0.9,0.8l-1.8,0.1l-0.6,0.4l0.3,0.3l-0.3,0.5l-1-0.4l-0.6,0.1l-0.1,0.4l-0.5-0.3l0-1.3l-0.5-0.9l0.1-0.4l2.1-0.7l0.7,0.1
		l1.1-0.3l1.4-1.4l1-0.3l0.2-0.6l0.4,0l-0.1-0.4l0.8-0.9l1.7-0.8l0.2-0.8l0.6,0.6L487.5,308.5z M462.7,307.5l0.9,0.3l-0.2,1.3
		l-2.2,1.6l-2.1-0.1l-1.1-0.7l2.6-1.5l0.2-0.8l0.4-0.2l0.7-0.2L462.7,307.5z M488.9,302.7l0.5-0.1l0.1,0.5l-0.8,0.3l-0.5,0.6
		l-0.2-0.4l-0.4,0l0.4,0.9l0,0.6l-0.4-0.1l0.3,0.4l-0.1,0.4l-0.4,0l-0.3-0.5l-0.8,0.6l-0.3-1.2l1-0.9l0.7-1.5l1-0.4L488.9,302.7z
		 M429.2,289.2l1.3,1.5l1.8,0l0.5,1.1l0.1,1.2l0.4,0.5l0.7,0l0.6,0.5l2.4-0.8l0.5,1l1.7,0.9l1.5,3.1l2.1,1l0.5,0.7l0.3,1.1l-0.2,0.8
		l-1.2,0.7l-0.6,0.9l-0.9,0.6l-1,0.4l-1.5-0.1l-0.9,0.5l-0.3,0.6l-1.1-0.4l-0.6-0.5l-2.6,0l-1.1-0.5l-1.9-1.7l-0.4-0.1l-0.2-1.1
		l-1-1.2l-1.2-0.5l0-0.5l-1.5-0.1l-1.5-1.3l-0.5-1l-0.7,0.2l-0.7-0.6l-2-0.5l-0.9,0.4l-0.3,0.5l-1-0.5l-0.4,0.1l-0.2-0.4l-2.1,0
		l-2.5-1.1l-2-2.4l1.2-1.6l3.2-1.4l0.5,0.4l1.5-0.6l0.8,0.3l2-0.3l1.3,0.3l0.8-0.5l1,0l0.7,0.5l1.9,0.4l2.5-2.2L429.2,289.2z
		 M514.3,281.7l0.2,0.1l-0.3,1.2l0.8,0.6l1.7-0.7l0.6-1l1.3,1l-0.1,2.5l-0.7,0.1l-0.7,0.5l-0.7-0.6l-1,0l-0.3,0.6l0.2,1.5l1,0.7
		l0.7,2.3l0,0l-1.7,1.5l-0.2,1.6l-0.5,0.6l-1.6,0.9l-2.1,2.9l-3.4,2.1l-0.6,1.4l-1.4,1.1l-1,0.3l-3.9-0.2l-2.2,2l-1,0.1l-2.7,1.2
		l-1.7,0.2l-0.8-0.2l-0.7,0.4l-1.2-0.7l-1.4,0.5l0.6-1.5l-0.1-0.7l0.6-0.2l0.1-0.7l3.6-1.4l0.5-0.9l-1.2-0.6l-0.9,0l-0.6,0.5
		l-0.4-0.3l0-1.8l1.4-1l0.1-1.1l-0.5-0.7l0.7-0.6l-0.2-1.8l1.2-1.2l0.8-0.3l0.5-0.9l1.3-0.6l0.3-0.6l0.5-0.2l1-1.3l0.9-0.1l0,0
		l0.9,1.2l0.5,0l0.3,0.3l1.5-1l0.8,0.8l0.2,0.6l-0.1,0.9l1.2-0.3l0.2-0.5l-0.2-0.5l0.5-0.7l0-0.5l1-0.4l0.4-0.6l-0.1-0.6l0.4-1.6
		l0,0l1.3,0l0.9-0.3l1.5-1.2l0.1-0.6l0.8-0.1l1-0.7L514.3,281.7z M425.3,279.3l-0.4,0l0.2-0.5l0.2,0.1L425.3,279.3z M423,279.1
		l-0.5-0.2l0.4-0.2L423,279.1z M422,276.4l-0.7,0.1l-0.1,0.3l-0.3-0.1l1.1-0.7L422,276.4z M422.7,275.6l0.3,0l0.2,1.3l0.6-0.2
		l-0.3-0.6l0.4,0.1l0.2-0.5l1.2,0.1l-0.1,0.6l-0.4,0.1l-0.3,0.5l-0.4-0.2l-0.2,0.4l-0.1,0.4l0.6,0.5l-0.6,1l-0.3,0l-0.3-0.6
		l-0.7,0.3l-0.2-0.7l0.3-0.9l0.6,0l-0.1-0.5l-0.4,0.1l0.2-0.5l-0.4-0.8H422.7z M470,272.5l0.8,0.3l-0.6,0.9l-0.9-0.6l0-0.5
		L470,272.5z M419.7,272.9l0.2,0.6l1.1,0.2l0.4-0.2l0.1,0.9l-0.4-0.3l-0.1,0.2l0.4,1l-0.9,0.1V275l-0.4-0.1l-0.4,0.6l-0.4,0l0.2,0.4
		l0.5-0.1l-0.3,0.6l-0.4-0.1l-0.3,0.5l0.4,0.5l-0.1,0.4l0.4,0.2l-0.5,0.2l-0.6-0.5l-0.5,0.2l0.6-1.4L418,276l0.2-0.5l-0.2-0.2l1-1
		l-0.3-0.4l0.4-0.3l-0.3-0.8l0.5,0.1l0.1-0.4L419.7,272.9z M483.5,272.5l0.1,0.3l-0.3,0.3l-1.3,0.5l-0.8-0.2l-0.7,0.6l-0.8,1.5
		l-0.9,0.2l-0.3-0.5l0.2-1l1.1-0.6l0.5-0.9l0.8,0.2L483.5,272.5z M458.6,270.2l0.4,0.5l-0.1,0.3l-1.2,0l0.3-0.8L458.6,270.2z
		 M484.4,269.2l0.6-0.2l1.6,0.7l-0.5,0.5l0.1,1l-0.3,0.6l-2-0.1l-3,0.4l0-0.7l0.6-1.1l1.9-1.3l0.7,0.1l0.4-0.3L484.4,269.2z
		 M502.6,271.1l-0.8,1l-0.1,1.1l-1.3,1.2l-1.3,0l0.2-0.8l-0.5-1.3l-0.8,0l-0.7,0.7l-0.6-0.2l0.8-1.7l1.6-0.9l0.5,0.3l0,0.7l0.6,0
		l0.8-1.1l0.7-0.4l0.7-1.2l0.4-0.4l0.6,0l0.3,0.6l-0.4,0.8l0.1,1L502.6,271.1z M495.3,268.7l1,0.1l0.4,0.6l-1.5,0.5l-0.6-0.2
		l-0.7,0.3l-1.5,2.4l-0.9-0.4l-1,0.8l-0.1,0.4l0.5,1l-0.5,0.6l-0.6,0l-0.5-0.8l-1.6,1.2l-1.5-1l-0.4,0.4l-0.9-0.1l-0.2,0.2l-0.4-0.3
		l0-0.4l0.4,0l1.3-1.1l0.4-0.9l2.4-1l-0.7-0.8l-1.4,0.1l0.6-0.7l0.5-0.2l0.9,0.3l0.5-0.5l1.2,0l-1,2l0.9,0.3l0.7-0.6l-0.3-0.9h0.5
		l0,0.5l0.6-0.5l-0.5-1.1l0.7-0.1l0.2,0.5l0.7,0.1l0-0.6l1.5-0.9L495.3,268.7z M507,267.1l1.4,0.1l-0.2,1l0.2,0.2l0.8-0.5l1.7-0.3
		l2.8,0.3l0.8-0.4l2.4,0.1l0.7,1.4l0,1.6l-1.3,0.6l-3,0.1l-1.6,0.6l-2.4-0.1l-2,0.9l-0.8-0.4l-1.2,0.7l-0.2-0.4l-0.9,0.1l-0.4-0.7
		l1.1-1.8l2.4-1.2l-0.8,0l-1.6,0.8l-0.1-0.9l1-1.3l0.4-0.4L507,267.1z M479.5,266.9l0.8,0.5l-0.2,1l1,2l-0.7,0.7l-1.2-0.3l-0.6,0.9
		l0.1,1.2l-1.8-0.3l0.1,0.9l0.9,0.9l-0.2,1l-1.7,0.3L476,276l-1-0.2l-1.8,0.7l-0.6,0.7l-2,0.6l-1.3-0.1l-1.1,0.3l-1.4-0.1l-0.4-0.3
		l-1,0l-1.5,1.1l-1.9,0.7l-1,0l-1.4,0.8l-1.9-0.6l-0.3,0.9l-0.2,0.1l-0.3-0.1l0.3-1l-1.1-0.6l-0.7,0.1l-2.5-0.3l-0.4,0.6l0.1,0.9
		l-0.4,0.4l-0.6,0.2l-0.7-0.4l-1.6,0l-2.9,1.2l-1.5-0.5l-0.9-0.8l-0.5-0.9l-0.8,0.2l-0.3,0.8l-0.5,0.1l-1.8-0.5l-0.9-0.9l-3.6,0
		l-1.2,0.6l-0.6,0l-1.1-0.3l-1.1-0.9l-2.2,0.6l-1.3,0l-0.6,0.8l-0.4-0.1l0-0.8l-0.8-0.1l-0.7-0.8l0.1-3.2l1.3-1.2l0.1-0.5l-0.4-0.8
		l0.4,0l0,0.6l0.4,0.2l1.1-0.7l0.5,0.5l0.2-0.4l-0.2-0.4l0.4-0.6l0.8-0.1l0.6,0.6l-0.2,0.4l0.4,0l0.2-1.4l0.6,0.3l0.7-1.2l1.5-0.4
		l1.5,0.2l0.7-0.2l0.3-0.6l0.9,1l0.9-0.3l1.2,0.3l0-0.7l0.8,0.4l0.7,0.9l0.5,0l0.4,0.4l4.2,0l0.1,0.5l0.5,0l0.2,0.8l0.7-0.1l3.6,1.1
		l0.5,0.2l0.8,1.2l1.2,0.6l0.9-0.5l0.8,1l0.5-0.6l0.6-0.2l-0.3-0.6l0.8,0.4l-0.2-0.4l0.3-1l1.1,0.7l0.9-0.3l1.2,0.3l0.8-0.5l1.2,0.3
		l0.8-0.9l-0.1,0.5l1-0.6l0.2,0.1l-0.2,1.5l0.9-0.1l0.3,0.4l0.3-0.2l1,0.5l1.2,1.2l1.1,0.3l1.1-0.5l1.9-0.1l0.8-1l0-0.4l-0.6-0.5
		l0.2-0.3l1.1-0.3l0.6-0.5l0.1-0.5l1.1,0l1.2-0.5l0.5,0.1l0.8-1.1l1.5-0.4l0.4-1.1l0.4-0.3l-0.6-0.3l-1.6,0.3l-0.4,0.7l-1-0.2
		l0.9-1.3v-0.8l0.8-0.2l0.6-0.5L479.5,266.9z"/>
	<path id="ID-PA" class="st0" d="M755.6,272.2l-5.3-0.6l-0.6-0.8l2.8-2.6l1.9-0.4l1.5,3.6L755.6,272.2z M750.7,269.5l-2.6,2.1
		l-2.7,0.8l-1.5-0.6l-6-0.4l-2.8,0.7l-0.5,0.4l-0.5,0.1l-0.2-0.4l1.7-4.7l3.1-5.9l2.5-3.5l3-2.1l2.4-1l4.8-0.9l2.1,0.1l1.2,0.6
		l1.7,2.4l1.3,0.2l0.6,1l-1,2.7l-1.2,1.9l-0.5,2.7l-1.7,1.8l-2,0.4L750.7,269.5z M751.1,243l0.6,0.5l1.3,0.2l0.8,1.2l-1,0.6
		l-0.8-0.3l-1.2-1.5l-0.1-0.5L751.1,243z M710.7,156.1l2.9,0.6l6,0.4l1.7,0.8l-0.4,0.5l-3.2,0.6l-2.5,0.8l-5.6-0.5l-4-1l-1.9-1.1
		l-2.5-0.8l-4.2-0.5l-1.1-1.3l0.9-0.3l1.2,0.4l11.1,0.8L710.7,156.1z M755.2,160.8l1.2,0l2,0.7l12.7,6.2l1.8,0.3l2.5-0.3l1.3-0.6
		l1,0.1l0.9,1.4l1.9,0.9l0.9-0.2l0.1-0.3l1.7,0l2.7,0.4l1.6,0.6l0.5,0.7L787,172l0.5,0.4l1.7-0.5l3.2,0.1v64.1l-0.7,0.1l-0.7,2
		l0.3,0.9l-1.5,2.3l-0.1,0.8l0.2,1.9l0.5,1.2l0.8,0.8l1-0.2l0,38.8l-2.9-1.4l-1.5-1.9l-2.6-2.4l-1.8-3l-7.8-6.3l-1.2-1.3l0-1
		l1.4-1.1l1.5-3.2l-1.6,0.7l-0.2,2.2l-2.2,1l-5.1,0.2l-1.6,0.9l-2.8,0.5l-0.7-0.1l-0.9-0.5l-1-1.4l-2.3,0.9l-1.9,1.4l-0.6,1.3
		l-0.5,0.1l-1.3-2.9l1.2-1.6l0.1-2.2l1.4-0.8l0.2-1.9l0.9-2.2l0.7-0.7l0-0.5l-2.8-1.7l-1.2-2.2l-3.3-1.9l-0.2-0.4l4.7,0l2,0.9
		l2.2-0.2l0.8-1.3l-1,0.7l-2.1,0.2l-3.4-1l-1.7-0.8l-2.9-2.6l-0.3-0.9l0.6-0.5l2.5,0.3l1.1-0.7l1.8-0.2l1.3,0.4l2.1,1.8l1.4-0.1
		l-1.7-0.6l-1.8-1.4l-1.8-0.4l-3.5-1.8l-0.3-1.1l0.7-0.2l-3.9-3.9l-1.3-2.2l-0.8-3.4l-1.2-2.2l0-2l-1.5-0.4l-0.8-0.7l0.4-0.6
		l2.8-1.4l-0.6-0.2l-1.6,0.2l-1,0.6l-1.6,0.2l-0.3-1.8l0.2-3.8l-0.5,0.9l-1.5-0.6l-4.9-3.5l-1.5-0.6l0.3-0.6l-1.3,0L730,215
		l-2.4-2.1l-1,0.4l-3.6-1l-3.1-0.4l-8-4.3l-1.8,0l-3.9-1.6l-1.1-1.3l-0.8-0.3l-3.5,0.1l-5.2-1.1l-3.3,0.5l-6.3-3.1l0,0l1.6-2.4
		l1.1-0.8l1.7-3l2.3-2.8l-8.5-3.1l-6.5-1.9l-3.3-1.4l1.1-2.5l1-1.2l1.6-1l0.2-1.9l1.5-0.8l2.5-2.3l0,0l0.6,2.5l0.5,0.4l1.4-0.6
		l0.4-0.9l0.5,0l-0.1,1.9l-0.5,0.4l-0.2,1.4l1.1,2.1l2,1.5l2.1,0.6l3.7,0.4l2.2-0.4l1.6-1.1l0.2-1l0.6-0.8l1.9-0.7l0.9-0.7l-0.5-0.6
		l0.4-0.5l2.5-1.1l0.5-0.8l0.3-2.7l1.2-1.5l2.7-1.1l1.2-1l1.5-3.6l-0.1-1.4l0.4-0.5l0.9-0.6l1.3-0.1l0.9,0.1l0.2,0.4l1,0.2l2.6,0
		l4.1-2l1.3-0.4l2.1-0.1l0.8-0.8l-0.6-1.8l-0.6-0.3l-0.9-1l0.2-1.2l3.9-1.6l4.5-2.6l4.2-1.5l1.5,0.3l2.2,2l6.1,2.2l4.2,1l1.5,1
		l0.8,1L755.2,160.8z M687,146.7l-1,0l-1.1-1.7l0.2-1l0.5-0.7l0.8-0.1l0.7,0.4l1.1,1.1l-0.1,1l-0.5,0.7L687,146.7z M696.6,138.7
		l3.3,0.3l1.6,1.1l1-0.8l0.5-0.1l3.7,2.9l2.2,3.2l1.2-0.2l2.1,1.1l-2.1,1.4l-1.8,0.4l-1,0l-1.3-0.8l-2.3,0.2l-0.9-0.9l-0.8-3.2
		l0-0.9l-0.6-1.2l-0.5-0.1l-1.8,0.9l-1.8-1.5l-0.7-0.1l0.1,0.5l-0.4-0.2l-1-0.9l-0.6-1.3l0.3-0.5L696.6,138.7z"/>
	<path id="ID-PB" class="st0" d="M663.6,200.2l0.8,0.9l-5-2.2l-0.2-1.1L663.6,200.2z M605.2,162.6l-1.2,0l-3.6-1.1l-3-1.6l-0.3-0.4
		l0.6-0.5l5-2l5.4-1.1l1.4,2.5l0.1,2.6l-0.9,0.6L605.2,162.6z M600.7,147.9l-1.7,0.6l-1.6-0.5l0.4-0.7l1.8-0.5l1.5,0.5L600.7,147.9z
		 M617.4,142.4l0.6,0.8l1.8-0.4l0.7,1l0,1.9l-0.6,2.7l-0.7,1.6l-0.6,0.4l-1.5-0.3l-2-1.7l-1.1-2.1l0.3-0.5l-0.3-0.7l-1-1.1l0.4-0.4
		L617.4,142.4z M617.7,140.7l-0.5,0.8l-1.6,0.7l-2.2,0.5l-3.3,0.1l-1.4,0.3l1.5-1.5l4.2-0.1l1.3-0.3l0.6-0.7h0.8L617.7,140.7z
		 M612.3,136.4l-2.4-0.3l-0.2-1l2.7-1l0.8,0.3l0.6,0.7l-0.5,0.8L612.3,136.4z M663.7,140.1l3,0.1l0.1-0.6l3.9,0.1l2.2,1.8l-1.4,2.3
		l1.7,3.2l1.3,1.2l1.3,2.4l-0.8,0.9l-0.2,2.5l-2.3,2.1l0.6,3.5l0.4,0.9l-0.2,2l0.5,4.6l1.1,1.9l0.5,0.2l1.2,1.1l2.5,6.1l0.5,0
		l0.5-0.5l-0.9-3.6l0.2-1.8l0.9-1l1.8,0.9l0.3,0.9l0.1,4.3l0,0l-2.5,2.3l-1.5,0.8l-0.2,1.9l-1.6,1l-1,1.2l-1.1,2.5l3.3,1.4l6.5,1.9
		l8.5,3.1l-2.3,2.8l-1.7,3l-1.1,0.8l-1.6,2.4l0,0l-1.2-0.5l-2.7-2.2l0.7-3l0.4-0.2l2.5,0.3l1,0.4l0.9-0.7l-5.1-0.4l-1,0.7l-0.3,0.9
		l-1.3,0.3l-1.5-1.9l-1.2-0.3l-0.5,1.6l-0.6,0.3l-2.1-1.3l-0.3-0.7l0.5-1.1l-0.9-1.2l-0.2-0.1l-1.7,0.9l-1.8-0.9l-1.6-2.8l-0.6,0.4
		l0.1,1l-0.4,0.1l-1.2-0.8l-1.2-2.7l1.1-1l-0.2-2.4l0.4-1.4l2.5-1.9l0-1.3l-0.6-0.8l-2.9,3l-0.3,4.7l-1.7,0.9l0.8,1.3l-0.1,0.6
		l-3.2,2.8l0.1,1.2l0.6,0.5l0.2,0.6l-3.7,3.6l-3.3-0.2l-1,1l-1.4-0.3l-1.7-2.8l0.2-0.2l-0.2-0.6l-1.2-3l0.6-1.5l1.8-0.7l0.7-0.7
		l-0.8-1.4l-0.6,0.1l-0.5-0.4l-0.4-1.4l0.3-1.1l-0.9-0.6l-0.6,0.2l-0.2,1l-1-0.3l-1.2-1.6l-0.1-0.9l-0.6-1.2l-1.6-1.2l-3.3-1.8h-1.4
		l-1.9,0.5l-2.1-3.1l3.1-1.6l3.1-0.2l4.4,0.6l2.6,1.7l2.1-1.5l3-4l1.5-0.9l2.4-0.5l1.1,0.5l1.3,1.3l2.1,0.8l1.7-0.5l0.8,0.1l0.5,0.7
		l0,2.3l0.2-0.3l0.2-3.1l0.6,0.1l1.3,2.3l0.1-2l-0.3-0.8l-0.4-0.2l1-1l1.3-0.6l0.7-1l-0.2-2l-0.4,1.1l-1.5,0.5l-0.9-0.8l2.7-1.5
		l-0.2-1.1l-1,0.2l-4,2.1l-3.6,0l-2.4-0.6l-1.7,0.2l-4.1,1.3l-1.1-0.1l-1.4-0.6l-2.2,1l-0.9-0.4l-0.4-1l-0.7-0.6l-2,0.5l-1.1,0.7
		l-1.6,0.1l-2.5-2l-2-1.1l-1.9-3.6l-0.1-1.1l0.8-0.8l-0.2-0.9l-1.3-1.1l-2.8-1l-0.3-0.6l-2-0.9l-5.5-1.8l1,0.9l0,0.4l-0.8,0.6
		l-1.4,0.5l-0.5-0.9L621,152l-1.1,0.1l-1.5-0.9l1.7-2.7l2.1-0.4l1.2-2.1l0.6-3.1l-0.5-1.6l4.5-1.5l1.1,0.5l5.1-1.2l0.8-1.2l3.2-2.7
		l2.8-1.4l2.8-0.7l4.8,0.4l7,2.9l1,0.1l3.5,3L663.7,140.1z M617,127.4l2.8,0.8l1.7,0.2l2.8,1.6l0.4,1.8l-1.2,2l-1.5-0.8l-1.1-0.1
		l-2.2,0.5l-1.8-1.9l-1.5-0.6l-1.8-2.4l-1.3,0.1l0.2,0.8l1.8,1.9l3.3,1.3l0.4,0.7l-0.5,0.8l-1.2,0.6l-1.5,0.2l-0.9-0.6l-0.5-2
		l-1.6,0.4l-0.8,0.7l-0.5-1.9l-1.5,0.4l-1.2-0.1l-2.4-1l0.3-0.2l2.5,0.4l0.8-0.4l-0.5-0.8l-1.1,0l0.1,0.6l-0.8-0.2l-0.3-0.6l0.1-0.6
		l7.2-1.2l0.4,0.3l0.8-0.1l-0.3-0.3l0.6-0.3L617,127.4z M594.1,130.8l-0.3,0.1l-4.3-4.6l0.8,0.3l3.5,2.8l0.4,0.7L594.1,130.8z"/>
	<path id="ID-RI" class="st0" d="M138,118.4l-0.6-0.2l-0.3-0.8l0.5-1.7l1-0.7l1.2,1.2l0.1,1.4l-0.4,0.4L138,118.4z M128.3,110
		l2.4-0.3l2.8,1.7l2,1.7l0.2,0.8l-0.2,1.1l-0.6,0.3l-1.2-1.2l-1.1-0.5l-3.5-0.1l-2.2,0.4l-1.1-0.6l-1.3-1.2l0.5-0.8l1.1-0.3v-0.7
		l-0.5-1.1l0.3-1.4l1.2,0.2l1,1.3l-0.2,0.5L128.3,110z M135.4,109.3l2.2,2.5l0.1,0.5l-0.4,0.4l-1.1,0.1l-2.4-1.7l-3.2-1.6l-1.2,0.1
		l-0.6-0.5l0.9-1.7l1.2-0.2l3,1.2L135.4,109.3z M124.4,111.2h-0.4l-1.5-1.4l-0.8-1.2l-0.7-3.5l0.2-2.1l1.3,0l3.2,3.1l-0.5,2l0.3,2.5
		L124.4,111.2z M126,102.2l0.2,2.9l-0.2,0.3l-3.2-2.8l-3.6-0.8l-1-0.9l-0.9-1.5l1.1-0.3l1.8,0.8l4.7,0.9l0.8,0.4L126,102.2z
		 M110.6,97.7l-1.9-0.3l-0.8-0.7l-0.9-2.5l0.1-1.3l0.2-0.7l0.6-0.5l3.5-1l1,0.5l1.3,1.7l0.1,0.9l-0.8,1l-0.2,1.8l-1.3,1L110.6,97.7z
		 M93.7,90.6l0.8-0.1l1.7,0.7l0.5-0.4l-1.1-0.7l-0.3-0.6l0.1-1.2l0.9-0.6l2.4-0.3l2.5,0.3l-0.1,0.5l0.3,0.8l3.4,2.3l0.7,0.8l0.3,2.2
		l1.4,3.2l2.3,1.1l2.5-0.4l1.2,0.3l4.5,3.8l2,1.1l1.1,3.1l-0.2,1.7l0.4,1.4l3.7,3.7l2.1,1.1l5.5,0l1.2,0.6l2.6,3.1l0,1.2l-8.8,4.6
		l-1.4-1.2l-1,0l1.9,1.3l0.8,0.2l1.2-1.1l4.2-0.8l4.5-2.5l1-1.3l2.3-0.8l1.7,0.6l5,3.8l1.2,4.9l-3.6,0.4l-0.4,1.3l-2.7,1.8l0.5,0.2
		l0.7-0.6l1.3-0.1l-0.3,0.6l1.6,0.2l1.7,0.7l0.9,1.3l-1.5,0.1l-1.7,0.7l-0.4,1.1l-2.6,1.8l-0.4,2.1l1.1,1.4l0,0l-1.2,0.1l-0.8,0.5
		l-0.4-0.3L137,140l-2,0.1l-1.7,2.3l-2.1,1.5l-1.1,1.7l-0.7,0.1l-0.8,0.7l-0.6-0.4l-2.2-0.2l-0.5-0.8l-1.2-0.1l0-0.6l-1-0.5
		l-0.3-0.8l-1.8,0.6l-0.6-0.8l-0.8,0.3l-2.2-0.7l-0.6,0.6l-0.2-0.2l-0.6,0.3l-0.2,0.6l-0.8,0.2l0,0.3l-0.6-0.1l0,0l-0.2-0.1l0,0
		h-0.9l-1.8-0.7l0-0.3l-1-1.1l-1.6-0.7l-1.7-1.2l-0.1-0.6l-0.9-0.4l0.1-0.4l-1.7-0.6l-1.1-0.8l-0.1-0.4l-2-1l-0.7-1.5l0.2-1.1
		l-0.8-0.6l-1.2,0.2l-0.2,0.7l-1-0.5l-0.3-0.9l-0.9-0.8l-0.7-3l0.5-0.7l0.5,0.4l0.6-1l0.1-0.8l-0.4-0.9l0.3-1.3l-0.4-1l-0.5-0.3
		l-0.7,0.2l-1.3,1.3l-1.1,0l-2.8-0.8l-0.8-1.7l-0.4-0.3l-0.4-0.2l-1.2,0.5l-0.2-1.6l-1.3-2.6l0.1-0.9l0.8-1.3l-0.5-0.7l-1.1-0.4l0,0
		l-0.9-1l0.3-0.2v-1.1l-0.4,0l-0.4-0.7l0.8,0l0.4-0.9l-0.3-1l-0.4-0.2l0-0.4l1.2-0.4l-0.9-1.2l-0.2-1.6l-1-1.5l0.4-0.3l3-0.2v-0.3
		h1.1l0.3-0.6h0.8l0.8-0.7l0-1.1l0.5-1.2l-0.1-1L90,98.1l0.3-0.7l-0.2-0.8l-1.9-0.3L87.9,96l1.2-6.3l-0.9-2.5l-0.2-1.3l0.4-1.9
		l1.4,3.7l1.3,1.4L93.7,90.6z"/>
	<path id="ID-SA" class="st0" d="M517.8,102.7l-0.9,1.2l-0.8,2.5l-2.5,3.9l-1.3,0.6l-2.7,2.3l-1.9,3.7l-1.9,2.3l-2.1,1.1l-1.3,0.3
		l-5.2,0.7l-3,0.7l-2.2,0.3l-1-0.3l-2.2,0l0,0l1.1-2.4l0.1-2.1l-0.3-0.8l-0.5-0.6l-2-0.3l-1.2-0.9l-0.6-0.5l-0.2-1.3l-0.7-0.7
		l-1.4-0.6l-0.2-0.8l0,0l2.3-0.1l5.3,1.5l0.9-0.3l3.8,0.9l1.6-0.1l6.6-3.1l1.2-2.7l1-0.4l2.9,0l0.4-0.6l0-0.6l-1.2-0.3l-0.3-0.4
		l0.4-1.1l1.1-0.8l1.7,0.3l2-1.1l0.2-0.5l-0.5-1.3l2.6-2.1l1.1-0.1l1.7,0.5l0.7,0.6l-0.1,1l1.4,1.2l-0.3,0.8L517.8,102.7z
		 M522.5,81.9l-0.7-0.1l-0.4-1.5l0.5-1.2l0.5-0.2l0.7,0.6l-0.8,1.2l0.4,1L522.5,81.9z M525.6,64.9l-0.2,0.6l1,1.3l0.6,0.2l0.1,1.3
		l-0.6,1l-0.4-0.1l-0.1,0.6l-0.5-1l-0.5,0l-0.7-0.7l-0.3,0.1l-0.3-1.2l0.5-1l-0.5-0.5l0.3-0.1l-1.6-0.8l-0.1-1.3l0.7-0.3l1,0.2
		L525.6,64.9z M545,61.8l-0.5-0.2l-1.3-2.8l-0.1-1l0.7,0.3l1.4,1.9L545,61.8z M545.8,58.5l-1.1-0.2l-0.2-1.3l0.7-0.6l1-1.8l-0.2-0.6
		l-1.2-0.4l-0.3-1l0.5-3l0.3-0.6l1.3,0.2l0.8,0.7l1,3.6l-0.8,1.2l-1.3,3.2L545.8,58.5z"/>
	<path id="ID-SB" class="st0" d="M90.9,179.9l0.2,1.3l-1.5,0.4l1.4,2.7l-0.4,0.5l-0.6-0.8l-0.6-0.3l0.2-0.2l-0.2-0.3l-0.8-0.3l0-1.8
		l-0.6-0.8l-0.6,0.1l-1.3-2l0.3-0.8l-0.4-2.2l1-0.4l1.4,1.7l0.9,0.5l1.7,1.9L90.9,179.9z M85.4,175.5l0,0.4l-1.1,0.2l-0.5-0.5
		l-0.4,0.6l-0.4-0.4l0.1-0.3l-0.4-0.4l0.3-1.9l-0.3-1.4l-0.5-0.3l0.4-1.5l0.5,0.1l0.7,1l2,1.4l0.8,1.5l-0.2,0.8L85.4,175.5z
		 M77.9,164.1l1.2,2.3l0.6,0.3l0.4,0.7l0.3,0.7l-0.2,0.4l-0.4-0.7l-0.6,0.2l-0.2-0.5h-0.8l-1-0.8l-1.4-0.1l-1.3-2.2l0.3-0.4l0.5,0.1
		l-0.3-0.4l0-1.3l0.5-0.4h0.6l1.3,1.1L77.9,164.1z M64.4,143.5l0.3,1l-0.5-0.3l0.4,1.3l1,0.8l0.1,0.8l1.1,1.9l-0.1,0.3l0.6,0.7
		l0,0.6l1.2,1.3l0.1,0.7l-0.6-0.2l0.4,0.5l0.7,0.3l0.4,1.7l0.7-0.2l0.5,0.7l0.1,1.5l-0.3,0.5l-0.7-1.1l0.5,1.6l-0.4,0.4l-1.1-0.3
		l-1.1,0.5l-4.1-2.2l-0.8-1.1l0.2-0.3l-0.6-1.2l-3.5-5.1l-0.1-0.4l1.2-2.6l0-1.1l0.6-0.7h2l1.5-0.8L64.4,143.5z M80.9,111.6l0.4,0.3
		l0.7-0.1l0.3,0.7l1.6,0.8L86,114l-0.2-0.2l0,0l1.1,0.4l0.5,0.7l-0.8,1.3l-0.1,0.9l1.3,2.6l0.2,1.6L89,121l0.4,0.2l0.4,0.3l0.8,1.7
		l2.8,0.8l1.1,0l1.3-1.3l0.7-0.2l0.5,0.3l0.4,1l-0.3,1.3l0.4,0.9l-0.1,0.8l-0.6,1l-0.5-0.4l-0.5,0.7l0.7,3l0.9,0.8l0.3,0.9l1,0.5
		l0.2-0.7l1.2-0.2l0.8,0.6l-0.2,1.1l0.7,1.5l2,1l0.1,0.4l1.1,0.8l1.7,0.6l-0.1,0.4l0.9,0.4l0.1,0.6l1.7,1.2l1.6,0.7l1,1.1l0,0.3
		l1.8,0.7h0.9l0,0l0.2,0.1l0,0l0.1,1.9l0.5,0.4l0.5-0.2l-1.1,1.9l-1.6,0.4l-0.6,0.6l0.4,1.6l-0.4,0.7l0.4,0.6l-0.6,1.1l-2,1.2
		l-1.2,1.8l-1,0.3l-0.4-0.4l-1.2,0.1l-1.6,0.2l-0.6,0.4l-0.7-0.7l-0.3,0.4l-0.7-0.3l0.2,3.6l0.8,1.4l1.1,0.7l0.4,0.7l0.7,3.3l0,0
		l-0.2,0.5l0,0l-0.8,1l-3.9,2.6l0,0l-2.3-2.8l-0.4-1.6l-0.8-1.2l0-0.5l1-1.3l0-1.2l-0.4-1.7l-3.4-4.6l-0.9-2.4l-0.8-0.8l0.4-1.2
		l-0.4-1l-1.2-0.4l-0.8-0.8l-0.4,0.3l-0.4-0.1l0.1-0.6l0.4,0.1l-1.2-1.6l0-0.3l0.3,0l-0.3-0.7l0.3-0.7l-1.1-3.5l-3.3-3.4l-1.4-2.3
		l-2.3-1.9l-0.5-0.9l-1.1-0.7l-0.4-1.4l-0.9-1.3l0.3-1.3l-0.6-0.9l-2.8-2l-3-1.1l-0.8-1.3l-0.8-0.1l-1.1,0.4l-1.2-0.4l0.9-1.4
		l1.5-0.4l1.5-2.4l1.7-0.9l1.1,0.4l1.5-0.5l0.6,1.1l0.6,0.5l0.8-0.4l1.5,0.3l1.2-0.4l0.7-0.8v-0.7l-0.7-0.5l-0.1-1.2l-1.3-0.2
		l-0.3-0.8l0.3-0.6l-0.1-2.1L80.9,111.6z"/>
	<path id="ID-SG" class="st0" d="M446.9,174.6l1.6,0.4l1.4,0.9l0.7-0.6l1.1-0.1l0.6,1.4l-0.3,0.9l1.3,0.9l1.2,0.2l1.5-1.4l1.5-0.6
		l0,0l4.6,1.6l0.6-0.3l2.2,0.3l0.5,0.7l1.1,0.2l0,1.2l0.9,0.8l0.6-0.1l0.4,1l0.7,0.1l0,0.6l0,0l-0.9,1.2l0.2,0.8l2.2,1l0.7,1.2
		l-0.2,0.4l-0.4,0.1l-2.4-2.2l-0.8,0l0.7,1.3l-0.4,1.3l-1.2,0.5l0,0.4l0.8,1.3l3.9,2.4l0.6,1.4l0.5,0.3l2.2,0l0.1,0.4l-0.5,0.4
		l-0.2,1l0.7,0.3l0.1,0.4l-0.3,0.4l0.6,1.3l2.6-0.1l-0.1-0.4l-0.8-0.6l-0.2-0.4l0.2-0.1l0.6,0l0.7,0.5l0.9,2.6l-0.1,2.8l-1.2,1
		l-2.5-2l-0.3,0.1l0,0.6l1.5,1.6l0.1,0.4l-0.6,0.5l-0.3-0.4l-0.6,0.3l-0.7-1.3l-0.8-0.5l-2.1,1l-0.8-0.1l-2.7,0.8l-0.8-0.1l-1.3,0.7
		l-0.9,0.2l-1,2.6l0.3,1.1l0.9,1.1l-1.2,1.3l-1.7,0l-1.5-0.7l-2.1-0.2l-1,0.2l-0.7-0.7l-1.6-0.6l-1.5-2l0.2-1.8l0.8-2.3l-0.1-1.4
		l0.4-1.2l0.5-0.2l0.7-1.4l-0.3-2l-1.3-0.5l-2.4-0.4l-1.6-2l-0.5-0.2l-0.2-0.9h-1.1l-1-1.4l-4.2-3.7l-0.2-0.7l0.3-1.7l1.6-2.2
		l0.7-0.4l0.6-1.5l0-2.3l0.5-1l0-1.6l-0.5,0l-0.2-0.8l-0.1,0.4l-0.6-0.1l0.3,0.3l0,0.2l-0.3,0l-0.4-1.1l0.5,0.2L446.9,174.6z"/>
	<path id="ID-SN" class="st0" d="M445,252.6l1.1-0.1l1.2,0.4l-0.3,0.5l-0.8,0.1L443,253l-0.4-0.5l0.4-0.3L445,252.6z M440.7,248.5
		l1.1,0.6l0.5-0.3l-0.1,1.3l-1.7,0.2l-0.6-0.4l-0.2-0.6l0.1-1.2L440.7,248.5z M437.6,237.8l-0.4,0.9l-0.3-1.8l0.2-1.3l-0.5-2.5
		l-0.1-4.3l0.4-2.1l0.4-0.4l1.3,4.5L437.6,237.8z M426.5,161.7l0.4,0.5l1.9-1.4l1.8,0l0.1,0.6l0.8,0.4h1.8l1.3,0.6l0.8-2.9l0.3-0.1
		l2.9,4l1.1,1.1l1.3,0.7l0.8,0.3h0.8l0.1-0.3l0.5-0.1l1,0.1l5.7,2.3l1.7,0.3l1,0.6l1.5,0.1l1.3,1l1.5,0.3l0.7,1l0.5-0.1l0.6,0.5
		l1.3,2.6l-0.9,0.4l-1.4,2.5l0,0l-1.5,0.6l-1.5,1.4l-1.2-0.1l-1.3-0.9l0.3-0.9l-0.6-1.4l-1.1,0.1l-0.7,0.6l-1.4-0.9l-1.6-0.4l0,0
		l0.4-0.5l-0.8-1.1l-4.4-1l-3.5,1.7l-6.4,4.3l1.1,3l1.9,1.2l0.5,0.9l-0.2,4.3l0.6,1.3l0.3,2.2l-1.6,3.4l-0.2,3.4l0.8,1.1l-0.5,3.7
		l0.7,1.8l0.5,3.2l-0.5,1.8l-1.4,1.2l0,2.4l-0.7,2.8l2,3.5l1.2,4.8l-0.8-0.3l-1.4-1.8l-4,1.4l-2.9-0.6l-1.3,1.1l-0.2,0.8l-0.9,0.6
		l-1.9-0.1l-0.8-1.4l-2.8-1l-1.9-2.8l0.4-3.8l1.6-2.4l0.9-2.2l0.1-0.8l-0.6-2.4l1.8-2.9l0.5-4.1l0-2.4l-0.5-3.7l-2.6-4.7l1.2-2.3
		l-0.5-1.4l0,0l-0.9-4l-0.7-0.7v-0.4l0.4-0.3l0.4,0l0.2,0.3l0.9-0.2l0.5-0.8l0.7-0.2l1,0l0-0.4l-1.1-1.8l0.3-0.7l-0.4-0.9l0.2-1.9
		l0.3-0.8l0.8,0.3l1.5-0.4l0.7-0.8l0.2-0.7l1.2-0.9l0.2-0.6l-0.3-1.1l-1.6-0.7l-0.6-1.7l-1.5-0.7l0-1.3l1.8-1.3l0.6-0.8l0.7-0.1
		l-0.1-1.2L426.5,161.7z"/>
	<path id="ID-SR" class="st0" d="M421.3,141.5l-0.1,2.4l0.4,2.3l0.1,0.2l0.4-0.1l0,0.5l-0.7,2.1l-1.6,0.2l-0.2,0.4l0.6-0.2l0.1,0.2
		l-1.2,0.4l0,0.3l1.5,1.3l1.6-0.5l1.3,1l-0.6,0.8l0.3,0.9l1,1l-0.1,0.6l0.4,0.1l0.4,0.8l-0.4,0.9l0.4,0.3l1.5,0l0.2,3.1l-0.4,0.2
		l0.2,0.9l0,0l-1,0.5l0.1,1.2l-0.7,0.1l-0.6,0.8l-1.8,1.3l0,1.3l1.5,0.7l0.6,1.7l1.6,0.7l0.3,1.1l-0.2,0.6l-1.2,0.9l-0.2,0.7
		l-0.7,0.8l-1.5,0.4l-0.8-0.3l-0.3,0.8l-0.2,1.9l0.4,0.9l-0.3,0.7l1.1,1.8l-0.1,0.4l-1,0l-0.7,0.2l-0.5,0.8l-0.9,0.2l-0.2-0.3
		l-0.4,0l-0.4,0.3v0.4l0.7,0.7l0.9,4l0,0l-3.4-1.1l-1.3,1.1l-2.9,0.2l-2.2,1.2l-1.5-4l0-4.6l0.9-3.1l-0.4-0.7l-0.9-0.2l-0.7,0.3
		l-0.2-1.5l0.7-2.4l0.4-0.2l0.7,0.6h0.7l1.7-1.1l2.4-2.4l-0.3-2.9l1.4-4.6l0.9-0.9l0.7-0.2l0.6,0.3l0.6-2.3l-0.8-0.8l-0.5-1.7
		l0.5-1.6l-0.6-3.5l0.7-0.7l-0.4-1.6l0.7-1.5l1.8-1.5l1-3.4L421.3,141.5z"/>
	<path id="ID-SS" class="st0" d="M148.2,209.6l-0.3-0.9l-1.4-0.2l0.4-0.5l-0.5-1.3l-0.6-0.5l-0.8,0l0.7-0.6l-1.1-1l0.8-1.1l-0.3-1.2
		l-0.6-0.2l-1,0.4l-0.9-0.9l-1.7-0.1l-1.2-1l-1.9-0.3l0-1.6l-1-2l-0.7-0.3l-2.2,0.1l-0.9-0.8l-0.6,0.3l-0.8-0.2l-2.4-2l-0.6-0.8
		l-0.7-0.2l2-1l0.1-1.1l1.1-1.1l0.1-1.4l0.7,0.3l0.9,1.2l0.9-0.7l0.7-1l0.3-2.1l-0.2-0.5l-0.8-0.1l-0.8,0.3l-0.1-0.9l-0.6,0.2
		l-0.8-0.1l-0.6-0.9l-2.5,1.2l-0.9-0.4l-1.7-1.5l0.2-0.5l-0.2-0.1l0.1-1.2l-0.3-0.7l-0.6-0.6l-1-0.2l-1.1,0.4l-1.1-0.6l-0.7-1.8
		l-1.5-1l-0.1-0.7l-0.8-0.5l-0.2-0.6l0,0l0.5,0.2l0,0l0.4-0.7l1.6-0.5l0.4-0.4l0.1-0.7l0.6-0.2l0.9,0.5l0.5-0.2l1.1,0.8l0.7,0.2
		l0.8,0.2l1-0.5l0.5,0.2l0.8-1.2l1.7-1.1l0.6,0.1l0.4-0.4l1.5-2.1l-0.6-1l0.6-0.8l2.6,0.6l0.3-0.5l1.4,0.6l1.5-0.6l-0.2-0.7
		l-0.7-0.7l1.2-1.7l0.8,0.4l0.1,0.8l0.8,1l2.1,1.5l0-2.9l1.8-0.8l-0.6-0.5l0.3-3.6l1.1-1l2.2-0.8l1.7-0.1l0.3-0.5l0.7-0.4l1.5,0.6
		l1.2-0.2l1.1,0.3l2.3-0.8l2-0.2l0.3-0.4l-0.1-0.8l0.5-0.4l0.5-0.1l1.3,0.5l0,0l0.6,1l0.2,0.9l-1,1.6l0.2,1.1l0.7-1.3l0.4,0.1
		l3.3,2.4l1.4,0.1l0.9,1.1l0.3,2l-1.1,1.1l-0.3-0.1l-0.6,0.5l-1.1,1.8l0.9,0.2l1.3-1.6l1.1-0.2l0.4,0.8l1.1,0.1l2,0.8l1.5-0.8
		l2.4,0.8l4.7,0.3l0.3,0.6l-0.5,1.7l0.3,1.4l0.9,1l1.8,0.3l0.2,0.6l-0.2,2l0.6,1.3l0.7,0.6l2.1-0.1l1.2,0.7l0,2.2l0.8,2l-2,1.3
		l-1.1,1.2l-1.5,3.6l-0.1,1.1l0.2,0.9l1.8,1.2l0.4,1l-0.2,0.8l-1.5,2.7l-0.2,1.6l-0.3,0.4l0,0l-0.8-0.8l-0.6,0.5l-0.8-0.1l-0.4-0.9
		h-0.6l0.2-0.6l-0.9,0.1l0.4-0.8l-0.8-0.9h0.4l-0.1-0.3l-0.7-0.1l0-0.4l-0.3-0.3l0,0h-0.5l0,0l0.1-0.8l-1.6-0.2l-0.1-0.7l-0.3-0.1
		l-0.9,0.3l-0.5-1.2l-0.9,1.3l0.3,0.6l-0.2,0.5l-0.7,0.6l-0.7-0.2l-0.5,0.3l-0.1,0.5l-0.4-0.1l-0.3,1.1l-0.4,0.4l0.3,0.3l-0.7,0.4
		l-0.3,1l-1,0.9l-1.2,0.2l-1.1,0.6L167,200l-1.5,0.2l-2.2-0.1l-0.6-0.6l-2.5,1.5l-0.6,0l-1.3,1.1l-0.6,1.3l0.3,2.7l-0.7,0.6
		l-0.3,0.8l0.5,0.3l0.1,0.8l0.8,1l-0.8,1.3l-1.9-0.3l-1.5,1l-1.2-0.6l-1.6,0.4l-0.5-0.4l-0.5,1.2l-1.1-0.7l0.4-0.6v-0.5l-0.4-0.5
		l-0.4,0l-0.1-0.5L148.2,209.6L148.2,209.6L148.2,209.6z"/>
	<path id="ID-ST" class="st0" d="M491.7,219.6l-1.2-0.1l-0.6-1.2l-0.1-0.8l1.3,0.1l0.5,0.4L491.7,219.6z M463.8,221.3l-1,0.1
		l-2.7-3.6l0.9-3.1l0.9-0.6l1.2,0.4l1.4,2.6l-0.1,3.3l-0.2,0.6L463.8,221.3z M475.9,206.9l0.8,4.4l-0.1,1l-2.2,1.9l-0.8,1.7l1,1.9
		l-0.2,1.3l-0.7,1.2l-0.9,0.3l-1.6-0.6l-2.9-0.4l-0.2-0.9l0.8-3l0.3-0.6l1-0.9l-0.1-1.5l-1-2.3l0.7-1.6l2.5-0.6l1.4-1.1l1.6-0.8
		L475.9,206.9z M484.4,207.9l-0.1,3l-0.6-0.7l0.1-1l-0.7-1.1l-0.4,0.2l0.2,2.1l-0.4,0.2l-0.8-0.5l0.4-1.3l-0.6,0.1l-1,3.3l-0.2,2.8
		l0.7,0.6l0.4-0.1l2.9,2.3l0,0.4l-1.2,1.6l-1.6,0.7l-0.9-0.5l-2.1,1.2l-0.2,0.7l0.7,0.1l0.2,0.3l-1.5,2.6l-0.4,0.3l-2.6-0.1
		l-1.5-3.1l2.9-4.4l0.8-2.1l1.2-5.5l-0.2-2.8l1.2-3.1l2-1.4h0.8l-0.3,0.5l0.2,0.8l1,0.6l1,1.4L484.4,207.9z M482.1,196.3l1.8-0.3
		l1.1,1.4l-0.1,0.7l-1.8,2.2l-1.4-0.1l-2-2.6l0-0.7l0.9-1l0.7-0.1L482.1,196.3z M484.3,147.3l0.5,1l-0.7,1.1l0.9,1.6l0.4-0.1l0.4-1
		l1.3-1.5l0.8-0.4l2.5,1.2l-0.4,2.8l-1.3,1.2l-0.5,0l-1.2-0.6l-0.9-1.2l-0.8,0.7l-0.5,2.6l-0.8,0.3l-1-0.3l-0.4-0.6l1.4-1.2
		l-0.7-3.6l-1.6,1.6l-0.3,1.1l-0.8,1.2l-1.2,1.1l-1,0.1l-0.7-1.6l-0.7-0.6v-0.9l0.5-1.8l1.3-1.7l0.3-0.4l0.4,0l0.7,0.4l2.3-0.9
		l0.6,0.7l0.4-0.9L484.3,147.3z M450.3,105.9l2.5-0.2l1.2-0.8l0.3,0.2v0.4l-0.2,0.3l-0.8,0.2l1,1.7l1.5,1.2l0.7,0.2l5.7-0.8l1.1,1.4
		l1.2-0.8l2.3,0.8l0,0l-2.5,0.8l-0.5,0.6h-0.4l-0.4,0.9l-0.9-0.7l-0.5-0.8l-0.9,0.1l-0.8,0.6l-3.2,1.2h-1.5l-0.5,0.4l-1.3-0.1
		l-0.9-0.5l-0.4,0.4l0,1l-0.5,0.1l-1-0.4l-1.1,0.4l-0.4,0.3l-0.1,1.1l-0.3,0.2l1.3,1.5l1.8,0.4l0.2,1.5l-0.3,0.5l0,0l-1.4-0.4
		l-1.7,0.4l-0.6,0.8l-2-0.2l-1.5,0.3l-3.8-1.8l-3.4-0.2l-2.8,1.2l-1.7,1.7l-2.1,3.1l0.4,0.3l-0.5,0.8l-0.2,2.1l-0.6,0.6l-0.5-0.1
		l0.1,1.3l-0.5,1l0,1.4l1,2.9l-0.4,3.1l0.3,0.7l3.8,4.9l0.8,0.2l1.1-0.6l0.8,1l1.1,0.1l1.4,2.3l-0.4,2.1l0.8,0.7l1,2.2l0.5,0.1
		l0.8-0.4l0.2-0.6l0.5-0.2l0.7,0v0.7l0.7,0.5l1.2-0.2l2.4,0.3l1.4-1.5l1.1-2.2l2.2-2.8l1.5-1.3l0.7-1.2l1.8-0.6l0.2-0.9l0.5-0.1
		l0.7,0.3l-0.3,1.5l0.2,0.4l1.4,0.6l2.2,0.2l0.9,0.4l1.3-0.9l0.8-0.1l1.2,0.3l0.5-0.5l0.4-2l1.5-0.6l1,0.4l2.7-1l3.7,0.5l4.3-0.3
		l0.7-0.4l-0.1-0.3l-1.4-0.5l-2-0.2l-0.4-0.6l1.5-0.6l3.3-0.2l1.1-0.8l2.7,0.1l1.5,0.6l1.7,0.9l0.8,1.9l-0.1,1.2l-0.8,0.9l-0.3,1.9
		l-0.8,0.9l-1.5-0.4l-1.3-1.5l-0.3-0.9l-1.5-0.3l-4.3,0.6l-1,2.2l-1.3,1.4l-1,1.7l-1.2,0.9l-3.2,3.6l-3.7,2.1l-2.6,0.3l-1,0.7
		l-2,0.4l-0.7,0.5l-1,2.4l-1.3,1.1l-2.2,0.1l-1.6-1.9l-2-0.8l-0.5,0.3l-0.2,1l0.9,2.5l0.4-0.3l1.1-0.1l2.4,3.2l0.9,0.3l0.9-0.2
		l0.8,0.2l2.1,2.2l2.3,3.9l0.8,2.5l5.1,3.8l0,0.7l-0.7,1.5l1.9,1.7l0.8-0.1l0.9,0.7l-1.1,1.3l-1-0.3l-0.3,0.3l0,0l0-0.6l-0.7-0.1
		l-0.4-1l-0.5,0.1l-0.9-0.8l0-1.2l-1.1-0.2l-0.5-0.7l-2.2-0.3l-0.6,0.3l-4.6-1.6l0,0l1.4-2.5l0.9-0.4l-1.3-2.6l-0.6-0.5l-0.5,0.1
		l-0.7-1l-1.5-0.3l-1.3-1l-1.5-0.1l-1-0.6l-1.7-0.3l-5.7-2.3l-1-0.1l-0.5,0.1l-0.1,0.3h-0.8l-0.8-0.3l-1.3-0.7l-1.1-1.1l-2.9-4
		l-0.3,0.1l-0.8,2.9l-1.3-0.6h-1.8l-0.8-0.4l-0.1-0.6l-1.8,0l-1.9,1.4l-0.4-0.5l0,0l-0.2-0.9l0.4-0.2l-0.2-3.1l-1.5,0l-0.4-0.3
		l0.4-0.9l-0.4-0.8l-0.4-0.1l0.1-0.6l-1-1l-0.3-0.9l0.6-0.8l-1.3-1l-1.6,0.5l-1.5-1.4V150l1.2-0.4l-0.1-0.2l-0.5,0.2l0.2-0.4
		l1.5-0.2l0.7-2.1l0-0.5l-0.4,0.1l-0.1-0.2l-0.4-2.3l0.1-2.4l0,0l1.9-1.6l0.1-1l0.9-0.6l1.7,3.8l0.5-0.5l-0.2-2.3l-0.8-1.1l-0.8-2.8
		l0.1-2.6l0.9-2.4l-0.3-1.2l-1.4,0.4l-0.3-0.1l-0.7-0.5l-1-1.8l1.1,0.2l-0.1-0.6l0.9,0.4l0.5,0.4l0,0.4l0.7,0.9l0.7,0.2l0.7-0.8
		l0.4-1l0-1.6l-1.8-2.4l0.4-0.3l1.7,0.3l-0.2-1.2l-0.6-0.9l1-2.1l2.1-0.9l0.1-0.8l-0.4-1.7l0.2-0.9l0.7-0.6h0.8l1.8-1l0.5-2.7
		l0.6-0.4l0.9,0.2l0,2l1.4,0.9l2.7,0.5l0.6-1.9l0.6-1l0.7-0.7l1.1-0.4l0.8-0.9l0.5-2.3l-0.2-1.4l0.2-0.8l2.1-0.3l2.5,0.3
		L450.3,105.9z"/>
	<path id="ID-SU" class="st0" d="M55.6,131.3l0.4,0l0.7,0.8l0.5,1.4l-0.3,0.4l0.2,1.5l-0.5,0.4l0.3,1l-0.6,0.2l0.1-0.8l-0.8,0.2
		l-0.1,1l-0.9-0.8l-1.4-0.5l0.6-0.2l0.4,0.2l0.2-0.8l0.3-0.2l0.2-2l0.9-0.6l0.2-0.4L55.6,131.3z M55.1,127.1l0.1,0.2l0.3-0.2v0.5
		l1.1,1.3l0.2,1.8l1.4,1.3l-0.1,0.9l-0.4,0.2l0.2,0.8l-0.5-1.2l-2.6-3.7l-0.3-1.1l-1-0.5l1-0.5L55.1,127.1z M59,124.1l1.5,0l0.3,0.3
		l1.3-0.2l1,1l0,0.6l-1.2-0.2l-0.5,0.4h-1.7l-2.1-0.6l-0.1-0.7l0.8-0.5L59,124.1z M40,102.6l2.8,4.1l1.8,0.6l2.1,1.9l0.5,1.2
		l-0.7,1.6l-0.2,4l-1.3,1.6l-1.9-0.5l-1.5-4.1l-2.1-2.1l-1.4-0.3l-2.8-5.2l-2.3-2.3l0.8-0.3l1.6-0.1l1.4-1.2l1.1-0.2l1.5,0.5
		L40,102.6z M56.9,98.6l0.7,0.1l0.3-0.5l0.8,0.9l-2,0L56,98.9l-0.2-0.5l0.5-0.6l0.6,0.2L56.9,98.6L56.9,98.6z M21.2,86.8l-2-0.3
		l-0.3-1l-4.1-2.7l-4.2-1.3l-2-1.9l-0.1-0.9l1.6-2l1.6,0.3l2,2.4l1.8,0.4l1.9,2.1l2.3,1.6l1.5,0.6l0.9,2.3L21.2,86.8z M50.9,90.1
		l0.6-2.8L51,85.7l-0.8-0.3l0.1-0.7l-0.4-0.6l-0.2-1l0.2-1.4l0.6-0.2l-0.7-1.4l0.4-0.9L50,78.6l-1-0.1l-0.6-1.1l-0.9-0.2l-0.4-2.7
		l0.8-0.1l0.1-1l-0.6-0.7L47.3,72l-1.2-0.8l2.4-0.7l0.2-0.8l-0.4-0.7l-0.3,0.1l-0.7-0.4l-0.3-1l0.3-0.5l-0.6-0.4L46.7,66l-0.7-0.3
		l0-0.7L44.9,63l1.9-1.8l-0.2-1.4l0.7,0.3l0.1-0.7l1.2-0.7l0.4-2.6l0.5-0.7l-0.2-0.5l0.4-0.2l-0.2-1.1l1,0l0.3-0.4l0.8-0.2l1.2,0
		l0,0l0.1,2.7l0.8,1l1.2,0l2.6,1.3l0.8,1.3l1.7,0.4l0.3,0.6l0.1,1.4l2.1,1.4l2.2,0.7l1.8,1l4,2.5l1.2,1.1l1.2,0.5l0.9,0.7l1.1,1.6
		l3.7,1.8l3.7,3.5l0.2,2.5l-0.7,1.4l0,0.4l1.1,1.3L83,82.4l0.5-0.2l-0.3-0.8l0.2-0.5l-0.9-0.5l0.9-0.6l0.4,0.1l0.7,0.8l-0.1,1.4
		l0.7,1.7l-0.3-2.4l0.9-0.9l0.6,0l1.9,2.7l0.2,0.6l-0.4,1.3l0.1,2l0.9,2.5l-1.2,6.3l0.3,0.3l1.9,0.3l0.2,0.8L90,98.1l0.6,0.1l0.1,1
		l-0.5,1.2l0,1.1l-0.8,0.7h-0.8l-0.3,0.6h-1.1v0.3l-3,0.2l-0.4,0.3l1,1.5l0.2,1.6l0.9,1.2l-1.2,0.4l0,0.4l0.4,0.2l0.3,1l-0.4,0.9
		l-0.8,0v0.2l0.4,0.5l0.4,0v1.1l-0.3,0.2L86,114l-3.7-1.5l-0.3-0.7l-0.7,0.1l-0.7-0.4l-0.6,0.3l0.1,2.1l-0.3,0.6l0.3,0.8l1.3,0.2
		l0.1,1.2l0.7,0.5v0.7l-0.7,0.8l-1.2,0.4l-1.5-0.3l-0.8,0.4l-0.6-0.5l-0.6-1.1l-1.5,0.5l-1.1-0.4l-1.7,0.9l-1.5,2.4l-1.5,0.4
		l-0.9,1.4l-0.2-0.1l-0.3-0.2l0.3-0.2v-0.9l-0.8-0.5l0.4-1.2l-0.6-2.9l-4.6-12.5l-1.3-3l-0.8-1.1l0.2-0.3l0.5,0.5l0.4-0.1l0.8-1.3
		l0-0.8l-1.7-2l-0.5,0.3l0.5,0.2l0.2,0.7l-1.2-0.4l-2.6-3.3L50.9,90.1z"/>
	<path id="ID-YO" class="st0" d="M270.3,268.5l-2-0.1l-5.9-2.1l-0.7-0.8l-2-0.6l-3.8-1.8l0,0l0.6,0l0.3-1.3l1.2-1.3l0-1.6l2.2-0.1
		l0.4,0.9l0.6-0.8l2.4-1.9l0.8,3.9l0.8,0.5l0.6-0.1l0.2,0.3l1.5-0.3l0.2,0.3l0.6-0.3l0.7,0.6l0.2-0.3l0.3,0.2l-0.6,3.4l0.6,1.6
		l0,0.8l0.2,0.2l0.5-0.4l-0.2,0.6l0.4,0L270.3,268.5z"/>
	<path id="TL" class="st0" d="M506.3,285.5l-0.4,1.6l0.1,0.6l-0.4,0.6l-1,0.4l0,0.5l-0.5,0.7l0.2,0.5l-0.2,0.5l-1.2,0.3l0.1-0.9
		l-0.2-0.6l-0.8-0.8l-1.5,1l-0.3-0.3l-0.5,0l-0.9-1.2l0,0l1.8-0.7l0.6-0.7L506.3,285.5z M554.3,273.3l-4.1,3.5l-3.9,1.3l-2.3,0.3
		l-1.3,0.6l-1.9,2.4l-5.6,0.7l-3.6,2.4l-2.8,0.4l-6.7,2.2l-1.1,0.7l-2,2l-1.4,0.2l-0.7,0.5l0,0l-0.7-2.3l-1-0.7L515,286l0.3-0.6l1,0
		l0.7,0.6l0.7-0.5l0.7-0.1l0.1-2.5l-1.3-1l-0.6,1l-1.7,0.7l-0.8-0.6l0.3-1.2l-0.2-0.1l0,0l2.7-3.5l0.3-1.4l0.6-0.8l4.8-1.1l4.9-0.7
		l2.3-0.9l1.6,0.1l2.4,0.6l2.7-0.4l2.2-1.2l0.9-0.1l2.6,1.1l3.6-1.1l4-1.7l3.3,0.1l1.8,1.1l0,0.6L554.3,273.3z"/>
	<path id="MY-12" class="st0" d="M384.5,13l-1.4-0.2l-0.3-0.3l1.8-0.6l0-0.4l-0.6-0.1l-0.1-0.2l1.2-0.4l0.8,1l0,0.5L384.5,13z
		 M373.2,13.7l1.4-0.2l3.2-4l-0.3-1.9l0.6-0.8l1.3-0.4l0.6,0.2l1.2,0.8l0.1,3.1l0.6,2.2l3.1,1.7l3.1,0.4l1.6,2.2l-0.3,2.2l-1.4,0.2
		l-0.7,0.9l1.1,1.8l0.2,1.8l-0.8,0.7l-2.2,0.8l4.8-0.3l1.8-0.6l2.1-1.9l0.7,0.7l1.3,2.7l-0.8,0.9L393,27l-0.4,0.3l0.8,1.9l2.9-0.1
		l0.5-1.7l0.4-0.3l1.4-0.4l2,0.4l3.5,2l2,1.7l4.2,2.8l2.3,0.4l2.1-0.7l0.9,0.7l0.6,1l-0.1,2.1l-0.8,1.3l-2.7,1.4l-2.7,0.7l-3.7,1.5
		l-2.6-0.3l-1.8-0.7l-0.6-0.5l-1-0.1l-2.5,1.3l-1.2,1.3l-0.1,0.6l2.6,3l2.3,1.5l0.4-0.3l0.8,0.3l-0.3,0.9l0.7,0.7l0.6-0.4l0.9,0.1
		l0.9,1.4l-1.6,1.5l-2.5,0l-3.8,0.7l-3.2,1.4l-1.6-0.4l-0.7-0.7l-2.9-1.5l-1.1,0.4l0.4,1.5l-1,1.7l0,0l-0.2-0.2l-0.9,0.3l-1.2-0.3
		l-0.6-1l-3-2.2l-1.2,0.6l-2.4-0.1l-0.3,0.4l-2-0.8l-1.2,0.6l-0.7-0.2l-0.8-0.7l-0.5,0.7l-1.6,0.2l-0.2-0.6l-0.8-0.6l-0.5,0.7l0,0.6
		l-0.8-0.1l-0.2,0.5l-0.6,0.1l-0.2-0.6l-1.2-1l-1.5,0.3l-1.7-0.4l-0.3,0.8l-0.9,0.3l-0.6,0.9l-1-1.2l-1.5-0.3l-0.3-0.6l-0.5,0.2
		l0,1.5l-0.7,0.6l-0.1,0.6l-0.4,0.1l-0.5-0.4L355,55l-0.4,0l-0.4,1.6l0,0v0l0,0l-0.9-0.5l-0.3-0.7l0.4-1.1v-5.7l-1.1-7.6l-1.7-0.3
		l0,0l1.4-0.8l0.3-1.9l-0.3-0.4l-1.3-0.3l-2.2-1.5l0.4-1.6l2.6-2l4,0l1-0.2l0.5-0.5l0.8-1.4l0.4-1.8l2.3-1.6l0-1l0.6-1.3l0.3-2.6
		l3.8-4.1l3-2.2l0.1-0.9l2.4-2.7l0.2-2.5l1-2.1l0.9-1l1.3,1.3l0.3,2.5l-0.1,0.8l-1.2,2L373.2,13.7z M381.9,1l-0.1,1.4l-0.5,1
		l-1.8,0.2l-1.4,1.1l-0.2-1.1l0.3-2l1.3-0.9l1.3-0.3l0.8,0.2L381.9,1z M374.8,2.7l-0.3,0.7l0.4-1.6l2.1-1.4l0.3,1.5L374.8,2.7z"/>
	<path id="MY-13" class="st0" d="M280.3,86.3l-0.8,0.3l-1.1-1.6l-0.2-4.9l0.2-0.6l0.4-0.2l0.9,1.4l-0.1,3.5L280.3,86.3z M350.6,40.7
		l1.7,0.3l1.1,7.6v5.7l-0.4,1.1l0.3,0.7l0.9,0.5l0,0l0,0.1l0,0l-0.7,2.1l-1.3,0.7l1,1l-0.7,2.3l0,1.5l0.7,2.4l0.6,1l-0.4,0.6
		l-0.4-0.6l-0.3,0l-0.6,1.3l-0.4,2.8l0.8,0.9l-0.8,0.7l-0.3,1.4l-1,0.1l-0.8,0.8l-1.2,0.1l-0.6-1.1l-0.3,0.8l-1.6,1.1l-0.2,1.1
		l-1,0.8l0.7,0.6l-0.2,0.8l-0.6,0.5l0.2,1l-0.4,0.8l0.3,0.5l1-0.3l1.2,1.5l-0.1,0.3l-0.6,0.5l-1.4,0.2l-0.6,1h-0.7l-0.9,0.8
		l-0.7-0.1l-0.3,0.6l0.3,0.7l-0.8,0.5l-1.8,0.2l-0.3,2.1l0.5,0.5l0,1.4l0.8-0.3l0.5,0.2l-0.7,1l0.4,0.8l-1,0.4l-0.5,0.6l-0.5-0.2
		l-0.6,0.2l-0.4,0.9l0.1,2.3l-0.9,1.2l-0.8,0.5l0.1,1.1l-0.5,0.8l0,0l-0.6,0.5L332,101l-0.6,0.5l-2.3,0.8l-0.2,0.4l0,0l-0.3,0.1l0,0
		l-1.2-0.9l-3,0.3l-0.4,0.4l-1.9,0.8l-0.2,1.2l-2.9,1.4l-0.3-0.1l-0.8-1.3l-0.7-0.3L315,105l-1.8-1.6l-2.4-0.1l-0.8-0.2l-0.4-0.7
		l-0.4-0.1l-1.4,0.4l-0.8-0.1l1.6-2l-0.6-0.7l-2.4-0.3l-1.1,0.8l-0.9-0.4l-1.6,0.1l-2.9-0.4l-1.6,0.9l-1.6,0.3l-1.7,0.8l-0.5,0.6
		l0.4,0.7l0,0.7l-0.9,0.8l-0.4,2.7l-3.2,0.2l-1.4,1.4l-0.3,0.8l-1.7-0.3l-0.6,0.2l-1.3-0.5l-1.6,0.9l-0.3,0.6l-0.7-1.2l-0.8-0.1
		l-1.2,0.3l-2.6-1.2l-2,0.6l-3.9,0.5l-0.9,1.1l-2.8,1.2l-0.5,0l-0.5-0.4l-0.4,0.7l-1.3,0.1l-1.5-0.7l-0.9-1.4l-2-0.2l-0.3-1
		l-1.5-2.3l-1.3-0.1l-0.4-0.3l-0.4-0.9l-1.5-0.7l-0.4-1.7l-1.8-0.2l-0.8-1.3l-2.2-2l-0.3-0.7l0.4-2.1l-0.1-0.3L249,96l-0.9-0.9
		l-0.2-0.6l0.1-0.5l0.6-0.1l0.7-1l0.5-1.4l0,0l0.1,2.3l0.3,0.7l0.7,0.8l3.8,2.8l5.6-0.3l1.3-1.7l2.6,3.1l4.4,1.4l0,0.7l-1,0.9
		l0.2,0.1l0.8-0.1l0.5-0.5l0.2-1.4l0.8-0.1l2.7,1.2l1.5,1.6l1.6,0.7l2.8,0.5l1-0.2l-1.6-1.2l-2.2,0.2l-1.8-1.1l-1-1.9l0.5-1.6
		l0.6-0.3l2.4-6.6l0.9-1l1.2,0.3l0.8-0.7l-0.3-0.3l-3.1,0.3l0.2-2l0.7-2.8l0.3-0.1l2.1,1.6l1.4-0.5l-0.8-1.9l0.8-3.7l3.8-2.6l7.3-1
		l13.4-3.4l2.5-1l4.6-5.6l2.4-3.5l1.8-2l3.8-3.2l3.3-4.3l1.2-3.4l-0.5-2.5L325,48l2,0.1l0,0l1.9,0.7l1.5,2.1l0.2,1.7l3.6,3.4l1.5,2
		l0.5-0.1l1.3-0.7l1.2-1.3l1-3.5l-1.3-6.7l1.1-1.1l2.1-0.4l0.8-1.2l0,0l0.2,1.3l0,0l-0.2,0.7l0.2,2.2l1.2,4.5l2,0.7l2.5,0.4
		l-0.1-0.9l-1.3-1.2v-3.4l-1-3.1l-1.2-1.6l0,0l1.2-0.9L348,43l0.5-0.1L350.6,40.7z"/>
	<path id="BN" class="st0" d="M404.6,47.3l-0.5,0.7l-0.7,0l-3.1-1.2l2.2-0.3L404.6,47.3z M344.9,42.7l1.2,1.6l1,3.1v3.4l1.3,1.2
		l0.1,0.9l-2.5-0.4l-2-0.7l-1.2-4.5l-0.2-2.2l0.2-0.7l0,0l0.5,0.2l1.1-0.8L344.9,42.7z M342.2,42.7l-0.1,0.3l0.7,0l0,0l-0.8,1.2
		l-2.1,0.4l-1.1,1.1l1.3,6.7l-1,3.5l-1.2,1.3l-1.3,0.7l-0.5,0.1l-1.5-2l-3.6-3.4l-0.2-1.7l-1.5-2.1l-1.9-0.7l0,0l1.5,0.2l1.7-0.2
		l3.8-1.7l2.5-2.4l4.3-2.8l2.2-0.9h1L342.2,42.7z"/>
</g>
</svg>
